<?xml version='1.0' encoding='utf-8'?>
<svg xmlns="http://www.w3.org/2000/svg" version="1.1" x="0px" y="0px" viewBox="0 0 1080 1080" style="enable-background:new 0 0 1080 1080;"> <style type="text/css"> .st0{fill:#97C33E;} .st1{fill:#061D26;} .st2{fill:#061F29;} .st3{fill:#16313A;} .st4{fill:#345D6B;} .st5{fill:#E1897F;} .st6{fill:#D61164;} .st7{fill:#EEBD9C;} .st8{fill:#FFFFFF;} .st9{fill:#09212C;} .st10{fill:#E1897D;} .st11{fill:#020303;} </style> <g id="vorlage"> </g> <g id="gras"> <path class="st0" d="M964.5,965h-865C74.371,965,54,944.629,54,919.5v0c0-25.129,20.371-45.5,45.5-45.5h865 c25.129,0,45.5,20.371,45.5,45.5v0C1010,944.629,989.629,965,964.5,965z"/> <path class="st0" d="M142,874H99v-54.813C99,809.143,107.143,801,117.187,801h6.626c10.044,0,18.187,8.143,18.187,18.187V874z"/> <path class="st0" d="M974,874h-29v-42.919c0-7.225,5.857-13.081,13.081-13.081h2.837c7.225,0,13.081,5.857,13.081,13.081V874z"/> <path class="st0" d="M930,874h-58v-94.694C872,764.225,884.225,752,899.306,752h3.388C917.775,752,930,764.225,930,779.306V874z"/> </g> <g id="körper"> <path class="st1" d="M268.101,919.5c-0.007-0.541-0.016-1.081-0.016-1.623c0-68.132,55.232-123.365,123.365-123.365 s123.365,55.232,123.365,123.365c0,0.542-0.009,1.083-0.016,1.623h66.972c34.004-42.024,54.379-95.53,54.379-153.8 c0-135.144-109.556-244.7-244.7-244.7s-244.7,109.556-244.7,244.7c0,58.27,20.375,111.776,54.379,153.8H268.101z"/> <g> <path class="st2" d="M174.391,652.649c9.009-17.262,20.011-33.316,32.71-47.853l-31.54-31.54c-11.13-11.13-29.175-11.13-40.305,0 h0c-11.13,11.13-11.13,29.175,0,40.305l38.184,38.184C173.751,652.056,174.069,652.355,174.391,652.649z"/> <g> <path class="st1" d="M266.259,874.456c-24.653,0-44.639,19.985-44.639,44.638h89.277 C310.898,894.441,290.913,874.456,266.259,874.456z"/> <path class="st1" d="M516.235,874.456c-24.653,0-44.638,19.985-44.638,44.638h89.277 C560.873,894.441,540.888,874.456,516.235,874.456z"/> </g> </g> <g> <path class="st3" d="M389.27,919.5c-0.009-0.666-0.02-1.332-0.02-2c0-83.947,68.053-152,152-152s152,68.053,152,152 c0,0.668-0.011,1.334-0.02,2h82.518c41.897-51.779,67.002-117.704,67.002-189.5c0-166.514-134.986-301.5-301.5-301.5 S239.75,563.486,239.75,730c0,71.796,25.104,137.721,67.002,189.5H389.27z"/> <g> <path class="st4" d="M387,864c-30.376,0-55,24.624-55,55h110C442,888.624,417.376,864,387,864z"/> <path class="st4" d="M695,864c-30.376,0-55,24.624-55,55h110C750,888.624,725.376,864,695,864z"/> </g> </g> <circle class="st3" cx="544" cy="442" r="236"/> </g> <g id="schnauze"> <path class="st5" d="M447.629,433c-18.656,21.877-29.923,50.246-29.923,81.25c0,69.198,56.096,125.294,125.294,125.294 s125.294-56.096,125.294-125.294c0-31.004-11.267-59.373-29.923-81.25H447.629z"/> <path class="st6" d="M570.412,558.75c0-1.255,0.024-2.504,0.06-3.75h-16.68c-1.159,3.967-1.792,8.158-1.792,12.5v120 c0,24.577,19.923,44.5,44.5,44.5h0c24.577,0,44.5-19.923,44.5-44.5v-16.003C599.215,651.185,570.412,608.333,570.412,558.75z"/> <path class="st7" d="M701,433.575v-0.119H382v0.28c-65.33,4.271-117,58.604-117,125.014c0,69.198,56.096,125.294,125.294,125.294 s125.294-56.096,125.294-125.294c0-1.255-0.024-2.504-0.06-3.75h54.944c-0.037,1.246-0.06,2.495-0.06,3.75 c0,69.198,56.096,125.294,125.294,125.294C764.904,684.044,821,627.948,821,558.75C821,491.326,767.741,436.351,701,433.575z"/> </g> <g id="kopf"> <path class="st8" d="M497,434H388v-39.5c0-30.099,24.4-54.5,54.5-54.5h0c30.099,0,54.5,24.4,54.5,54.5V434z"/> <path class="st8" d="M696,434H587v-39.5c0-30.099,24.4-54.5,54.5-54.5h0c30.099,0,54.5,24.4,54.5,54.5V434z"/> <circle class="st9" cx="444" cy="399" r="20"/> <circle class="st9" cx="642" cy="399" r="20"/> <path class="st10" d="M849.263,211l18.357,17.635c19.526,19.526,19.526,51.184,0,70.711l-2.279,2.279 c-19.526,19.526-51.184,19.526-70.711,0L700.293,211H849.263z"/> <path class="st2" d="M668.721,242.265l31.415-31.415l71.405,68.595l-31.966,31.966 C721.111,283.669,696.934,260.062,668.721,242.265z"/> <path class="st10" d="M237.722,211l-18.357,17.635c-19.526,19.526-19.526,51.184,0,70.711l2.279,2.279 c19.526,19.526,51.184,19.526,70.711,0L386.692,211H237.722z"/> <path class="st2" d="M418.265,242.265l-31.415-31.415l-71.405,68.595l31.966,31.966 C365.875,283.669,390.051,260.062,418.265,242.265z"/> <path class="st11" d="M494.051,452c1.05,25.581,22.111,46,47.949,46s46.9-20.419,47.949-46H494.051z"/> </g> </svg>