<?xml version="1.0" encoding="UTF-8"?>
<svg width="420mm" height="420mm" clip-rule="evenodd" fill-rule="evenodd" image-rendering="optimizeQuality" shape-rendering="geometricPrecision" text-rendering="geometricPrecision" version="1.1" viewBox="0 0 42000 42000" xmlns="http://www.w3.org/2000/svg">
 <defs>
  <style type="text/css">.fil5 {fill:#FEFEFE} .fil4 {fill:#373435} .fil0 {fill:#F7ABAE} .fil6 {fill:#F06277} .fil1 {fill:#434746} .fil3 {fill:#916F6E} .fil2 {fill:#E5E4C6}</style>
 </defs>
 <path class="fil0" d="m33321 18470l33-671c0-3249-2619-5887-5873-5887-3245 0-5874 2638-5874 5887 0-3249-2642-5887-5893-5887-3243 0-5876 2638-5876 5887l33 671s-427 4440 11736 12549c12151-8109 11714-12548 11714-12549z"/>
 <path class="fil1" d="m22107 23280c1995-1 3617 1569 3663 3529h1v82c-291 1304-580 2606-868 3908h-5709c-249-1299-501-2601-752-3906v-81h2c44-1958 1668-3531 3663-3532z"/>
 <path class="fil2" d="m22107 28058c737-1 1335 581 1351 1300v30c-165 481-331 963-494 1442h-1751c-154-479-308-958-461-1440v-30c18-721 617-1301 1355-1302z"/>
 <path class="fil1" d="m25214 24777c-1212 179-2186 277-3173 286-987 10-1992-65-3261-223-2486-549-3200-2779-2985-4936 215-2160 1364-4256 2601-4539 854-196 2216-282 3559-265s2666 141 3443 372c760 227 2015 2239 2431 4348 416 2111-8 4327-2615 4957z"/>
 <path class="fil1" d="m16406 18139s-1997-725-2217-1081c-219-356-153-1772-84-3451 69-1674 138-3090 371-4297 233-1206 472-1662 898-1455s1182 1644 2070 3199c888 1556 1642 2993 2021 3514 378 520 1076 2131-239 2722-1315 592-2820 849-2820 849z"/>
 <path class="fil2" d="m14121 12724c77-1407 109-2303 331-3441s487-1657 906-1456 1053 1405 1873 2818c-367 1212-2123 2091-2838 2091s-183-5-272-12z"/>
 <path class="fil3" d="m16226 17372c825-103 1873-2380 1932-2760 58-380-556-1446-1218-2707-664-1262-1399-2599-1638-3146-346-548-440-1310-489-634-50 675-153 2097-229 3141-77 1046-154 2095-231 3141-91 1249 26 3195 1873 2965z"/>
 <path class="fil1" d="m27090 18141s1998-725 2217-1081c220-356 153-1769 85-3446-69-1676-138-3090-371-4299s-472-1667-900-1460c-427 207-1180 1646-2068 3202s-1645 2993-2022 3513c-378 520-1077 2131 238 2723 1315 591 2821 848 2821 848z"/>
 <path class="fil2" d="m29371 12715c-77-1409-110-2308-331-3448-220-1141-485-1660-900-1460s-1018 1364-1818 2753c342 1246 2123 2162 2837 2162 713 0 142-2 212-7z"/>
 <path class="fil3" d="m27269 17374c-825-103-1872-2380-1931-2760-60-380 555-1444 1216-2704 663-1265 1399-2602 1639-3148 348-549 442-1312 491-635s153 2100 229 3146 154 2092 231 3141c91 1246-26 3190-1875 2960z"/>
 <path class="fil2" d="m22115 20897c-22 0-43 0-64-3-20 3-41 3-62 3v-7c-817-33-1636-70-2453-107 1897-2228 1396-2256 1396-4737 0-1223 2239-1220 2240 0 1 2484-501 2509 1394 4734-817 38-1634 75-2451 110v7z"/>
 <path class="fil4" d="m18830 18483c608 0 1102 493 1100 1102 0 609-493 1105-1100 1105-609 0-1102-496-1102-1105s494-1102 1102-1102z"/>
 <path class="fil5" d="m18894 18658c555 0 1003 451 1001 1004 0 558-448 1007-1001 1007-557 0-1003-449-1003-1007 0-553 448-1004 1003-1004z"/>
 <path class="fil4" d="m19113 19055c391 0 706 316 706 707 0 393-316 709-706 709-391 0-709-316-709-709 2-391 318-707 709-707z"/>
 <path class="fil4" d="m25294 18485c-608 0-1101 491-1100 1100 0 607 493 1102 1102 1102s1102-495 1102-1102c0-609-495-1100-1104-1100z"/>
 <path class="fil5" d="m25232 18658c-554 0-1004 451-1003 1004 0 556 449 1004 1003 1004 555 0 1005-448 1005-1004 0-553-450-1004-1005-1004z"/>
 <path class="fil4" d="m25013 19055c-390 0-707 316-707 707s318 707 707 707c391 0 707-316 707-707s-317-707-707-707z"/>
 <path class="fil1" d="m17984 19690c559 417 746 1116 412 1562-331 444-1051 468-1612 52-560-419-744-1117-413-1563 330-444 1055-468 1613-51z"/>
 <path class="fil1" d="m25764 20053c-380 282-506 756-281 1060 225 302 716 317 1094 35 382-285 508-759 282-1061-225-301-715-317-1095-34z"/>
 <path class="fil2" d="m18425 17358h957c180 0 326 146 326 325s-146 326-326 326h-957c-180 0-325-147-325-326s145-325 325-325z"/>
 <path class="fil2" d="m24075 16519h959c178 0 324 146 326 323 0 179-148 326-326 326h-959c-178 0-324-147-324-326 0-177 146-323 324-323z"/>
 <path class="fil4" d="m27088 21696c-292-69-581 104-664 388 170-105 374-145 582-101 108 236 198 243 91 695-107 453-1090 1084-2314 1103-172 102-361 184-564 242 1607 179 2984-498 3119-1062 134-565-19-634-242-953 176 62 320 183 413 332 53-289-130-576-421-644z"/>
 <path class="fil4" d="m17025 21994c275-64 547 99 626 367-160-99-353-137-549-96-102 223-187 230-86 657s1028 1022 2183 1040c162 96 341 174 532 228-1516 169-2815-470-2942-1002-127-533 17-598 228-899-166 58-301 172-389 313-51-272 122-543 397-608z"/>
 <path class="fil2" d="m20658 20525c929 0 1857-3 2787-3 1387 0 2522 961 2523 2132 0 1172-1135 2130-2523 2130-930 0-1858-1-2787 0-1387 2-2523-955-2523-2127s1136-2132 2523-2132z"/>
 <path class="fil4" d="m22091 20018c731-1 1322 223 1322 497 0 14-890 1108-1322 1105-457-4-1325-1088-1325-1102 0-275 593-499 1325-500z"/>
 <path class="fil5" d="m21323 20194c230-41 438 45 465 189 28 146-138 302-368 344-231 42-439-44-466-191-27-146 138-300 369-342z"/>
 <path class="fil5" d="m18800 19069c218 0 394 177 394 395 0 217-176 396-394 396s-396-179-394-396c0-218 176-395 394-395z"/>
 <path class="fil5" d="m25264 19069c217 0 393 177 393 395 0 217-177 393-393 393-218 0-394-176-394-393 0-218 177-395 394-395z"/>
 <path class="fil6" d="m34279 32900l645-2936s-2338 3048-5323 1468c-2691-1426-3548-2208-6828-2348v-22c-201 0-392 2-578 5-186-3-377-5-578-5v22c-3281 140-4137 922-6829 2348-2983 1580-5322-1468-5322-1468l645 2936-1290 903s2984 3499 5967 1918c2843-1506 3640-2294 7407-2365 3767 71 4563 859 7406 2365 2985 1581 5968-1918 5968-1918l-1290-903z"/>
</svg>
