<?xml version="1.0" encoding="UTF-8" standalone="no"?>
<svg
   version="1.1"
   width="128"
   height="128"
   viewBox="0 0 128 128"
   id="svg7"
   sodipodi:docname="favicon.svg"
   inkscape:version="1.3.2 (091e20ef0f, 2023-11-25)"
   xmlns:inkscape="http://www.inkscape.org/namespaces/inkscape"
   xmlns:sodipodi="http://sodipodi.sourceforge.net/DTD/sodipodi-0.dtd"
   xmlns="http://www.w3.org/2000/svg"
   xmlns:svg="http://www.w3.org/2000/svg">
  <defs
     id="defs7" />
  <sodipodi:namedview
     id="namedview7"
     pagecolor="#ffffff"
     bordercolor="#cccccc"
     borderopacity="1"
     inkscape:showpageshadow="0"
     inkscape:pageopacity="1"
     inkscape:pagecheckerboard="0"
     inkscape:deskcolor="#d1d1d1"
     inkscape:zoom="6"
     inkscape:cx="63.416667"
     inkscape:cy="54.666667"
     inkscape:window-width="1920"
     inkscape:window-height="1031"
     inkscape:window-x="0"
     inkscape:window-y="49"
     inkscape:window-maximized="0"
     inkscape:current-layer="svg7" />
  <path
     style="font-size:107.286px;line-height:69.633px;font-family:'Hobo BT';-inkscape-font-specification:'Hobo BT';letter-spacing:0px;word-spacing:0px;fill:#a51d2d;stroke-width:0.999999px"
     d="m 42.338496,42.967116 q -0.890558,-4.138473 -3.457459,-6.233903 -2.566902,-2.147816 -6.65299,-2.147816 -7.648318,0 -12.729735,7.124461 -5.081417,7.124462 -5.081417,18.020696 0,11.786793 5.919589,19.487497 5.919589,7.648319 14.877551,7.648319 4.871874,0 9.062733,-2.252587 4.243246,-2.304973 6.181518,-5.919589 1.466801,-2.566902 1.990659,-5.081418 0.576243,-2.514515 0.576243,-2.514515 0.942943,0 2.147815,3.405073 1.204872,3.405073 1.204872,7.857862 0,9.953291 -6.810146,16.134809 -6.757761,6.181515 -17.758768,6.181515 -14.615622,0 -23.206884,-11.472475 -8.53887619,-11.472478 -8.53887619,-31.117132 0,-18.335011 9.27227659,-30.069417 9.3246626,-11.786792 23.5211986,-11.786792 8.381719,0 13.620294,3.824159 5.29096,3.771773 5.29096,9.691362 0,3.876545 -2.619287,6.548218 -2.619288,2.671673 -6.391061,2.671673 z M 100.3819,87.704541 q -4.976648,-4.348016 -7.334006,-8.800805 -2.357359,-4.452788 -2.357359,-9.429433 0,-2.147816 0.733401,-3.82416 0.7334,-1.676343 1.309643,-1.676343 0.104772,0 0.314315,0.523857 1.4668,3.090759 4.92426,6.391061 2.985986,2.776444 5.657656,4.505174 2.72406,1.728729 4.34802,1.885886 1.04772,-2.147815 1.67634,-6.810146 0.68102,-4.714717 0.68102,-10.424763 0,-12.048721 -3.61462,-18.544554 -3.61461,-6.495832 -10.319989,-6.495832 -7.229232,0 -11.158163,7.38639 -3.876545,7.334004 -3.876545,20.849526 0,12.363036 3.56223,18.911254 3.562231,6.495832 10.162835,6.495832 0.890557,0 2.200201,-0.209543 1.309643,-0.261929 3.090761,-0.733401 z m 13.82983,10.319992 q -3.56223,3.352687 -8.01501,5.081417 -4.45279,1.67634 -9.796139,1.67634 -14.196536,0 -22.473484,-11.315317 -8.224562,-11.31532 -8.224562,-30.750431 0,-19.382726 8.329334,-30.907589 8.381719,-11.577249 22.368712,-11.577249 13.201209,0 21.268609,11.158163 8.11979,11.158163 8.11979,29.807488 0,6.914918 -1.20487,13.515522 -1.15249,6.600604 -3.50984,13.305979 3.56223,3.824159 5.18619,7.334004 1.67634,3.509845 1.67634,7.28162 0,2.35736 -0.52386,3.71939 -0.47147,1.41441 -1.30964,1.41441 -0.89056,0 -4.66233,-3.50984 -3.71939,-3.45746 -7.22924,-6.233907 z"
     id="text7"
     aria-label="CQ" />
</svg>
