<?xml version="1.0" encoding="UTF-8" standalone="no"?>
<svg
   version="1.1"
   width="1497.1012"
   height="161.75304"
   viewBox="0 0 1497.1012 161.75304"
   id="svg8"
   xmlns="http://www.w3.org/2000/svg"
   xmlns:svg="http://www.w3.org/2000/svg">
  <defs
     id="defs8" />
  <g
     transform="matrix(0.75,0,0,0.75,0.31837705,26.515301)"
     id="g7">
    <svg
       viewBox="0 0 396 36"
       data-background-color="#efefef"
       preserveAspectRatio="xMidYMid"
       height="181"
       width="2000"
       version="1.1"
       id="svg7">
      <g
         id="tight-bounds"
         transform="translate(0.24,0.3462652)">
        <svg
           viewBox="0 0 395.52 35.30747"
           height="35.307468"
           width="395.51999"
           version="1.1"
           id="svg6">
          <g
             id="g6">
            <svg
               viewBox="0 0 395.52 35.30747"
               height="35.307468"
               width="395.51999"
               version="1.1"
               id="svg5">
              <g
                 id="g4">
                <svg
                   viewBox="0 0 395.52 35.30747"
                   height="35.307468"
                   width="395.51999"
                   version="1.1"
                   id="svg4">
                  <g
                     id="textblocktransform">
                    <svg
                       viewBox="0 0 395.52 35.30747"
                       height="35.307468"
                       width="395.51999"
                       id="textblock"
                       version="1.1">
                      <g
                         id="g3">
                        <svg
                           viewBox="0 0 395.52 35.30747"
                           height="35.307468"
                           width="395.51999"
                           version="1.1"
                           id="svg3">
                          <g
                             id="g2">
                            <svg
                               width="395.51999"
                               viewBox="4 -35.7 522.36 46.25"
                               height="35.307468"
                               data-palette-color="#d94e28"
                               version="1.1"
                               id="svg2">
                              <g
                                 class="wordmark-text-0"
                                 data-fill-palette-color="primary"
                                 id="text-0">
                                <path
                                   d="m 34.1,-4.3 h 0.3 l -0.3,3.05 q -1.4,0.6 -3.4,1.05 -2,0.45 -4.05,0.68 Q 24.6,0.7 23,0.7 v 0 Q 18.95,0.7 15.5,-0.68 12.05,-2.05 9.47,-4.5 6.9,-6.95 5.45,-10.28 4,-13.6 4,-17.5 v 0 q 0,-3.9 1.45,-7.23 1.45,-3.32 4.02,-5.77 2.58,-2.45 6.03,-3.83 3.45,-1.37 7.5,-1.37 v 0 q 1.65,0 3.7,0.25 2.05,0.25 4,0.68 1.95,0.42 3.3,0.97 v 0 l -0.25,2.8 h -0.3 Q 31.6,-32.7 28.8,-33.6 26,-34.5 23,-34.5 v 0 q -4.5,0 -7.92,2.12 -3.43,2.13 -5.35,5.95 -1.93,3.83 -1.93,8.93 v 0 q 0,5.15 1.93,8.95 1.92,3.8 5.32,5.92 3.4,2.13 7.95,2.13 v 0 q 3.4,0 6.33,-1.1 2.92,-1.1 4.77,-2.7 z m 7.8,-13.2 v 0 q 0,-3.85 1.37,-7.18 1.38,-3.32 3.85,-5.8 2.48,-2.47 5.8,-3.85 3.33,-1.37 7.18,-1.37 v 0 q 3.85,0 7.17,1.37 3.33,1.38 5.8,3.85 2.48,2.48 3.85,5.8 1.38,3.33 1.38,7.18 v 0 q 0,3.85 -1.38,7.17 -1.37,3.33 -3.85,5.8 -2.47,2.48 -5.8,3.85 Q 63.95,0.7 60.1,0.7 v 0 q -3.85,0 -7.18,-1.38 -3.32,-1.37 -5.8,-3.85 -2.47,-2.47 -3.85,-5.8 -1.37,-3.32 -1.37,-7.17 z m 3.8,0 v 0 q 0,5.1 1.8,8.92 1.8,3.83 5.05,5.95 3.25,2.13 7.55,2.13 v 0 q 4.3,0 7.55,-2.13 3.25,-2.12 5.05,-5.97 1.8,-3.85 1.8,-8.9 v 0 q 0,-5.05 -1.8,-8.88 -1.8,-3.82 -5.05,-5.97 -3.25,-2.15 -7.55,-2.15 v 0 q -4.3,0 -7.53,2.12 -3.22,2.13 -5.05,5.95 -1.82,3.83 -1.82,8.93 z M 91.45,0 h -3.4 l 1.25,-35.7 h 0.6 l 25.15,30.4 h 0.3 l -1.1,-29.7 h 3.4 L 116.4,0.7 h -0.6 L 90.65,-29.7 h -0.3 z m 49.84,0 h -3.4 v -34 q -0.75,0 -3.1,0.3 v 0 l -9.8,1.25 V -35 h 29.2 v 2.55 l -9.8,-1.25 q -2.35,-0.3 -3.1,-0.3 v 0 z m 19.45,0 h -3.65 l 13.45,-35 h 3.1 l 13.45,35 h -3.65 l -6.2,-16.4 h -11.35 z m 10.45,-32.4 h -0.3 l -4.65,14.8 h 10.55 z M 198.59,0 h -3.4 v -35 h 3.4 z m 15.65,0 h -3.4 l 1.25,-35.7 h 0.6 l 25.15,30.4 h 0.3 l -1.1,-29.7 h 3.4 l -1.25,35.7 h -0.6 l -25.15,-30.4 h -0.3 z m 53.84,0 h -15.4 v -35 h 15.25 v 2.45 l -8.75,-1.15 q -2.3,-0.3 -3.1,-0.3 v 0 15.25 q 0.65,0 3.1,-0.15 v 0 l 8.2,-0.5 v 2.3 l -8.2,-0.5 q -2.45,-0.15 -3.1,-0.15 v 0 V -1 q 0.9,0 3.15,-0.3 v 0 l 8.85,-1.15 z m 10.5,0 v -35 h 6.7 q 5.3,0 8.23,2.23 2.92,2.22 2.92,6.22 v 0 q 0,3.1 -1.82,5.15 -1.83,2.05 -5.28,2.75 v 0 0.3 q 3.3,0.65 5.4,3.1 2.1,2.45 3.15,6.05 v 0 q 0.95,3.3 1.88,5.12 0.92,1.83 2.05,2.63 1.12,0.8 2.67,1.15 v 0 0.3 h -2.05 q -2.2,0 -3.62,-0.8 -1.43,-0.8 -2.43,-2.7 -1,-1.9 -1.9,-5.25 v 0 q -1.45,-5.15 -3.85,-7.3 -2.4,-2.15 -5.85,-2.15 v 0 h -0.3 v -0.9 h 0.3 q 8.05,0 8.05,-7.4 v 0 q 0,-7.3 -7.55,-7.3 v 0 h -3.3 V 0 Z"
                                   fill="#d94e28"
                                   data-fill-palette-color="primary"
                                   id="path1" />
                                <path
                                   d="m 321.98,-17.5 v 0 q 0,-3.85 1.37,-7.18 1.38,-3.32 3.85,-5.8 2.48,-2.47 5.8,-3.85 3.33,-1.37 7.18,-1.37 v 0 q 3.85,0 7.17,1.37 3.33,1.38 5.8,3.85 2.48,2.48 3.85,5.8 1.38,3.33 1.38,7.18 v 0 q 0,3.8 -1.33,7.05 -1.32,3.25 -3.72,5.72 -2.4,2.48 -5.6,3.88 v 0 0.3 q 2.4,0 4.05,0.55 1.65,0.55 2.97,1.75 1.33,1.2 2.58,3.1 v 0 q 1.55,2.3 2.72,3.58 1.18,1.27 3.13,1.82 v 0 0.3 h -2.35 q -1.95,0 -3.15,-0.6 -1.2,-0.6 -1.98,-1.6 -0.77,-1 -1.52,-2.1 v 0 Q 353.33,4.9 352.28,3.63 351.23,2.35 349.75,1.53 348.28,0.7 345.98,0.7 v 0 h -5.8 q -3.85,0 -7.18,-1.38 -3.32,-1.37 -5.8,-3.85 -2.47,-2.47 -3.85,-5.8 -1.37,-3.32 -1.37,-7.17 z m 3.8,0 v 0 q 0,5.1 1.8,8.92 1.8,3.83 5.05,5.95 3.25,2.13 7.55,2.13 v 0 q 4.3,0 7.55,-2.13 3.25,-2.12 5.05,-5.97 1.8,-3.85 1.8,-8.9 v 0 q 0,-5.05 -1.8,-8.88 -1.8,-3.82 -5.05,-5.97 -3.25,-2.15 -7.55,-2.15 v 0 q -4.3,0 -7.53,2.12 -3.22,2.13 -5.05,5.95 -1.82,3.83 -1.82,8.93 z m 42.6,3.5 v -21 h 3.4 v 21.1 q 0,6.05 2.97,9.42 2.98,3.38 8.38,3.38 v 0 q 3.4,0 5.92,-1.33 2.53,-1.32 3.9,-3.67 1.38,-2.35 1.28,-5.4 v 0 L 393.38,-35 h 3.4 l -0.85,23.5 q -0.2,6 -3.58,9.1 -3.37,3.1 -9.62,3.1 v 0 q -6.75,0 -10.55,-3.93 -3.8,-3.92 -3.8,-10.77 z m 55.79,14 h -15.4 v -35 h 15.25 v 2.45 l -8.75,-1.15 q -2.3,-0.3 -3.1,-0.3 v 0 15.25 q 0.65,0 3.1,-0.15 v 0 l 8.2,-0.5 v 2.3 l -8.2,-0.5 q -2.45,-0.15 -3.1,-0.15 v 0 V -1 q 0.9,0 3.15,-0.3 v 0 l 8.85,-1.15 z m 10.5,0 v -35 h 6.7 q 5.3,0 8.23,2.23 2.92,2.22 2.92,6.22 v 0 q 0,3.1 -1.82,5.15 -1.83,2.05 -5.28,2.75 v 0 0.3 q 3.3,0.65 5.4,3.1 2.1,2.45 3.15,6.05 v 0 q 0.95,3.3 1.88,5.12 0.92,1.83 2.05,2.63 1.12,0.8 2.67,1.15 v 0 0.3 h -2.05 q -2.2,0 -3.62,-0.8 -1.43,-0.8 -2.43,-2.7 -1,-1.9 -1.9,-5.25 v 0 q -1.45,-5.15 -3.85,-7.3 -2.4,-2.15 -5.85,-2.15 v 0 h -0.3 v -0.9 h 0.3 q 8.05,0 8.05,-7.4 v 0 q 0,-7.3 -7.55,-7.3 v 0 h -3.3 V 0 Z m 35.5,0 h -3.4 v -35 h 3.4 z m 28.4,0 h -15.4 v -35 h 15.25 v 2.45 l -8.75,-1.15 q -2.3,-0.3 -3.1,-0.3 v 0 15.25 q 0.65,0 3.1,-0.15 v 0 l 8.2,-0.5 v 2.3 l -8.2,-0.5 q -2.45,-0.15 -3.1,-0.15 v 0 V -1 q 0.9,0 3.15,-0.3 v 0 l 8.85,-1.15 z m 7.44,-1.1 v 0 l 0.3,-3 h 0.3 q 1.95,1.7 4.4,2.65 2.45,0.95 4.85,0.95 v 0 q 3.4,0 5.5,-1.88 2.1,-1.87 2.1,-5.02 v 0 q 0,-1.75 -0.77,-3.25 -0.78,-1.5 -2.55,-3.05 -1.78,-1.55 -4.88,-3.35 v 0 q -2.15,-1.25 -4.1,-2.63 -1.95,-1.37 -3.2,-3.2 -1.25,-1.82 -1.25,-4.37 v 0 q 0,-3.8 2.75,-6.13 2.75,-2.32 7.25,-2.32 v 0 q 2,0 4.3,0.43 2.3,0.42 3.55,1.07 v 0 l -0.25,2.8 h -0.3 q -2.85,-3.1 -7.3,-3.1 v 0 q -3.2,0 -5.15,1.62 -1.95,1.63 -1.95,4.38 v 0 q 0,2.05 1.08,3.52 1.07,1.48 2.77,2.65 1.7,1.18 3.65,2.28 v 0 q 2.25,1.3 4.38,2.75 2.12,1.45 3.5,3.47 1.37,2.03 1.37,5.08 v 0 q 0,2.8 -1.3,4.92 -1.3,2.13 -3.67,3.33 -2.38,1.2 -5.53,1.2 v 0 q -2,0 -4.7,-0.5 -2.7,-0.5 -5.15,-1.3 z"
                                   fill="#f9744c"
                                   data-fill-palette-color="accent"
                                   id="path2" />
                              </g>
                            </svg>
                          </g>
                        </svg>
                      </g>
                    </svg>
                  </g>
                </svg>
              </g>
              <g
                 id="g5" />
            </svg>
          </g>
          <defs
             id="defs6" />
        </svg>
        <rect
           width="395.51999"
           height="35.307468"
           fill="none"
           stroke="none"
           visibility="hidden"
           id="rect6"
           x="0"
           y="0" />
      </g>
    </svg>
  </g>
</svg>
