<?xml version="1.0" encoding="UTF-8" standalone="no"?>
<svg
   xmlns:dc="http://purl.org/dc/elements/1.1/"
   xmlns:cc="http://creativecommons.org/ns#"
   xmlns:rdf="http://www.w3.org/1999/02/22-rdf-syntax-ns#"
   xmlns:svg="http://www.w3.org/2000/svg"
   xmlns="http://www.w3.org/2000/svg"
   xmlns:sodipodi="http://sodipodi.sourceforge.net/DTD/sodipodi-0.dtd"
   xmlns:inkscape="http://www.inkscape.org/namespaces/inkscape"
   sodipodi:docname="logo.svg"
   inkscape:version="1.0 (4035a4fb49, 2020-05-01)"
   id="svg8"
   version="1.1"
   viewBox="0 0 64.836845 14.869064"
   height="14.869064mm"
   width="64.836845mm">
  <defs
     id="defs2" />
  <sodipodi:namedview
     inkscape:window-maximized="0"
     inkscape:window-y="35"
     inkscape:window-x="10"
     inkscape:window-height="1395"
     inkscape:window-width="2540"
     fit-margin-bottom="0"
     fit-margin-right="0"
     fit-margin-left="0"
     fit-margin-top="0"
     showgrid="false"
     inkscape:document-rotation="0"
     inkscape:current-layer="layer1"
     inkscape:document-units="mm"
     inkscape:cy="151.07884"
     inkscape:cx="79.963867"
     inkscape:zoom="0.98994949"
     inkscape:pageshadow="2"
     inkscape:pageopacity="0.0"
     borderopacity="1.0"
     bordercolor="#666666"
     pagecolor="#ffffff"
     id="base" />
  <metadata
     id="metadata5">
    <rdf:RDF>
      <cc:Work
         rdf:about="">
        <dc:format>image/svg+xml</dc:format>
        <dc:type
           rdf:resource="http://purl.org/dc/dcmitype/StillImage" />
        <dc:title></dc:title>
      </cc:Work>
    </rdf:RDF>
  </metadata>
  <g
     transform="translate(-40.355533,-74.367475)"
     id="layer1"
     inkscape:groupmode="layer"
     inkscape:label="Layer 1">
    <g
       style="font-size:19.7556px;line-height:12.8221px;font-family:'Liberation Sans';-inkscape-font-specification:'Liberation Sans';text-decoration:none;text-decoration-line:none;text-decoration-color:#000000;letter-spacing:0px;word-spacing:0px;fill:#0088aa;stroke:#000000;stroke-width:0.264583px;stroke-linecap:butt;stroke-linejoin:miter;stroke-opacity:1;stop-color:#000000"
       id="text12"
       aria-label="MobiDict">
      <path
         id="path32"
         style="font-style:normal;font-variant:normal;font-weight:normal;font-stretch:normal;font-size:19.7556px;font-family:'Brush738 BT';-inkscape-font-specification:'Brush738 BT';fill:#0088aa;stroke:none;stroke-width:0.264583px"
         d="m 47.626079,77.480469 q -1.707393,1.871381 -2.787778,3.868162 -1.080384,1.996782 -1.601284,4.254014 -0.250803,1.051445 -0.424436,2.266878 -0.163987,1.215432 -0.327974,1.215432 -0.144695,0 -0.588424,-0.212218 -0.443729,-0.212219 -0.868166,-0.5209 -0.299035,-0.212218 -0.424437,-0.463022 -0.115755,-0.250803 -0.115755,-0.742764 0,-1.581991 0.385851,-3.81993 0.395498,-2.247586 1.138263,-4.909962 0.588423,-2.112537 0.926043,-3.009642 0.33762,-0.906751 0.530546,-0.906751 0.144695,0 0.627009,0.173633 0.491961,0.173634 0.916397,0.424437 0.231511,0.135048 0.299035,0.299035 0.07717,0.154341 0.07717,0.482314 0,0.376206 -0.154341,1.032153 -0.15434,0.655948 -0.636655,2.247586 1.360127,-2.218647 2.276524,-3.376201 0.926044,-1.167201 1.340834,-1.167201 0.154341,0 0.607717,0.202572 0.453375,0.202572 0.858519,0.49196 0.289389,0.212219 0.376206,0.395498 0.09646,0.173633 0.09646,0.491961 0,0.434083 -0.617363,2.594852 l -0.115755,0.385851 q 1.697746,-2.392279 2.614144,-3.463017 0.916397,-1.080385 1.254018,-1.080385 0.183279,0 0.598069,0.202572 0.424437,0.202572 0.829581,0.511254 0.231511,0.183279 0.308682,0.395497 0.08682,0.212219 0.08682,0.617363 0,0.559485 -0.270096,2.199354 -0.26045,1.639869 -0.704179,3.569127 -0.202572,0.877812 -0.5209,2.180061 -0.347266,1.389066 -0.347266,1.572345 0,0.115756 0.08682,0.18328 0.08682,0.06752 0.23151,0.06752 0.09646,0 0.376206,-0.07717 0.279742,-0.07717 0.434083,-0.07717 0.09646,0 0.125402,0.04823 0.02894,0.03859 0.02894,0.192925 0,0.202572 -0.125401,0.627009 -0.125402,0.414791 -0.366559,1.01286 -0.221865,0.549839 -0.742765,0.887459 -0.520899,0.33762 -1.128615,0.33762 -0.762057,0 -1.311896,-0.75241 -0.549838,-0.752411 -0.549838,-1.842442 0,-1.215432 0.578777,-3.569127 0.578777,-2.353694 1.61093,-5.237934 -1.784563,1.842441 -2.845655,3.762052 -1.061092,1.919612 -1.697747,4.495171 -0.212218,0.877812 -0.453375,2.064306 -0.212219,1.080384 -0.33762,1.080384 -0.125402,0 -0.472669,-0.183279 -0.33762,-0.18328 -0.790995,-0.491961 -0.44373,-0.308681 -0.627009,-0.5209 -0.18328,-0.221864 -0.18328,-0.424436 0,-1.11897 0.684887,-3.974271 0.684886,-2.855302 1.832795,-6.009639 z" />
      <path
         id="path34"
         style="font-style:normal;font-variant:normal;font-weight:normal;font-stretch:normal;font-size:19.7556px;font-family:'Brush738 BT';-inkscape-font-specification:'Brush738 BT';fill:#0088aa;stroke:none;stroke-width:0.264583px"
         d="m 58.208058,86.490103 q 0.482314,-0.260449 0.954982,-0.877812 0.472669,-0.627009 0.897105,-1.553052 -0.308681,-0.337621 -0.472668,-0.810289 -0.163987,-0.482314 -0.173633,-1.080384 -0.549839,0.549838 -0.93569,1.639869 -0.385852,1.090031 -0.385852,2.093245 0,0.144694 0.02894,0.299035 0.02894,0.144694 0.08682,0.289388 z m 3.752406,-1.379419 q -0.684886,1.755625 -1.832795,2.874594 -1.147908,1.11897 -2.180061,1.11897 -0.993568,0 -1.697747,-0.93569 -0.694533,-0.93569 -0.694533,-2.324756 0,-1.176847 0.453376,-2.46945 0.453375,-1.302249 1.225079,-2.334402 0.356912,-0.472668 0.636655,-0.723472 0.279742,-0.260449 0.453375,-0.260449 0.212219,0 0.501607,0.212218 0.289389,0.202572 0.819935,0.771703 0.318327,-0.887458 0.59807,-1.27331 0.289388,-0.385852 0.627009,-0.385852 0.183279,0 0.607716,0.173634 0.434083,0.163986 0.877812,0.41479 0.318328,0.18328 0.41479,0.385852 0.09646,0.202572 0.09646,0.607716 0,0.308681 -0.106109,0.800642 -0.09646,0.491961 -0.279742,1.147908 0.08682,-0.01929 0.163987,-0.03859 0.07717,-0.01929 0.106109,-0.01929 0.106109,0 0.154341,0.06752 0.05788,0.06752 0.05788,0.192926 0,0.723472 -0.308681,1.340834 -0.299035,0.607717 -0.694533,0.655948 z" />
      <path
         id="path36"
         style="font-style:normal;font-variant:normal;font-weight:normal;font-stretch:normal;font-size:19.7556px;font-family:'Brush738 BT';-inkscape-font-specification:'Brush738 BT';fill:#0088aa;stroke:none;stroke-width:0.264583px"
         d="m 65.818979,86.827724 q 0.501607,-0.250804 1.012861,-0.829581 0.520899,-0.578778 0.954982,-1.418005 -0.41479,-0.26045 -0.67524,-0.665594 -0.26045,-0.41479 -0.327974,-0.93569 -0.279742,0.93569 -0.520899,1.900319 -0.241158,0.964629 -0.44373,1.948551 z m 1.398712,-5.594848 q 0.67524,-0.646301 1.176847,-1.01286 0.511254,-0.366559 0.723472,-0.366559 0.241157,0 0.41479,0.472668 0.173634,0.463022 0.173634,1.147908 0,0.241157 -0.02894,0.540192 -0.02894,0.289389 -0.08682,0.59807 0.04823,-0.0096 0.144695,-0.04823 0.221864,-0.08682 0.270096,-0.08682 0.03858,0.0096 0.05788,0.06752 0.01929,0.04823 0.01929,0.154341 0,0.569131 -0.231511,1.128616 -0.221865,0.559484 -0.5209,0.665594 -0.443729,2.016074 -1.389065,3.308677 -0.93569,1.282956 -1.890673,1.282956 -0.916397,0 -1.601284,-0.819934 -0.684886,-0.829581 -0.684886,-2.064306 0,-0.733118 0.15434,-1.852088 0.163987,-1.118969 0.472668,-2.459803 0.385852,-1.688101 0.839228,-3.125398 0.453375,-1.446943 0.974275,-2.681668 0.33762,-0.790996 0.530546,-1.128616 0.202572,-0.33762 0.327973,-0.33762 0.212219,0 0.800642,0.569131 0.59807,0.559484 0.59807,1.01286 0,0.405144 -1.176847,4.774913 z" />
      <path
         id="path38"
         style="font-style:normal;font-variant:normal;font-weight:normal;font-stretch:normal;font-size:19.7556px;font-family:'Brush738 BT';-inkscape-font-specification:'Brush738 BT';fill:#0088aa;stroke:none;stroke-width:0.264583px"
         d="m 74.114787,78.396867 q -0.482314,0 -0.790995,-0.33762 -0.299035,-0.347267 -0.299035,-0.887459 0,-0.59807 0.366559,-1.01286 0.376205,-0.414791 0.897104,-0.414791 0.434083,0 0.742765,0.356913 0.308681,0.347267 0.308681,0.848874 0,0.627008 -0.356913,1.041799 -0.347266,0.405144 -0.868166,0.405144 z m -0.511253,7.736324 q 0.221865,-0.01929 0.472668,-0.07717 0.250804,-0.05788 0.289389,-0.05788 0.125402,0 0.173633,0.04823 0.04823,0.03858 0.04823,0.154341 0,0.192926 -0.163986,0.781349 -0.154341,0.588424 -0.385852,1.147909 -0.18328,0.424436 -0.569131,0.646301 -0.376205,0.221865 -0.916398,0.221865 -0.733118,0 -1.138262,-0.540193 -0.405144,-0.549838 -0.405144,-1.553052 0,-0.926044 0.395498,-2.643083 0.405144,-1.726686 1.070738,-3.540188 0.231511,-0.636656 0.376205,-0.897105 0.154341,-0.270096 0.289389,-0.270096 0.125402,0 0.385852,0.163986 0.270096,0.163987 0.684886,0.491961 0.289389,0.221865 0.356913,0.366559 0.07717,0.135048 0.07717,0.424437 0,0.356913 -0.289388,1.823149 -0.289389,1.456589 -0.752411,3.308677 z" />
      <path
         id="path40"
         style="font-style:normal;font-variant:normal;font-weight:normal;font-stretch:normal;font-size:19.7556px;font-family:'Brush738 BT';-inkscape-font-specification:'Brush738 BT';fill:#0088aa;stroke:none;stroke-width:0.264583px"
         d="m 79.777159,86.335763 q 1.79421,-0.07717 3.135044,-2.122184 1.350481,-2.045013 1.350481,-4.67845 0,-0.993568 -0.540192,-1.466236 -0.530546,-0.482314 -1.649516,-0.482314 -2.266878,0 -4.726682,0.954982 -0.424436,0.163987 -0.49196,0.163987 -0.106109,0 -0.173633,-0.05788 -0.06752,-0.06752 -0.06752,-0.173633 0,-0.318327 0.463021,-1.321541 0.472669,-1.003214 1.003214,-1.707394 0.308682,-0.395497 1.360127,-0.617362 1.051446,-0.231511 2.633437,-0.231511 2.421219,0 3.723468,1.302249 1.311895,1.292603 1.311895,3.694529 0,2.073952 -0.877812,4.205782 -0.877813,2.13183 -2.266878,3.443725 -0.868166,0.829581 -1.967843,1.302249 -1.090031,0.472668 -2.122184,0.472668 -0.954982,0 -1.938904,-0.655948 -0.983921,-0.665593 -0.983921,-1.311895 0,-0.472668 0.106109,-1.340834 0.115755,-0.868166 0.308681,-1.803856 0.356913,-1.697747 0.694533,-3.019289 0.33762,-1.331187 0.472668,-1.659161 0.173633,-0.414791 1.167201,-0.829581 0.993568,-0.414791 1.774917,-0.414791 0.154341,0 0.221865,0.07717 0.07717,0.06752 0.07717,0.212218 0,0.08682 -0.202572,0.67524 -1.215432,3.482311 -1.79421,7.389058 z" />
      <path
         id="path42"
         style="font-style:normal;font-variant:normal;font-weight:normal;font-stretch:normal;font-size:19.7556px;font-family:'Brush738 BT';-inkscape-font-specification:'Brush738 BT';fill:#0088aa;stroke:none;stroke-width:0.264583px"
         d="m 90.880038,78.396867 q -0.482314,0 -0.790995,-0.33762 -0.299035,-0.347267 -0.299035,-0.887459 0,-0.59807 0.366559,-1.01286 0.376205,-0.414791 0.897105,-0.414791 0.434083,0 0.742764,0.356913 0.308681,0.347267 0.308681,0.848874 0,0.627008 -0.356913,1.041799 -0.347266,0.405144 -0.868166,0.405144 z m -0.511253,7.736324 q 0.221865,-0.01929 0.472668,-0.07717 0.250804,-0.05788 0.289389,-0.05788 0.125402,0 0.173633,0.04823 0.04823,0.03858 0.04823,0.154341 0,0.192926 -0.163987,0.781349 -0.154341,0.588424 -0.385852,1.147909 -0.183279,0.424436 -0.569131,0.646301 -0.376205,0.221865 -0.916397,0.221865 -0.733118,0 -1.138262,-0.540193 -0.405145,-0.549838 -0.405145,-1.553052 0,-0.926044 0.395498,-2.643083 0.405144,-1.726686 1.070738,-3.540188 0.231511,-0.636656 0.376206,-0.897105 0.15434,-0.270096 0.289388,-0.270096 0.125402,0 0.385852,0.163986 0.270096,0.163987 0.684886,0.491961 0.289389,0.221865 0.356913,0.366559 0.07717,0.135048 0.07717,0.424437 0,0.356913 -0.289388,1.823149 -0.289389,1.456589 -0.752411,3.308677 z" />
      <path
         id="path44"
         style="font-style:normal;font-variant:normal;font-weight:normal;font-stretch:normal;font-size:19.7556px;font-family:'Brush738 BT';-inkscape-font-specification:'Brush738 BT';fill:#0088aa;stroke:none;stroke-width:0.264583px"
         d="m 95.577782,86.509396 q 1.128615,-0.02894 2.353694,-0.443729 0.318328,-0.106109 0.385852,-0.106109 0.07717,0 0.106109,0.01929 0.02894,0.0096 0.03858,0.05788 0,0.163987 -0.221865,0.93569 -0.212218,0.762057 -0.453375,1.282956 -0.125402,0.241158 -0.877813,0.482315 -0.75241,0.241157 -1.533759,0.241157 -1.176848,0 -1.871381,-0.752411 -0.694532,-0.762056 -0.694532,-2.073952 0,-1.070738 0.356912,-2.209 0.366559,-1.138262 1.022507,-2.112537 0.713825,-1.070738 1.504821,-1.71704 0.800642,-0.655947 1.360127,-0.655947 0.829581,0 1.427651,0.482314 0.607716,0.482315 0.607716,1.215433 0,1.475882 -0.463022,1.967843 -0.463022,0.482314 -1.688101,0.482314 -0.15434,0 -0.231511,-0.02894 -0.06752,-0.03859 -0.06752,-0.106109 0,-0.115756 0.173634,-0.67524 0.183279,-0.569131 0.183279,-0.964629 v -0.318328 q -0.723472,0.569131 -1.176847,1.659162 -0.443729,1.090031 -0.443729,2.315109 0,0.241158 0.04823,0.501607 0.05788,0.26045 0.154341,0.5209 z" />
      <path
         id="path46"
         style="font-style:normal;font-variant:normal;font-weight:normal;font-stretch:normal;font-size:19.7556px;font-family:'Brush738 BT';-inkscape-font-specification:'Brush738 BT';fill:#0088aa;stroke:none;stroke-width:0.264583px"
         d="m 100.83501,83.24895 q -0.44373,-0.231511 -0.60772,-0.540192 -0.16398,-0.308681 -0.16398,-1.215432 v -0.135048 q 0,-0.549839 0.0482,-0.704179 0.0482,-0.163987 0.16398,-0.163987 0.12541,0 0.50161,0.125401 0.37621,0.115756 0.55949,0.163987 0.54019,-3.086812 0.90675,-4.379415 0.3762,-1.302249 0.72347,-1.302249 0.42444,0 1.0418,0.434083 0.61736,0.424437 0.61736,0.926044 0,0.59807 -0.17363,1.977489 -0.16399,1.369773 -0.45338,2.980703 0.1447,0.02894 0.40515,0.06752 0.65594,0.10611 0.65594,0.385852 0,0.26045 -0.28938,0.926044 -0.13505,0.318327 -0.20258,0.49196 l -0.0193,0.05788 q -0.22186,0.578778 -0.65595,0.578778 -0.0675,0 -0.14469,0 -0.0772,-0.0096 -0.17363,-0.01929 -0.0482,0.289389 -0.15435,0.839227 -0.7717,4.118966 -1.22507,4.118966 -0.18328,0 -0.49196,-0.115756 -0.29904,-0.125402 -0.71383,-0.356913 -0.2508,-0.144694 -0.36656,-0.347266 -0.10611,-0.212218 -0.10611,-0.59807 0,-0.443729 0.0868,-1.581991 0.0868,-1.147909 0.23151,-2.614145 z" />
    </g>
  </g>
</svg>
