<?xml version="1.0" encoding="UTF-8"?>
<!DOCTYPE svg  PUBLIC '-//W3C//DTD SVG 1.1//EN'  'http://www.w3.org/Graphics/SVG/1.1/DTD/svg11.dtd'>
<svg width="600mm" height="650mm" clip-path="url(#a)" fill-rule="evenodd" stroke-linejoin="round" stroke-width="28.222" preserveAspectRatio="xMidYMid" version="1.2" viewBox="0 0 60000 65000" xml:space="preserve" xmlns="http://www.w3.org/2000/svg">
 <defs class="ClipPathGroup">
  <clipPath id="a">
   <rect width="6e4" height="65000"/>
  </clipPath>
 </defs>
 <g class="SlideGroup">
   <g class="Slide" clip-path="url(#a)">
    <g class="Page">
     <g class="Group">
      <g class="com.sun.star.drawing.ClosedBezierShape">
        <path d="m12322 7051c3012 5128 5641 10577 8653 15577-4743 5192-769 14101-128 15576 3782 7051 9872 11730 14808 10063 8846 14615 320 129 8846 14936-22179 11217-52243-51985-32179-56152z" fill="#053c6d"/>
      </g>
      <g class="com.sun.star.drawing.ClosedBezierShape">
        <path d="m14445 4177c-834 577-1090 1603-577 2372 2756 4743 5641 9551 8525 14294 577 769 1603 1154 2372 641 2116-1218 4103-2372 6154-3525 833-577 1090-1731 705-2500-2884-4744-5769-9551-8654-14294-448-770-1602-1026-2371-513-2116 1218-4103 2372-6154 3525zm-1475 962zm19552 11858z" fill="#053c6d"/>
      </g>
      <g class="com.sun.star.drawing.ClosedBezierShape">
        <path d="m37778 44752c-833 577-1090 1603-577 2372 2757 4872 5513 9679 8398 14551 384 769 1602 1153 2371 641 2116-1218 4103-2372 6154-3526 834-513 1090-1731 705-2500-2884-4871-5641-9679-8525-14550-449-770-1603-1026-2372-513-2115 1218-4103 2372-6154 3525zm-1474 962zm19423 12115z" fill="#053c6d"/>
      </g>
     </g>
    </g>
   </g>
 </g>
</svg>
