<?xml version="1.0" encoding="UTF-8" standalone="no"?>
<svg
   xmlns:dc="http://purl.org/dc/elements/1.1/"
   xmlns:cc="http://creativecommons.org/ns#"
   xmlns:rdf="http://www.w3.org/1999/02/22-rdf-syntax-ns#"
   xmlns:svg="http://www.w3.org/2000/svg"
   xmlns="http://www.w3.org/2000/svg"
   xmlns:sodipodi="http://sodipodi.sourceforge.net/DTD/sodipodi-0.dtd"
   xmlns:inkscape="http://www.inkscape.org/namespaces/inkscape"
   width="129.04599mm"
   height="50.010845mm"
   viewBox="0 0 129.04599 50.010845"
   version="1.1"
   id="svg8"
   inkscape:version="1.0 (4035a4fb49, 2020-05-01)"
   sodipodi:docname="logo.svg">
  <defs
     id="defs2">
    <inkscape:path-effect
       effect="powerclip"
       id="path-effect898"
       is_visible="true"
       lpeversion="1"
       inverse="true"
       flatten="false"
       hide_clip="false"
       message="Use fill-rule evenodd on &lt;b&gt;fill and stroke&lt;/b&gt; dialog if no flatten result after convert clip to paths." />
    <clipPath
       id="clipPath863"
       clipPathUnits="userSpaceOnUse">
      <path
         sodipodi:nodetypes="ccccccc"
         d="M 20.248487,58.177049 H 144.82311 l 2.55489,12.037666 -2.55489,10.409838 H 20.248487 L 17.690412,69.247652 Z"
         style="font-variation-settings:normal;display:none;opacity:1;vector-effect:none;fill:none;fill-opacity:1;fill-rule:evenodd;stroke:#000000;stroke-width:0.999998;stroke-linecap:round;stroke-linejoin:bevel;stroke-miterlimit:4;stroke-dasharray:none;stroke-dashoffset:0;stroke-opacity:1;stop-color:#000000;stop-opacity:1"
         id="path865" />
      <path
         d="M 16.8322,48.389918 H 148.23749 V 89.953681 H 16.8322 Z m 3.416287,9.787131 -2.558075,11.070603 2.558075,11.376901 H 144.82311 L 147.378,70.214715 144.82311,58.177049 Z"
         class="powerclip"
         style="font-variation-settings:normal;opacity:1;vector-effect:none;fill:none;fill-opacity:1;fill-rule:evenodd;stroke:#000000;stroke-width:0.999998;stroke-linecap:round;stroke-linejoin:bevel;stroke-miterlimit:4;stroke-dasharray:none;stroke-dashoffset:0;stroke-opacity:1;stop-color:#000000;stop-opacity:1"
         id="lpe_path-effect867" />
    </clipPath>
    <inkscape:path-effect
       message="Use fill-rule evenodd on &lt;b&gt;fill and stroke&lt;/b&gt; dialog if no flatten result after convert clip to paths."
       hide_clip="false"
       flatten="false"
       inverse="true"
       lpeversion="1"
       is_visible="true"
       id="path-effect867"
       effect="powerclip" />
    <clipPath
       clipPathUnits="userSpaceOnUse"
       id="clipath_lpe_path-effect898">
      <path
         id="path900"
         style="font-variation-settings:normal;display:none;opacity:1;vector-effect:none;fill:none;fill-opacity:1;fill-rule:evenodd;stroke:#000000;stroke-width:0.999998;stroke-linecap:round;stroke-linejoin:bevel;stroke-miterlimit:4;stroke-dasharray:none;stroke-dashoffset:0;stroke-opacity:1;stop-color:#000000;stop-opacity:1"
         d="M 20.248487,58.177049 H 144.82311 l 2.55489,12.037666 -2.55489,10.409838 H 20.248487 L 17.690412,69.247652 Z"
         sodipodi:nodetypes="ccccccc" />
      <path
         id="lpe_path-effect898"
         style="font-variation-settings:normal;opacity:1;vector-effect:none;fill:none;fill-opacity:1;fill-rule:evenodd;stroke:#000000;stroke-width:0.999998;stroke-linecap:round;stroke-linejoin:bevel;stroke-miterlimit:4;stroke-dasharray:none;stroke-dashoffset:0;stroke-opacity:1;stop-color:#000000;stop-opacity:1"
         class="powerclip"
         d="M 16.8322,48.389918 H 148.23749 V 89.953681 H 16.8322 Z m 3.416287,9.787131 -2.558075,11.070603 2.558075,11.376901 H 144.82311 L 147.378,70.214715 144.82311,58.177049 Z" />
    </clipPath>
  </defs>
  <sodipodi:namedview
     id="base"
     pagecolor="#1a1a1a"
     bordercolor="#666666"
     borderopacity="1.0"
     inkscape:pageopacity="0"
     inkscape:pageshadow="2"
     inkscape:zoom="0.7"
     inkscape:cx="295.31075"
     inkscape:cy="597.10875"
     inkscape:document-units="mm"
     inkscape:current-layer="g909"
     inkscape:document-rotation="0"
     showgrid="false"
     guidetolerance="1"
     objecttolerance="1"
     fit-margin-top="0"
     fit-margin-left="0"
     fit-margin-right="0"
     fit-margin-bottom="0"
     inkscape:window-width="2540"
     inkscape:window-height="1395"
     inkscape:window-x="10"
     inkscape:window-y="35"
     inkscape:window-maximized="0" />
  <metadata
     id="metadata5">
    <rdf:RDF>
      <cc:Work
         rdf:about="">
        <dc:format>image/svg+xml</dc:format>
        <dc:type
           rdf:resource="http://purl.org/dc/dcmitype/StillImage" />
        <dc:title />
      </cc:Work>
    </rdf:RDF>
  </metadata>
  <g
     inkscape:label="Layer 1"
     inkscape:groupmode="layer"
     id="layer1"
     transform="translate(-18.13586,-44.035745)">
    <g
       id="g909"
       transform="rotate(-9.556848,82.534848,68.979098)"
       style="stroke:#ffffff">
      <path
         sodipodi:nodetypes="ccccccc"
         d="M 20.248487,58.177048 H 144.82311 l 2.55489,12.037667 -2.55489,10.409837 H 20.248487 L 17.690412,69.247651 Z"
         style="font-variation-settings:normal;opacity:1;vector-effect:none;fill:none;fill-opacity:1;fill-rule:evenodd;stroke:#ffffff;stroke-width:1;stroke-linecap:round;stroke-linejoin:bevel;stroke-miterlimit:4;stroke-dasharray:none;stroke-dashoffset:0;stroke-opacity:1;stop-color:#000000;stop-opacity:1"
         id="rect10" />
      <g
         aria-label="8-Bit Percussions"
         transform="scale(0.99914694,1.0008538)"
         id="text838"
         style="font-size:13.8384px;line-height:8.98169px;font-family:'Liberation Sans';-inkscape-font-specification:'Liberation Sans';text-decoration:none;text-decoration-line:none;text-decoration-color:#000000;letter-spacing:0px;word-spacing:0px;fill:#ffffff;stroke:none;stroke-width:0.264583px;stroke-linecap:butt;stroke-linejoin:miter;stroke-opacity:1;stop-color:#000000">
        <path
           d="m 23.572512,69.17943 q -0.43245,-0.189197 -0.736516,-0.378394 -0.918957,-0.567591 -0.918957,-1.473033 0,-0.959498 0.993284,-1.696015 0.297309,-0.216225 1.060854,-0.621647 0.668946,-0.351365 1.081125,-0.628404 0.412179,-0.283795 0.412179,-0.38515 0,-0.05406 -0.155412,-0.128384 -0.155412,-0.06757 -0.155412,-0.310823 0,-0.155412 0.108113,-0.270282 0.108112,-0.114869 0.263524,-0.114869 0.189197,0 0.331094,0.189197 0.148655,0.189197 0.148655,0.439207 0,0.344608 -0.405422,0.695974 -0.283795,0.25001 -0.493263,0.385151 -0.202711,0.128383 -1.141938,0.675703 -0.263524,0.155412 -0.567591,0.445964 -0.391908,0.378394 -0.391908,0.858143 0,0.418936 0.29731,0.716245 0.297309,0.290552 1.074368,0.648675 0.486506,0.216225 0.898685,0.331095 0.547319,-0.162169 0.8649,-0.391908 0.702731,-0.50002 0.702731,-1.155452 0,-0.506778 -0.391908,-0.831115 -0.344608,-0.290553 -0.804086,-0.290553 -0.695975,0 -0.939228,0.560834 -0.08108,0.195954 -0.189197,0.195954 -0.209468,0 -0.209468,-0.317581 0,-0.405422 0.337852,-0.675703 0.337851,-0.270281 0.891928,-0.270281 0.804087,0 1.36492,0.513534 0.513535,0.459478 0.513535,1.121668 0,0.554076 -0.351366,0.979769 -0.344609,0.425693 -1.18248,0.891928 0.101355,0.0473 0.479749,0.209468 0.43245,-0.209468 0.736516,-0.479749 0.689217,-0.621647 0.689217,-1.432491 0,-0.344608 -0.101355,-0.554076 -0.0946,-0.216225 -0.527048,-0.790573 0.790572,0.493263 0.790572,1.398706 0,0.581104 -0.398665,1.11491 -0.391907,0.533805 -1.027068,0.824358 0.527048,0.290552 0.871657,0.648675 0.824357,0.858142 0.824357,1.918996 0,0.756788 -0.439207,1.364921 -0.8649,1.195994 -2.810925,1.195994 -1.662229,0 -2.675784,-0.797329 -0.945984,-0.743274 -0.945984,-1.837913 0,-0.810844 0.506777,-1.378434 0.513534,-0.574348 1.716286,-1.11491 z m 1.324378,0.594618 q -1.777099,0.68246 -1.777099,1.946025 0,0.973013 0.912199,1.736557 v 0.05406 q -0.371637,-0.209468 -0.61489,-0.520292 -0.466235,-0.594619 -0.466235,-1.29735 0,-0.668946 0.452721,-1.189237 0.459478,-0.520292 1.29735,-0.804087 L 24.03199,69.483496 q -1.540603,0.763544 -1.540603,2.148736 0,1.087882 0.817601,1.689258 0.695974,0.513534 1.804127,0.513534 0.986527,0 1.486547,-0.472992 0.547319,-0.506778 0.547319,-1.263565 0,-0.743273 -0.56759,-1.344649 -0.459478,-0.500021 -1.682501,-0.97977 z m 1.175723,-6.500264 q 0.351366,0.317581 0.351366,0.68246 0,0.358123 -0.243253,0.668946 -0.236496,0.304067 -0.783816,0.641918 h -0.270281 q 0.621647,-0.364879 0.8649,-0.655432 0.25001,-0.297309 0.25001,-0.662189 0,-0.277038 -0.236496,-0.614889 z m 1.581146,6.520535 q 0.472992,0.236496 0.777058,0.810844 0.304067,0.574348 0.304067,1.22978 0,0.844629 -0.459478,1.540603 -0.952742,1.446005 -3.14202,1.446005 -0.898685,0 -1.506818,-0.195954 -0.601376,-0.189197 -1.108153,-0.635161 v -0.03379 q 0.398665,0.263524 0.601376,0.358122 0.723002,0.331095 1.946025,0.331095 1.675744,0 2.5947,-0.831115 0.898685,-0.804087 0.898685,-2.020352 0,-0.8649 -0.527048,-1.520332 -0.324338,-0.398665 -0.378394,-0.47975 z m -1.006798,-2.97985 Q 26.26181,66.40229 25.788818,66.40229 q -0.520291,0 -0.797329,0.412179 h -0.101356 q 0.290552,-0.587862 0.898685,-0.587862 0.337852,0 0.54732,0.135141 0.216225,0.13514 0.364879,0.452721 z m -2.439288,-0.756788 q -0.371637,0.256767 -0.513534,0.466235 -0.141898,0.202711 -0.141898,0.479749 0,0.452722 0.324337,0.723003 l -0.04054,0.0473 q -0.452721,-0.378394 -0.452721,-0.851386 0,-0.297309 0.18244,-0.533805 0.18244,-0.236496 0.641918,-0.54732 z"
           style="font-style:normal;font-variant:normal;font-weight:normal;font-stretch:normal;font-size:13.8384px;font-family:AlgerianD;-inkscape-font-specification:AlgerianD;fill:#ffffff;stroke:none;stroke-width:0.264583px"
           id="path929" />
        <path
           d="m 32.545849,69.31457 0.290552,0.79733 H 29.457886 L 29.17409,69.31457 Z m 0.973012,1.283836 h -3.621768 l -0.148655,-0.189197 h 3.513656 l -0.310823,-0.925713 0.216225,0.155412 z"
           style="font-style:normal;font-variant:normal;font-weight:normal;font-stretch:normal;font-size:13.8384px;font-family:AlgerianD;-inkscape-font-specification:AlgerianD;fill:#ffffff;stroke:none;stroke-width:0.264583px"
           id="path931" />
        <path
           d="m 33.971583,66.226607 q 1.608173,-1.060854 3.574469,-1.060854 0.770302,0 1.459519,0.209468 0.689217,0.209468 1.121667,0.574348 0.743274,0.628404 0.743274,1.533846 0,0.68246 -0.405422,1.162209 -0.405422,0.472992 -1.189238,0.702731 v 0.07433 q 0.162169,0.04054 0.391908,0.108112 0.479749,-0.114869 0.817601,-0.36488 0.790573,-0.594618 0.790573,-1.635201 0,-0.97977 -0.790573,-1.723043 v -0.04054 q 0.175683,0.13514 0.277038,0.222982 0.68246,0.587862 0.68246,1.587902 0,1.473033 -1.527089,2.054138 0.452721,0.209468 0.743274,0.506777 0.655432,0.68246 0.655432,1.628444 0,1.000041 -0.743274,1.635202 -0.270281,0.236496 -0.587861,0.351366 -0.310824,0.108112 -0.885171,0.182439 -0.304067,0.04054 -0.459479,0.04054 h -4.838034 l 0.93247,-0.79733 v -2.925795 q -0.405421,0 -0.93247,0.08108 l -0.05406,-0.195954 q 0.439207,-0.0473 0.986526,-0.06081 v -0.358123 q -0.689217,0.01351 -1.121667,0.05406 l 0.29731,-0.648675 q 0.331094,0.02703 0.506777,0.02703 0.236496,0.0068 0.31758,0.02027 v -2.540643 z m 2.114951,-0.101356 v 3.047421 q 0.05406,-0.0068 0.08108,-0.0068 l 0.155412,0.0068 q 0.0473,0 0.101355,0 v -2.763625 q 0.581105,-0.270282 1.135181,-0.270282 0.641918,0 1.006798,0.22974 0.36488,0.229739 0.621647,0.783815 l -0.189197,-0.108112 q -0.506777,-0.763545 -1.432491,-0.763545 -0.540562,0 -0.959498,0.29731 v 2.594699 q 0.168926,0 0.283795,0 1.16221,0 1.756828,-0.310823 0.358123,-0.189197 0.574348,-0.581105 0.222982,-0.391907 0.222982,-0.844629 0,-0.837871 -0.635161,-1.358163 -0.466235,-0.378394 -1.236537,-0.378394 -0.777058,0 -1.486546,0.425693 z m 0,3.601498 v 3.723124 h 0.337851 v -3.317702 q 0.412179,-0.03378 0.689217,-0.03378 1.290593,0 1.837913,0.310823 0.324337,0.18244 0.587862,0.695974 h -0.08109 q -0.331094,-0.466235 -0.831115,-0.641918 -0.50002,-0.182439 -1.459518,-0.182439 -0.256768,0 -0.560834,0.01351 v 3.155533 q 1.29735,0 1.831155,-0.141897 1.270322,-0.337852 1.270322,-1.743314 0,-0.871657 -0.466235,-1.34465 -0.283795,-0.283795 -0.851386,-0.398665 -0.560833,-0.121626 -1.648715,-0.121626 -0.290553,0 -0.655432,0.02703 z m 5.061016,0.472992 q 0.337852,0.263524 0.527048,0.716246 0.195954,0.445964 0.195954,0.986526 0,0.817601 -0.445964,1.47979 -0.777058,1.148695 -2.66227,1.148695 h -4.594781 l -0.11487,-0.18244 h 4.263687 q 1.391948,0 2.006838,-0.283795 0.648675,-0.304066 1.006798,-0.878414 0.358122,-0.574348 0.358122,-1.317621 0,-0.891928 -0.621646,-1.608173 z"
           style="font-style:normal;font-variant:normal;font-weight:normal;font-stretch:normal;font-size:13.8384px;font-family:AlgerianD;-inkscape-font-specification:AlgerianD;fill:#ffffff;stroke:none;stroke-width:0.264583px"
           id="path933" />
        <path
           d="m 42.742208,65.307651 h 3.202833 l -0.905442,0.918956 v 7.034069 l 0.851386,0.716246 h -3.148777 l 0.939228,-0.777059 V 66.15228 Z m 3.506899,0.38515 -0.689217,0.682461 v 6.885414 l 1.135181,1.270322 h -3.513656 l -0.168926,-0.18244 h 3.283918 l -0.925714,-1.020311 v -7.013799 l 0.763545,-0.756787 z"
           style="font-style:normal;font-variant:normal;font-weight:normal;font-stretch:normal;font-size:13.8384px;font-family:AlgerianD;-inkscape-font-specification:AlgerianD;fill:#ffffff;stroke:none;stroke-width:0.264583px"
           id="path935" />
        <path
           d="m 54.5062,65.307651 q -0.155411,0.283795 -0.540562,0.966255 -0.229739,0.412179 -0.452721,1.11491 l -0.06757,-0.0473 q -0.13514,-0.527048 -0.283795,-0.804087 -0.344609,-0.648675 -1.391948,-0.648675 -0.310824,0 -0.695975,0.02703 v 7.324622 l 0.79733,0.736517 h -3.087963 l 0.945984,-0.790573 v -6.723246 q -0.216225,-0.0068 -0.439207,-0.0068 -0.729759,0 -1.027069,0.270281 -0.297309,0.263524 -0.351365,0.966256 h -0.175683 q 0.05406,-0.601376 0.222982,-0.878414 0.31758,-0.533806 1.290593,-0.533806 l 0.418936,0.0068 q 0.0068,0 0.06081,0 v -0.331094 q -0.344608,-0.04054 -0.655432,-0.04054 -0.601376,0 -0.925713,0.135141 -0.317581,0.128384 -0.50002,0.445964 -0.229739,0.398665 -0.256768,0.973013 h -0.08108 q -0.304066,-0.966256 -0.939227,-2.16225 z m 0.425693,0.425693 q -0.277038,0.351365 -0.486506,0.770301 -0.202711,0.412179 -0.520291,1.270322 l -0.148655,-0.128384 q 0.56759,-1.567631 1.020312,-2.04738 z m -1.804127,1.054096 q -0.520292,-0.337851 -1.216266,-0.337851 -0.155411,0 -0.324337,0.02027 l 0.02703,6.790816 1.074368,1.270322 h -3.452843 l -0.155412,-0.18244 h 3.236618 L 51.41148,73.314733 v -7.040827 q 0.243253,-0.0068 0.36488,-0.0068 0.655432,0 0.925713,0.108113 0.277038,0.101355 0.425693,0.412178 z"
           style="font-style:normal;font-variant:normal;font-weight:normal;font-stretch:normal;font-size:13.8384px;font-family:AlgerianD;-inkscape-font-specification:AlgerianD;fill:#ffffff;stroke:none;stroke-width:0.264583px"
           id="path937" />
        <path
           d="m 58.817185,65.307651 h 3.033907 q 1.932511,0 2.750111,0.533805 1.040583,0.668946 1.040583,1.858184 0,0.891928 -0.608133,1.506818 -0.398664,0.405422 -1.148695,0.581104 -0.743273,0.175683 -2.033866,0.175683 h -0.831115 v 3.270403 l 0.824358,0.743274 h -3.14202 l 0.939228,-0.790573 V 70.47678 q -0.08109,-0.0068 -0.11487,-0.0068 -0.486506,0 -0.93247,0.209468 l -0.06081,-0.121626 q 0.277039,-0.155412 0.43245,-0.195954 0.162169,-0.04054 0.675704,-0.06757 v -0.331095 q -0.108113,-0.02027 -0.209468,-0.02027 -0.723003,0 -1.155453,0.351366 l -0.06757,-0.101356 q 0.412179,-0.797329 1.432491,-0.756787 v -3.310946 z m 2.202792,0.695974 v 3.385272 q 0.0473,0 0.07433,0 l 0.195954,0.0068 q 0.02027,0 0.08109,-0.0068 v -3.013635 h 0.743273 q 0.858143,0 1.216266,0.155411 0.358122,0.155412 0.608132,0.628404 -0.25001,-0.344608 -0.628404,-0.479749 -0.371636,-0.141898 -1.054096,-0.141898 h -0.695975 v 2.851467 q 1.324379,0.0068 1.952782,-0.38515 0.635161,-0.398665 0.635161,-1.236537 0,-1.452762 -1.425733,-1.723043 -0.337852,-0.06757 -0.925714,-0.06757 -0.304066,0 -0.777058,0.02703 z m 4.277201,0.02703 q 0.31758,0.155412 0.540562,0.493263 0.371637,0.581105 0.371637,1.378435 0,1.162209 -0.743274,1.824398 -0.486506,0.439207 -1.216265,0.608133 -0.72976,0.162169 -2.155493,0.162169 -0.29731,0 -0.533806,-0.01351 v 2.790653 l 1.060854,1.256808 h -3.385272 l -0.18244,-0.18244 h 3.182562 l -0.8649,-1.00004 v -3.047421 q 0.587861,0.03378 1.25005,0.03378 1.574389,0 2.371718,-0.472992 1.060854,-0.628404 1.060854,-1.986567 0,-0.560834 -0.162169,-0.945985 -0.155411,-0.391908 -0.594618,-0.898685 z"
           style="font-style:normal;font-variant:normal;font-weight:normal;font-stretch:normal;font-size:13.8384px;font-family:AlgerianD;-inkscape-font-specification:AlgerianD;fill:#ffffff;stroke:none;stroke-width:0.264583px"
           id="path939" />
        <path
           d="m 73.946179,65.307651 q -0.520292,0.628404 -0.72976,0.993283 -0.209468,0.36488 -0.472992,1.074368 -0.0473,-0.114869 -0.101355,-0.229739 -0.36488,-0.804087 -0.790573,-1.040583 -0.418936,-0.243253 -1.466276,-0.243253 -0.574347,0 -1.283836,0.03378 v 3.108235 h 0.43245 v -2.750112 q 0.513535,-0.0473 1.006798,-0.0473 0.831115,0 1.236537,0.18244 0.405422,0.182439 0.723002,0.709488 -0.101355,-0.08108 -0.135141,-0.101356 -0.547319,-0.43245 -0.790572,-0.513534 -0.243253,-0.08108 -0.959499,-0.08108 -0.216225,0 -0.912199,0.03379 v 2.567672 h 1.243294 l 0.871657,-1.195995 v 2.912281 l -0.871657,-1.128425 h -1.84467 v 3.790695 h 0.43245 v -3.473114 h 1.466276 l 0.175683,0.175683 h -1.473033 v 3.297431 q 1.628445,0 2.101437,-0.243253 0.358123,-0.175683 0.479749,-0.324338 0.128384,-0.148654 0.729759,-1.162209 0.168926,0.729759 0.43245,1.189237 0.270282,0.459479 0.8649,1.040583 h -7.574632 l 1.027069,-0.783815 v -3.013636 q -0.56759,0.06081 -1.027069,0.351365 l -0.0946,-0.141897 q 0.385151,-0.29731 1.121667,-0.385151 v -0.317581 q -0.114869,-0.01351 -0.162169,-0.01351 -0.310823,0 -0.655432,0.141898 -0.344608,0.135141 -0.601375,0.36488 0.270281,-1.074368 1.418976,-1.081125 v -2.885253 l -1.027069,-0.810843 z m 0.324337,0.472992 q -0.581104,0.783815 -0.777058,1.101396 -0.189197,0.31758 -0.371637,0.817601 l -0.11487,-0.141898 q 0.452722,-1.054097 1.168967,-1.918997 z m -1.986567,2.250091 v 2.986608 l -0.168926,-0.08784 v -2.986608 z m 2.797411,5.892131 -0.351366,0.608133 h -7.378678 l -0.108112,-0.18244 h 7.398949 l 0.229739,-0.425693 q -0.993284,-0.905442 -1.371677,-1.918996 l 0.216225,0.08108 q 0.229739,0.540562 0.486506,0.891928 0.263524,0.344609 0.878414,0.945984 z"
           style="font-style:normal;font-variant:normal;font-weight:normal;font-stretch:normal;font-size:13.8384px;font-family:AlgerianD;-inkscape-font-specification:AlgerianD;fill:#ffffff;stroke:none;stroke-width:0.264583px"
           id="path941" />
        <path
           d="m 75.540837,66.118494 q 1.601417,-0.925713 3.39203,-0.925713 0.75003,0 1.432491,0.189197 0.68246,0.189197 1.11491,0.520291 0.797329,0.601376 0.797329,1.493304 0,0.777059 -0.608132,1.385192 -0.601376,0.608132 -1.66223,0.878414 0.459478,1.270322 1.263565,2.500101 0.810843,1.223023 1.608173,1.864941 -0.668946,0.229739 -1.101396,0.445964 -0.425693,0.209468 -1.074368,0.628404 -0.405422,-2.621728 -1.270322,-4.716408 -0.439207,0.216225 -1.304107,0.351366 v 2.527129 l 1.189238,1.270322 h -3.493385 l -0.108113,-0.18244 h 3.216347 l -0.97977,-1.040582 v -2.723084 q 0.891928,-0.0946 1.432491,-0.324337 -0.04054,-0.08784 -0.08784,-0.222983 -0.03379,-0.08784 -0.06081,-0.155411 -0.43245,0.121626 -1.655472,0.277038 v 3.013636 l 0.770301,0.804087 h -2.986608 l 0.878414,-0.804087 v -2.270363 q -0.445964,0.0946 -0.8176,0.222983 l -0.06081,-0.135141 q 0.304067,-0.11487 0.878414,-0.256767 v -0.351366 q -0.43245,0.0068 -1.06761,0.202711 0.01351,-0.08784 0.13514,-0.439207 0.01351,-0.02703 0.0946,-0.304066 l 0.02027,-0.06081 q 0.304066,0.02027 0.466235,0.02027 0.189197,0 0.344608,-0.02027 v -3.324459 q -0.31758,-0.189197 -0.695974,-0.337852 z m 2.040624,-0.175682 v 3.642039 q 0.182439,0 0.371636,-0.03378 v -3.324459 q 0.371637,-0.101356 0.898686,-0.101356 0.689217,0 1.108153,0.209468 0.425693,0.202711 0.675703,0.655432 -0.506778,-0.412178 -0.891928,-0.560833 -0.378394,-0.148655 -0.932471,-0.148655 -0.371636,0 -0.68246,0.08109 v 3.189318 q 1.040583,-0.189197 1.648716,-0.50002 0.547319,-0.283795 0.817601,-0.790573 0.229739,-0.418936 0.229739,-0.851386 0,-0.844629 -0.695975,-1.331135 -0.56759,-0.398665 -1.358163,-0.398665 -0.702731,0 -1.189237,0.263525 z m 3.263646,4.054218 q 0.216225,0.709489 0.702731,1.554117 0.493263,0.837872 1.040583,1.446005 0.61489,0.675703 1.473033,1.216266 -1.540604,0.405422 -2.966337,1.29735 l -0.135141,-0.108113 q 0.61489,-0.405422 1.331135,-0.729759 0.723003,-0.324338 1.418977,-0.513534 -0.729759,-0.486507 -1.256808,-1.067611 -0.520291,-0.581105 -1.060854,-1.513575 -0.405422,-0.716246 -0.783815,-1.682501 0.689217,-0.256767 1.027068,-0.493263 1.040583,-0.72976 1.040583,-1.898726 0,-0.378394 -0.114869,-0.689217 -0.11487,-0.310824 -0.418936,-0.756788 0.324337,0.297309 0.50002,0.716245 0.18244,0.412179 0.18244,0.8649 0,0.756788 -0.506777,1.364921 -0.506778,0.601375 -1.473033,0.993283 z"
           style="font-style:normal;font-variant:normal;font-weight:normal;font-stretch:normal;font-size:13.8384px;font-family:AlgerianD;-inkscape-font-specification:AlgerianD;fill:#ffffff;stroke:none;stroke-width:0.264583px"
           id="path943" />
        <path
           d="m 90.710376,65.517119 q -0.682461,1.189237 -1.189238,2.405503 l -0.08784,-0.0473 q -0.121627,-0.777059 -0.459478,-1.310865 -0.263525,-0.405421 -0.716246,-0.662189 -0.445964,-0.256767 -0.905442,-0.256767 -0.621647,0 -1.155452,0.445964 -1.013555,0.844629 -1.013555,3.378516 0,1.817641 0.560834,2.925794 0.277038,0.54732 0.763544,0.885171 0.540563,0.371637 1.216266,0.371637 0.925713,0 1.486547,-0.635161 0.560833,-0.635161 0.668946,-1.804127 0.02703,-0.283795 0.229739,-0.283795 0.263524,0 0.263524,0.439207 0,0.533805 -0.229739,1.18248 -0.283795,0.817601 -0.973013,1.236537 -0.695974,0.425693 -1.689257,0.425693 -1.101396,0 -1.973053,-0.520292 -0.993284,-0.587861 -1.47979,-1.871697 -0.371637,-0.966256 -0.371637,-2.09468 0,-2.337933 1.452762,-3.743395 0.93247,-0.898685 2.337932,-0.898685 0.445965,0 0.756788,0.07433 0.31758,0.06757 0.918956,0.297309 0.506778,0.195954 0.837872,0.195954 0.351366,0 0.641918,-0.195954 z m -1.95954,1.168966 q -0.364879,-0.290552 -0.601375,-0.391908 -0.229739,-0.101355 -0.533806,-0.101355 -1.777099,0 -1.777099,3.297431 0,1.554117 0.405422,2.567672 0.405422,1.013554 1.141938,1.310864 v 0.06757 q -0.391908,-0.08108 -0.689217,-0.371637 -0.594619,-0.56759 -0.844629,-1.648715 -0.216225,-0.912199 -0.216225,-1.932511 0,-1.66223 0.533806,-2.648756 0.209468,-0.378394 0.581104,-0.594619 0.371637,-0.216225 0.817601,-0.216225 0.36488,0 0.61489,0.121627 0.25001,0.121626 0.56759,0.452721 z m 2.202793,4.64208 q -0.08109,1.195995 -0.459478,1.898726 -0.405422,0.756788 -1.175724,1.155453 -0.723002,0.371636 -1.61493,0.371636 -1.128425,0 -2.101437,-0.695974 v -0.05406 q 0.858143,0.56759 2.054137,0.56759 1.202752,0 2.020353,-0.675703 0.533805,-0.445964 0.763544,-1.013554 0.236496,-0.567591 0.317581,-1.641959 z m 0.25001,-5.486709 q -0.817601,1.391949 -1.250051,2.419017 l -0.18244,-0.08784 q 0.452721,-0.966256 1.209509,-2.304148 l 0.06757,-0.121626 z"
           style="font-style:normal;font-variant:normal;font-weight:normal;font-stretch:normal;font-size:13.8384px;font-family:AlgerianD;-inkscape-font-specification:AlgerianD;fill:#ffffff;stroke:none;stroke-width:0.264583px"
           id="path945" />
        <path
           d="m 99.420182,65.307651 -1.209508,0.966255 v 4.365042 q 0,1.04734 -0.05406,1.533846 -0.05406,0.486507 -0.202711,0.831115 -0.479749,1.094639 -2.371717,1.094639 -2.040624,0 -2.669028,-1.121667 -0.378394,-0.689217 -0.378394,-2.358204 v -4.486669 l -0.918956,-0.824357 h 3.189319 l -0.918956,0.898685 v 4.419098 q 0.01351,1.277079 0.03379,1.540603 0.02027,0.256767 0.121626,0.520292 0.141898,0.391908 0.574348,0.61489 0.43245,0.216225 1.067611,0.216225 1.304107,0 1.641959,-0.810844 0.229739,-0.554077 0.243253,-2.060895 l 0.02703,-4.371799 -1.054097,-0.966255 z m 0.229739,0.459478 -0.918956,0.763544 v 4.196117 q 0,1.736557 -0.189197,2.358204 -0.277038,0.891928 -1.18248,1.29735 -0.668946,0.304066 -1.513575,0.304066 -0.804087,0 -1.466276,-0.216225 -0.662189,-0.222982 -1.060854,-0.61489 0.05406,0.02703 0.290552,0.162169 0.831115,0.486506 2.135222,0.486506 1.364921,0 2.074409,-0.655432 0.418936,-0.391908 0.56759,-1.027069 0.155412,-0.641918 0.155412,-2.04738 v -4.3245 l 1.006798,-0.824358 z m -4.560996,-0.0946 -0.662189,0.668946 v 5.020475 l -0.0068,0.466235 q 0,0.472992 0.162169,0.783815 0.168926,0.304067 0.635161,0.695975 l 0.01351,0.06081 Q 94.676746,73.145807 94.453764,72.699843 94.230782,72.247122 94.230782,71.34168 v -5.067774 l 0.763545,-0.743273 z"
           style="font-style:normal;font-variant:normal;font-weight:normal;font-stretch:normal;font-size:13.8384px;font-family:AlgerianD;-inkscape-font-specification:AlgerianD;fill:#ffffff;stroke:none;stroke-width:0.264583px"
           id="path947" />
        <path
           d="m 106.41371,65.381978 q -0.34461,0.452721 -0.56083,0.986527 -0.47975,1.168966 -0.58111,1.283835 l -0.0405,-0.114869 q -0.1892,-0.608133 -0.31082,-0.844629 -0.12163,-0.236496 -0.36488,-0.452721 -0.61489,-0.54732 -1.39871,-0.54732 -0.72976,0 -1.20951,0.405422 -0.47299,0.398665 -0.47299,1.013555 0,0.844629 0.83787,1.236537 0.31082,0.148654 0.56083,0.222982 0.25001,0.06757 1.45277,0.358122 1.24329,0.29731 1.80412,0.9122 0.63516,0.695974 0.63516,1.648715 0,1.135181 -0.85138,1.891969 -0.8176,0.736516 -2.04738,0.736516 -0.51354,0 -0.93923,-0.06757 -0.41893,-0.07433 -1.57439,-0.36488 -0.47299,-0.114869 -0.79057,-0.114869 -0.41218,0 -0.851386,0.263524 l -0.05406,-0.0946 q 0.344612,-0.513535 0.689222,-1.223023 0.35136,-0.716245 0.4865,-1.182481 l 0.12163,0.03379 q 0.0811,0.601375 0.33785,1.060854 0.29731,0.527048 0.87841,0.831114 0.66895,0.344609 1.51358,0.344609 0.89193,0 1.38519,-0.391908 0.56759,-0.452721 0.56759,-1.162209 0,-0.425693 -0.24325,-0.810844 -0.2365,-0.391908 -0.66219,-0.635161 -0.32434,-0.189197 -0.723,-0.304066 -0.39867,-0.121627 -1.30411,-0.29731 -1.28384,-0.256767 -1.80413,-0.790572 -0.62165,-0.641918 -0.62165,-1.614931 0,-1.18248 0.87166,-1.86494 0.73652,-0.574348 1.89197,-0.574348 0.78382,0 1.84467,0.283795 0.49326,0.135141 0.71625,0.135141 0.3446,0 0.73651,-0.229739 z m 0.41894,0.283795 q -0.31759,0.533806 -0.53381,0.993284 -0.52705,1.101396 -0.56759,1.155452 l -0.16217,-0.06757 q 0.2365,-0.540563 1.0541,-2.114951 l 0.0338,-0.05406 z m -1.97306,1.34465 q -0.74327,-0.790573 -1.59466,-0.790573 -0.52705,0 -0.8649,0.310823 -0.32433,0.29731 -0.32433,0.723003 0,0.310823 0.14865,0.533805 0.14865,0.216225 0.58786,0.54732 l -0.0338,0.05406 q -0.89193,-0.398665 -0.89193,-1.168967 0,-0.513534 0.37839,-0.844628 0.3784,-0.331095 0.97301,-0.331095 0.58787,0 1.02032,0.25001 0.4392,0.243253 0.64867,0.689217 z m 1.55412,2.682541 q 0.91896,0.695974 0.91896,1.891969 0,0.858143 -0.49327,1.61493 -0.52029,0.783816 -1.41897,1.168966 -0.71625,0.310824 -1.58115,0.310824 -0.50678,0 -0.79733,-0.05406 -0.29055,-0.0473 -1.5406,-0.358123 -0.37164,-0.0946 -0.79733,-0.0946 -0.39867,0 -0.723005,0.155411 l -0.08108,-0.195954 q 0.344609,-0.162168 0.716249,-0.162168 0.30406,0 0.54732,0.0473 0.25001,0.0473 1.41897,0.324337 0.62165,0.148655 1.26357,0.148655 0.64192,0 1.25005,-0.209468 0.60813,-0.209468 1.03382,-0.581105 0.45948,-0.398664 0.73652,-0.986526 0.27704,-0.587862 0.27704,-1.168967 0,-1.033825 -0.72976,-1.810884 z m -4.81101,1.946025 q 0.2365,1.209508 1.3379,1.723043 v 0.05406 q -0.66219,-0.189197 -1.02032,-0.601376 -0.35812,-0.412179 -0.50002,-1.141938 z m -0.84463,-2.189278 0.22974,0.128383 q 0.16217,0.277039 0.51354,0.418936 0.35136,0.135141 1.87845,0.513535 1.11491,0.277038 1.47979,0.472992 0.36488,0.195954 0.52029,0.608133 l -0.0473,0.02703 q -0.30406,-0.358123 -0.66218,-0.513535 -0.35137,-0.162168 -1.35817,-0.398664 -1.48654,-0.344609 -1.97305,-0.581105 -0.48651,-0.243253 -0.58111,-0.675703 z"
           style="font-style:normal;font-variant:normal;font-weight:normal;font-stretch:normal;font-size:13.8384px;font-family:AlgerianD;-inkscape-font-specification:AlgerianD;fill:#ffffff;stroke:none;stroke-width:0.264583px"
           id="path949" />
        <path
           d="m 114.0897,65.381978 q -0.3446,0.452721 -0.56083,0.986527 -0.47975,1.168966 -0.5811,1.283835 l -0.0406,-0.114869 q -0.18919,-0.608133 -0.31082,-0.844629 -0.12163,-0.236496 -0.36488,-0.452721 -0.61489,-0.54732 -1.3987,-0.54732 -0.72976,0 -1.20951,0.405422 -0.473,0.398665 -0.473,1.013555 0,0.844629 0.83788,1.236537 0.31082,0.148654 0.56083,0.222982 0.25001,0.06757 1.45276,0.358122 1.2433,0.29731 1.80413,0.9122 0.63516,0.695974 0.63516,1.648715 0,1.135181 -0.85139,1.891969 -0.8176,0.736516 -2.04738,0.736516 -0.51353,0 -0.93922,-0.06757 -0.41894,-0.07433 -1.57439,-0.36488 -0.47299,-0.114869 -0.79057,-0.114869 -0.41218,0 -0.85139,0.263524 l -0.0541,-0.0946 q 0.34461,-0.513535 0.68922,-1.223023 0.35137,-0.716245 0.48651,-1.182481 l 0.12162,0.03379 q 0.0811,0.601375 0.33785,1.060854 0.29731,0.527048 0.87842,0.831114 0.66894,0.344609 1.51357,0.344609 0.89193,0 1.38519,-0.391908 0.5676,-0.452721 0.5676,-1.162209 0,-0.425693 -0.24326,-0.810844 -0.23649,-0.391908 -0.66219,-0.635161 -0.32433,-0.189197 -0.723,-0.304066 -0.39866,-0.121627 -1.30411,-0.29731 -1.28383,-0.256767 -1.80412,-0.790572 -0.62165,-0.641918 -0.62165,-1.614931 0,-1.18248 0.87166,-1.86494 0.73651,-0.574348 1.89197,-0.574348 0.78381,0 1.84467,0.283795 0.49326,0.135141 0.71624,0.135141 0.34461,0 0.73652,-0.229739 z m 0.41894,0.283795 q -0.31758,0.533806 -0.53381,0.993284 -0.52704,1.101396 -0.56759,1.155452 l -0.16216,-0.06757 q 0.23649,-0.540563 1.05409,-2.114951 l 0.0338,-0.05406 z m -1.97305,1.34465 q -0.74328,-0.790573 -1.59466,-0.790573 -0.52705,0 -0.8649,0.310823 -0.32434,0.29731 -0.32434,0.723003 0,0.310823 0.14865,0.533805 0.14866,0.216225 0.58787,0.54732 l -0.0338,0.05406 q -0.89193,-0.398665 -0.89193,-1.168967 0,-0.513534 0.3784,-0.844628 0.37839,-0.331095 0.97301,-0.331095 0.58786,0 1.02031,0.25001 0.43921,0.243253 0.64868,0.689217 z m 1.55411,2.682541 q 0.91896,0.695974 0.91896,1.891969 0,0.858143 -0.49326,1.61493 -0.52029,0.783816 -1.41898,1.168966 -0.71624,0.310824 -1.58114,0.310824 -0.50678,0 -0.79733,-0.05406 -0.29056,-0.0473 -1.54061,-0.358123 -0.37163,-0.0946 -0.79733,-0.0946 -0.39866,0 -0.723,0.155411 l -0.0811,-0.195954 q 0.3446,-0.162168 0.71624,-0.162168 0.30407,0 0.54732,0.0473 0.25001,0.0473 1.41898,0.324337 0.62164,0.148655 1.26356,0.148655 0.64192,0 1.25005,-0.209468 0.60814,-0.209468 1.03383,-0.581105 0.45948,-0.398664 0.73652,-0.986526 0.27703,-0.587862 0.27703,-1.168967 0,-1.033825 -0.72976,-1.810884 z m -4.811,1.946025 q 0.23649,1.209508 1.33789,1.723043 v 0.05406 q -0.66219,-0.189197 -1.02031,-0.601376 -0.35812,-0.412179 -0.50002,-1.141938 z m -0.84463,-2.189278 0.22974,0.128383 q 0.16217,0.277039 0.51353,0.418936 0.35137,0.135141 1.87846,0.513535 1.11491,0.277038 1.47979,0.472992 0.36488,0.195954 0.52029,0.608133 l -0.0473,0.02703 q -0.30407,-0.358123 -0.66219,-0.513535 -0.35137,-0.162168 -1.35816,-0.398664 -1.48655,-0.344609 -1.97306,-0.581105 -0.4865,-0.243253 -0.5811,-0.675703 z"
           style="font-style:normal;font-variant:normal;font-weight:normal;font-stretch:normal;font-size:13.8384px;font-family:AlgerianD;-inkscape-font-specification:AlgerianD;fill:#ffffff;stroke:none;stroke-width:0.264583px"
           id="path951" />
        <path
           d="m 115.42083,65.307651 h 3.20283 l -0.90544,0.918956 v 7.034069 l 0.85139,0.716246 h -3.14878 l 0.93923,-0.777059 V 66.15228 Z m 3.5069,0.38515 -0.68922,0.682461 v 6.885414 l 1.13518,1.270322 h -3.51365 l -0.16893,-0.18244 h 3.28392 l -0.92571,-1.020311 v -7.013799 l 0.76354,-0.756787 z"
           style="font-style:normal;font-variant:normal;font-weight:normal;font-stretch:normal;font-size:13.8384px;font-family:AlgerianD;-inkscape-font-specification:AlgerianD;fill:#ffffff;stroke:none;stroke-width:0.264583px"
           id="path953" />
        <path
           d="m 123.42116,65.219809 q 1.04734,0 1.89197,0.533806 0.9122,0.581104 1.37168,1.851426 0.36487,1.006798 0.36487,2.229821 0,1.263564 -0.45947,2.277119 -0.50678,1.108153 -1.53385,1.614931 -0.72976,0.364879 -1.56087,0.364879 -1.48655,0 -2.54065,-1.027069 -1.25681,-1.223022 -1.25681,-3.419057 0,-2.169007 1.12843,-3.351488 1.00004,-1.04734 2.5947,-1.074368 z m -0.0203,0.581105 q -0.723,0 -1.25681,0.472992 -0.98653,0.878414 -0.98653,3.540684 0,1.689258 0.473,2.642 0.24325,0.486506 0.71624,0.777058 0.47975,0.290553 1.02707,0.290553 1.06761,0 1.62169,-0.973013 0.55407,-0.973012 0.55407,-2.84471 0,-1.939268 -0.42569,-2.837953 -0.2365,-0.50002 -0.68922,-0.777059 -0.45272,-0.283795 -1.03382,-0.290552 z m 1.48654,1.013555 q -0.75003,-0.425693 -1.26356,-0.425693 -0.62165,0 -1.06085,0.425693 -0.75679,0.736516 -0.75679,3.114991 0,2.506859 1.10139,3.337973 l -0.0608,0.06757 q -0.6757,-0.47975 -0.96625,-1.256808 -0.2838,-0.783816 -0.2838,-2.114951 0,-1.824398 0.48651,-2.831196 0.20946,-0.439207 0.59462,-0.675703 0.3919,-0.243253 0.88517,-0.243253 0.41893,0 0.7703,0.162169 0.35812,0.162168 0.55407,0.439207 z m 0.70949,-1.250051 q 0.70949,0.344608 1.18248,1.027069 0.90545,1.310864 0.90545,3.175804 0,1.425734 -0.5203,2.581186 -0.58786,1.290593 -1.76358,1.871698 -0.81084,0.398665 -1.6825,0.398665 -1.18924,0 -2.18928,-0.777059 v -0.03378 q 0.83787,0.61489 2.09468,0.61489 1.62844,0 2.71633,-1.195995 1.16221,-1.270322 1.16221,-3.419058 0,-1.425733 -0.50678,-2.527129 -0.50002,-1.101396 -1.39871,-1.641959 z"
           style="font-style:normal;font-variant:normal;font-weight:normal;font-stretch:normal;font-size:13.8384px;font-family:AlgerianD;-inkscape-font-specification:AlgerianD;fill:#ffffff;stroke:none;stroke-width:0.264583px"
           id="path955" />
        <path
           d="m 134.66486,73.976922 h -1.14194 l -3.18932,-6.189441 v 3.669068 l -0.007,0.351366 q 0,1.459518 0.69598,1.925754 l 0.0541,0.0473 q -0.49326,-0.162169 -0.71624,-0.628404 -0.21623,-0.472992 -0.21623,-1.358163 l 0.007,-0.641918 v -3.696096 l -0.36488,-0.709489 v 3.89205 q 0,1.128424 0.0473,1.601417 0.0473,0.472992 0.1892,0.777058 0.31758,0.648675 1.14869,0.885171 l 0.58786,0.628404 h -3.66231 l -0.10811,-0.18244 h 3.38527 l -0.35136,-0.371636 h -3.14878 q 0.64867,-0.229739 0.91896,-0.554077 0.24325,-0.290552 0.3446,-0.729759 0.10136,-0.445964 0.10136,-1.22978 v -5.405625 l -0.89869,-0.75003 h 3.41906 l -0.9595,0.641918 3.27041,6.378637 v -0.810844 l -2.80417,-5.459681 0.94598,-0.641918 0.12839,0.128384 -0.83787,0.56759 2.56767,5.040746 v -3.155534 q 0,-1.067611 -0.0203,-1.277079 -0.0135,-0.209468 -0.10812,-0.459478 -0.22298,-0.574348 -1.01355,-0.952741 h 3.06769 q -0.60137,0.310823 -0.82436,0.520291 -0.21622,0.209468 -0.34461,0.581105 -0.16892,0.547319 -0.16216,1.61493 z m 1.56763,-8.169251 -0.12163,0.202711 q -0.52705,0.128383 -0.70949,0.445964 -0.18244,0.31758 -0.18244,1.108153 v 6.966499 h -1.45276 l -0.0878,-0.18244 h 1.35816 v -6.716489 q 0,-0.952741 0.24326,-1.331135 0.25001,-0.378394 0.95274,-0.493263 z"
           style="font-style:normal;font-variant:normal;font-weight:normal;font-stretch:normal;font-size:13.8384px;font-family:AlgerianD;-inkscape-font-specification:AlgerianD;fill:#ffffff;stroke:none;stroke-width:0.264583px"
           id="path957" />
        <path
           d="m 142.94222,65.381978 q -0.34461,0.452721 -0.56083,0.986527 -0.47975,1.168966 -0.58111,1.283835 l -0.0405,-0.114869 q -0.1892,-0.608133 -0.31082,-0.844629 -0.12163,-0.236496 -0.36488,-0.452721 -0.61489,-0.54732 -1.39871,-0.54732 -0.72976,0 -1.20951,0.405422 -0.47299,0.398665 -0.47299,1.013555 0,0.844629 0.83787,1.236537 0.31083,0.148654 0.56084,0.222982 0.25001,0.06757 1.45276,0.358122 1.24329,0.29731 1.80412,0.9122 0.63517,0.695974 0.63517,1.648715 0,1.135181 -0.85139,1.891969 -0.8176,0.736516 -2.04738,0.736516 -0.51353,0 -0.93923,-0.06757 -0.41893,-0.07433 -1.57439,-0.36488 -0.47299,-0.114869 -0.79057,-0.114869 -0.41218,0 -0.85138,0.263524 l -0.0541,-0.0946 q 0.34461,-0.513535 0.68922,-1.223023 0.35136,-0.716245 0.4865,-1.182481 l 0.12163,0.03379 q 0.0811,0.601375 0.33785,1.060854 0.29731,0.527048 0.87841,0.831114 0.66895,0.344609 1.51358,0.344609 0.89193,0 1.38519,-0.391908 0.56759,-0.452721 0.56759,-1.162209 0,-0.425693 -0.24325,-0.810844 -0.2365,-0.391908 -0.66219,-0.635161 -0.32434,-0.189197 -0.723,-0.304066 -0.39867,-0.121627 -1.30411,-0.29731 -1.28384,-0.256767 -1.80413,-0.790572 -0.62164,-0.641918 -0.62164,-1.614931 0,-1.18248 0.87165,-1.86494 0.73652,-0.574348 1.89197,-0.574348 0.78382,0 1.84467,0.283795 0.49326,0.135141 0.71625,0.135141 0.34461,0 0.73651,-0.229739 z m 0.41894,0.283795 q -0.31758,0.533806 -0.53381,0.993284 -0.52705,1.101396 -0.56759,1.155452 l -0.16217,-0.06757 q 0.2365,-0.540563 1.0541,-2.114951 l 0.0338,-0.05406 z m -1.97306,1.34465 q -0.74327,-0.790573 -1.59466,-0.790573 -0.52704,0 -0.8649,0.310823 -0.32433,0.29731 -0.32433,0.723003 0,0.310823 0.14865,0.533805 0.14866,0.216225 0.58786,0.54732 l -0.0338,0.05406 q -0.89193,-0.398665 -0.89193,-1.168967 0,-0.513534 0.37839,-0.844628 0.3784,-0.331095 0.97302,-0.331095 0.58786,0 1.02031,0.25001 0.4392,0.243253 0.64867,0.689217 z m 1.55412,2.682541 q 0.91896,0.695974 0.91896,1.891969 0,0.858143 -0.49327,1.61493 -0.52029,0.783816 -1.41897,1.168966 -0.71625,0.310824 -1.58115,0.310824 -0.50678,0 -0.79733,-0.05406 -0.29055,-0.0473 -1.5406,-0.358123 -0.37164,-0.0946 -0.79733,-0.0946 -0.39867,0 -0.723,0.155411 l -0.0811,-0.195954 q 0.34461,-0.162168 0.71625,-0.162168 0.30406,0 0.54732,0.0473 0.25001,0.0473 1.41897,0.324337 0.62165,0.148655 1.26357,0.148655 0.64192,0 1.25005,-0.209468 0.60813,-0.209468 1.03382,-0.581105 0.45948,-0.398664 0.73652,-0.986526 0.27704,-0.587862 0.27704,-1.168967 0,-1.033825 -0.72976,-1.810884 z m -4.81101,1.946025 q 0.2365,1.209508 1.3379,1.723043 v 0.05406 q -0.66219,-0.189197 -1.02032,-0.601376 -0.35812,-0.412179 -0.50002,-1.141938 z m -0.84462,-2.189278 0.22973,0.128383 q 0.16217,0.277039 0.51354,0.418936 0.35136,0.135141 1.87845,0.513535 1.11491,0.277038 1.47979,0.472992 0.36488,0.195954 0.52029,0.608133 l -0.0473,0.02703 q -0.30407,-0.358123 -0.66219,-0.513535 -0.35137,-0.162168 -1.35817,-0.398664 -1.48654,-0.344609 -1.97305,-0.581105 -0.48651,-0.243253 -0.5811,-0.675703 z"
           style="font-style:normal;font-variant:normal;font-weight:normal;font-stretch:normal;font-size:13.8384px;font-family:AlgerianD;-inkscape-font-specification:AlgerianD;fill:#ffffff;stroke:none;stroke-width:0.264583px"
           id="path959" />
      </g>
      <path
         transform="translate(-0.34987585,-0.19270175)"
         sodipodi:nodetypes="ccccccc"
         d="m 23.830964,63.660193 115.596046,-9.772052 3.31659,10.951235 -1.55282,9.844039 -115.596052,9.772043 -3.26762,-10.338846 z"
         style="font-variation-settings:normal;opacity:1;vector-effect:none;fill:none;fill-opacity:1;fill-rule:evenodd;stroke:#ffffff;stroke-width:1;stroke-linecap:round;stroke-linejoin:bevel;stroke-miterlimit:4;stroke-dasharray:none;stroke-dashoffset:0;stroke-opacity:1;stop-color:#000000;stop-opacity:1"
         id="rect10-7"
         clip-path="url(#clipath_lpe_path-effect898)"
         inkscape:path-effect="#path-effect898"
         inkscape:original-d="m 23.830964,63.660193 115.596046,-9.772052 3.31659,10.951235 -1.55282,9.844039 -115.596052,9.772043 -3.26762,-10.338846 z" />
    </g>
  </g>
</svg>
