<?xml version="1.0" encoding="UTF-8"?>
<svg width="210mm" height="297mm" version="1.1" viewBox="0 0 744.09448819 1052.3622047" xmlns="http://www.w3.org/2000/svg">
 <g stroke="#dbe3e2">
  <path d="m363.82 165.61c-128.97 7.6968-246.8 104.73-277.44 230.57-32.259 121.74 19.339 260.24 124.67 329.82 99.106 68.287 238.16 71.927 339.58 6.3967 103.31-64.037 162.01-192.59 139.5-312.52-20.254-119.47-116.57-222.05-235.56-247.04-29.704-6.7131-60.366-9.081-90.756-7.2254z" fill="#dbe3e2" fill-rule="evenodd" stroke-linecap="round" stroke-linejoin="round" stroke-width="2.3822"/>
  <g fill="#93aca7">
   <path d="m288.49 733.3c-1.797 4.8709 5.3956 9.4112 8.0879 4.793-0.88509-2.6974-6.1147-4.9671-8.0879-4.793z"/>
   <path d="m273.05 723.6c-3.4417 2.7836 4.8363 0.0678 0.38672-0.15625-0.15497-0.0296-0.33699-0.13532-0.38672 0.15625z"/>
   <path d="m251.99 715.46c-2.2397 2.0201-0.30969 3.9777 1.9883 2.7559 2.6708-0.55952-1.464-2.8538-1.9883-2.7559z"/>
   <path d="m230.66 704.68c-1.7048 1.846-2.1703 5.6631 1.3242 3.9922 2.6154-0.3621 6.6163-3.822 1.248-4.0644-0.75986 0.0566-2.3004-1.0396-2.5723 0.0723zm36.719 1.8418c-4.1316 0.78323 0.2593 1.2878 0 0z"/>
   <path d="m476.75 690.64c-4.0367 1.8702-9.4992 3.5951-12.168 6.8184 5.9797 1.133 13.695 0.85677 18.283-3.4102-0.94368-1.8356-4.1756-4.5125-6.1152-3.4082z"/>
   <path d="m229.88 689.65c-3.8277 2.3924 0.96048 2.8094 2.3672 1.3008-0.66081-0.4962-1.6002-1.2873-2.3672-1.3008z"/>
   <path d="m336.22 681.91c-2.1047 0.22515-5.598 1.7228-1.4629 2.3379 1.9696 0.54615 4.8072 0.3095 1.4629-2.3379z"/>
   <path d="m497 681.48c-1.9326 2.0388-5.4095 4.8483-5.584 7.1836 3.0713-0.41803 8.1394-2.0815 8.1289-5.6152-0.58324-0.67404-1.7211-1.6869-2.5449-1.5684z"/>
   <path d="m198.72 673.05c-5.2308 2.6283 5.6636 1.2407 1.3535 0.0879-0.4297 0.0251-1.0122-0.75916-1.3535-0.0879z"/>
   <path d="m238.5 669.32c-4.2136 8.688 5.0869 16.129 12.785 17.871 3.0041 0.52972 8.665 2.5439 10.471-0.6836-3.1563-8.4454-12.962-10.549-19.557-15.516-1.1537-0.57047-2.5636-1.5461-3.6992-1.6719zm38.758 7.4707c-3.3465 0.99297-3.1932 3.3678 0.2207 3.3516 1.5366 0.33629 5.9857 0.26436 2.7051-1.8066-0.86521-0.45564-1.9446-2.2527-2.9258-1.5449zm32.707 9.7578c-2.128 0.53082-9.8023 2.3112-4.0879 3.4492 5.8272 1.4907 12.051 2.3603 18.176 1.2852-4.0813-2.6712-9.1444-5.2917-14.088-4.7344z"/>
   <path d="m476.73 664.08c-2.7858 1.1648-7.4205 1.8088-8.75 4.6836 5.1179 3.3896 14.114 4.2535 18.4-0.77148 0.55264-2.6754-4.7787-2.423-6.4629-3.5781-1.0549-0.0593-2.1398-1.0555-3.1875-0.33399z"/>
   <path d="m487.03 652.94c-2.9043 1.7008-8.9557 3.4374-8.4648 7.4082 4.814 3.6948 11.606-2.1309 9.0879-7.6758l-0.62305 0.26758z"/>
   <path d="m507.39 650.59c-4.5443 3.3344 4.7722 0.058 1.707-0.43164-0.5952 0.0204-1.4408-0.56038-1.707 0.43164z"/>
   <path d="m455.62 630.87c-3.2352 1.2216-5.7237 8.7195-0.39062 7.9434 2.6851-1.3542 1.378-6.6003 0.39062-7.9434z"/>
   <path d="m284.01 607.25c-1.7212 0.72915-4.2246 2.8025-0.83984 2.832 1.5166 0.40726 6.1578 0.0306 2.8203-1.9824-0.59925-0.25599-1.2893-1.5984-1.9805-0.84961z"/>
   <path d="m264.9 605.69c-1.7498 1.1528-4.3832 4.698-0.38281 3.9922 1.7359 0.12155 6.6456-1.3127 3.0039-3.1074-0.76478-0.3028-1.9288-1.7264-2.6211-0.88476z"/>
   <path d="m304.47 604.31c-3.0547 1.8045-4.4696 7.0265 0.68359 5.9512 2.4198 0.28672 7.1479-2.055 3.1973-4.2871-1.0839-0.52722-2.8435-2.776-3.8809-1.6641z"/>
   <path d="m277.09 599.25c-1.322 2.479 0.29727 3.2463 2.043 0.97461 1.7311-1.3881-1.3939-0.83494-2.043-0.97461z"/>
   <path d="m507.26 596.53c-2.4663 2.3325-6.6307 5.1584-8.4766 6.8379 5.423-0.95107 2.1934 8.3544-1.4004 4.0117-1.4915-0.96077 0.58222-4.3696-1.7266-1.8965-11.072 8.5212-26.01 15.829-29.865 30.404 4.8086 5.4664 13.761 7.0818 18.963 1.0039 4.7477-4.4936 9.1716-10.187 12.268-15.514-1.6694-1.864 1.6924-5.3422 3.1894-3.7148 3.3864-5.1311 8.5264-8.8345 12.699-13 1.8242-3.4012-2.3594-9.2091-5.6504-8.1328z"/>
   <path d="m394.01 593.44c-5.1319 3.7598-2.7411 11.174 2.3808 13.762 2.5072 1.5111 6.6732 4.3025 9.377 2.6738-2.1574-6.3999-7.4337-11.338-11.502-16.67l-0.25585 0.23438zm5.7422 9.2676c2.259 4.0587-5.2186 5.2542-5.2344 1.0371 0.0656-2.345 4.7914-3.2304 5.2344-1.0371z"/>
   <path d="m258.09 588.79c-2.1412 0.0121-6.4343 1.5497-2.5 3.0879 1.6825 1.2508 5.6174 1.4545 3.5176-1.7988-0.29129-0.42532-0.28012-1.6258-1.0176-1.2891z"/>
   <path d="m194.23 587.76c-1.1995 1.6146-5.3023 4.6233-3.582 6.5273 3.7805 1.2796 9.9738-3.3298 4.832-6.5039-0.38698-0.0707-0.91374-1.348-1.25-0.0234zm26.205 5.168c-1.656 1.9174-2.6819 5.4115 0.79492 3.4082 1.7852-0.58942 5.8298-3.4852 1.5547-3.7246-0.76086 0.0217-2.1082-0.88487-2.3496 0.31641z"/>
   <path d="m380.08 585.6c-2.0824 2.2514-4.3859 8.4475 0.85352 8.1816 2.9826 0.53946 9.8149-2.6351 5.5059-5.7676-1.6132-0.83711-4.9586-4.1788-6.3594-2.4141z"/>
   <path d="m277.39 583.76c-2.1539 6.5268 5.4774 14.041 11.66 12.254-1.6855-5.4483-6.6249-10.061-11.557-12.615l-0.10352 0.36133z"/>
   <path d="m513.18 583.05c-2.5491 0.67035-3.1909 2.6709 0.0781 2.2734 2.1687 0.47817 0.94452-2.8755-0.0781-2.2734z"/>
   <path d="m401.98 575.95c-2.0166 2.8508-6.7624 7.1024-4.502 10.604 5.94 1.1677 8.5286-7.1117 4.9902-11.15l-0.48828 0.54688z"/>
   <path d="m568.77 572.78c-3.868-0.14376-4.4344 1.7938-0.0508 2.2637 2.5292 1.0347 1.2599-2.4119 0.0508-2.2637z"/>
   <path d="m412.18 572.28c-10.975 1.556-12.541 18.742-3.8633 23.91 4.419-0.75305 5.8486-7.0092 6.5039-10.6-2.7298-3.8363 1.1545-10.627-2.6406-13.311zm18.775 14.814c-2.4496 1.7555-3.8162 5.6635 0.63281 3.9941 2.1231-0.18367 5.3331-2.5049 1.459-3.6348-0.62669-0.11815-1.6461-1.3534-2.0918-0.35937zm-4.2129 11.49c-2.4375 0.77599-7.9753 4.9495-2.2871 5.4668 2.8545 1.0668 7.4536-1.0825 4.166-4.3262-0.5432-0.4339-0.93687-2.2769-1.8789-1.1406z"/>
   <path d="m332.99 554.51c-5.1804 5.1702 2.3244 13.538 7.877 9.959 0.16367-4.5484-4.5233-7.7136-7.4473-10.609l-0.42969 0.65039zm61.736 12.266c-1.9677 1.7511-4.0628 6.3065 0.50781 4.5352 1.9548-0.28412 6.68-2.8035 2.5801-4.1699-0.89153-0.13648-2.5336-1.754-3.0879-0.36524z"/>
   <path d="m636.38 551.72c-2.5599 1.8135-5.7697 8.5254 2e-3 7.3691 5.3572-0.51661 3.2252-6.3291-2e-3 -7.3691z"/>
   <path d="m609 548.74c-2.3452 1.4996-2.9582 4.4943 0.69141 3.5273 2.2028 0.0572 4.4824-1.7394 1.084-2.9121-0.5153-0.11617-1.3266-1.1762-1.7754-0.61524zm19.801 1.3418c-2.1375 1.0526-6.5183 5.7889-1.5137 6.002 2.7747 0.85553 7.8512-1.3506 4.1328-4.4297-0.73583-0.4289-1.704-2.7771-2.6192-1.5723z"/>
   <path d="m242.8 545.08c-1.3716 1.0838-5.4442 5.6464-1.0391 4.6895 3.6131-0.28303 4.7287-3.4269 1.0391-4.6895z"/>
   <path d="m449.89 543.93c-5.1389 2.093-10.539 11.038-3.7812 14.291 4.7273 0.91242 10.901-3.4064 11.148-8.1582-1.0218-2.8054-4.6161-6.2896-7.3672-6.1328z"/>
   <path d="m237.27 534.5c-4.3372 3.8426 2.1201 6.5981 3.8262 2.8535-0.34648-1.3562-2.9274-3.9208-3.8262-2.8535z"/>
   <path d="m114.75 531.62c-5.3657 0.78249-7.0575 7.2766-3.6719 11.295 1.9489 2.8532 5.0927 7.4598 8.8867 6.8867 0.77604-5.6439-1.1737-11.731-3.2051-17.002-0.46514-0.53784-1.1978-1.5332-2.0098-1.1797z"/>
   <path d="m258.74 529.22c-8.2138 3.0119-6.0184 13.871-1.9492 19.523 2.2328 2.9341 5.9039 9.0131 10.234 7.1328 3.238-3.9819-0.2016-10.128 4.4238-13.18 3.1869-2.881 5.0604-9.2526-0.17968-11.031-3.8948-1.8032-8.2925-2.2868-12.529-2.4453z"/>
   <path d="m247.95 519.93c-2.5254 0.95293-5.0328 4.0714-0.71289 3.9844 1.8865 0.41672 7.471-0.0665 3.7949-2.5645-0.89194-0.42756-2.0646-2.3496-3.082-1.4199z"/>
   <path d="m261.49 517.11c-1.7365 1.5806-3.8838 6.2195 0.47461 5.0801 2.0092 0.014 7.5305-2.3619 3.4102-4.1621-1.076-0.28258-3.0759-2.208-3.8848-0.91797z"/>
   <path d="m119.54 515.15c-1.7388 0.88025-5.0554 4.2267-1.0742 4.459 1.7221 0.58944 7.9324 0.19577 4.4043-2.5644-0.93873-0.55413-2.2375-2.5875-3.3301-1.8945z"/>
   <path d="m549.6 503.62c-2.3188 1.404-7.8814 2.5151-7.6328 5.8476 2.6917 2.3223 9.0398 3.6855 11.127 0.16602-0.10418-2.3316-1.9491-4.5772-3.4941-6.0137zm62.176 9.5156c-1.1867 5.2524 5.7494 11.835 9.8809 6.8633-0.33196-4.5394-6.2954-5.9488-9.8906-7.4863l0.01 0.62304z"/>
   <path d="m603.49 487.09c-3.5133 1.5221-5.7509 7.3384 0.0703 6.1543 4.666-0.0277 2.3173-5.3568-0.0703-6.1543z"/>
   <path d="m306.99 475.99c-2.0232 0.1301-4.6276 1.2685-1.082 2.0527 2.3471 1.2464 4.155 0.30782 1.8164-1.8457l-0.22265-0.29101-0.51172 0.084z"/>
   <path d="m659.19 471.06c-1.4926 2.7261-4.8698 6.9802-3.9024 9.4805 3.1318-0.98493 8.6271-4.6527 6.5488-8.3223-0.70272-0.51731-1.8538-1.2894-2.6465-1.1582z"/>
   <path d="m305.18 468.13c-1.717 0.56193-6.9017 3.1712-2.5723 3.916 2.0701 0.86355 6.8157 0.13211 4.0098-2.9238-0.41665-0.386-0.68196-1.736-1.4375-0.99219z"/>
   <path d="m499.19 457.28c-1.9273 0.84289-5.8974 4.6214-1.3047 4.543 2.9694 0.776 4.7074-2.2385 1.9082-4.1855l-0.375-0.43946c-0.0664-0.0657-0.10538-0.17801-0.22851 0.082z"/>
   <path d="m594.94 451.06c-2.3514 1.1836-3.8978 5.101 0.12891 4.4121 4.1049 8e-3 1.6908-2.9393-0.12891-4.4121z"/>
   <path d="m439.12 446.69c-1.0959 1.5977-4.3422 4.5833-3.2168 6.0762 3.4605 0.31697 10.12-4.6338 4.0898-6.7559-0.40854-0.34288-0.59718 0.37972-0.87305 0.67969z"/>
   <path d="m96.703 441.25c-1.1639 1.7048-4.1398 6.9137-1.2188 7.8242 2.3638-1.3419 2.2525-7.6555 1.2188-7.8242z"/>
   <path d="m666.62 431.61c-5.4112 3.9921 0.40985 12.438 5.1797 13.139-0.31655-4.7228-3.2632-9.1735-5.1797-13.139z"/>
   <path d="m612.36 411.64c-2.2059 8.3892 9.6465 13.793 7.418 22.461-1.4427 6.1069-9.8197 5.3548-11.291 11.207-11.922 23.293-2.2209 53.209 17.392 68.887 7.4555 2.1342 15.297-2.598 17.297-10.049 6.2412-15.68 3.5798-34.528 13.957-48.561 3.5663-8.8182-3.0438-18.598-10.85-22.971-11.246-7.0222-24.825-11.052-33.924-20.975z"/>
   <path d="m473.99 401.72c-2.7026 0.59074-6.5564 2.4604-1.3262 2.5645 1.037 0.0957 8.5658 0.78055 4.9785-1.541-1.2014-0.18638-2.4449-1.3314-3.6524-1.0234z"/>
   <path d="m665.38 395.73c-3.4048 6.2301-2.287 16.126 3.8711 20.043 1.751-5.9934 0.23625-12.935-1.707-18.719-0.35746-0.46015-1.669-2.2771-2.1641-1.3242z"/>
   <path d="m458.17 390.79c-1.2107 1.7176-0.9658 4.3674 1.5332 2.7754 1.5132-0.45837 3.7665-2.4465 0.5664-2.4863-0.6844-0.12625-1.4176-0.28362-2.0996-0.28906z"/>
   <path d="m508.29 388.5c-1.4359 1.6213-5.813 7.2778-0.86329 5.334 2.1129-0.79822 5.7445-2.1152 6.0078-4.3184-1.4372-0.65928-3.7172-1.4927-5.1445-1.0156z"/>
   <path d="m159.95 365.06c-1.5455 0.66344-6.5365 3.3417-2.4375 3.5254 1.7453 0.44197 6.7721-0.3409 3.3789-2.8144-0.30333-0.0991-0.53187-0.81709-0.94141-0.71094z"/>
   <path d="m551.54 362.56c-4.2497 4.5581-1.779 13.944 5.3457 12.115 4.9937-1.8664-0.099-7.7456-2.5078-9.9336-0.82716-0.57045-2.0751-2.3572-2.8379-2.1816z"/>
   <path d="m625.3 355.75c-1.9286-0.0814-7.5392 0.93409-3.7324 3.3379 1.509 1.0648 5.0407 3.5606 6.4375 1.75-0.2618-1.6383-0.74033-5.2098-2.7051-5.0879z"/>
   <path d="m557.07 350.21c-2.3012 2.3122-3.6247 8.4788 1.457 7.5566 3.5407 0.35364 6.6301-3.845 2.3633-5.8144-1.0454-0.46267-2.9204-2.6429-3.8203-1.7422z"/>
   <path d="m162.66 347.94c-2.2836 2.5196-7.7622 7.5977-3.8418 10.887 3.2454 1.921 12.123 1.7639 11.629-3.4766-1.4241-3.3834-4.8708-5.5201-7.7871-7.4102z"/>
   <path d="m229.37 346.45c-2.4921 3.4268-7.8606 9.527-3.498 13.404 4.5208 2.2308 13.457 1.3454 14.691-4.416-1.426-4.7032-7.0657-7.3553-11.193-8.9883zm28.533 11.182c7.605 4.3496 1.8018-6.8099 0 0zm10.232-0.92773c-4.0135 0.91314-4.8022 2.7082-0.5332 3.4258 1.8907 0.48219 3.1129-3.8925 0.5332-3.4258zm-5.0606 4.209c0.27365 2.0213 2.852 3.8472 4.0234 4.4844-1.3882-1.4931-3.4638-2.465-4.0234-4.4844z"/>
   <path d="m476.14 345.94c-5.3275 4.319-5.2423 14.7 0.4961 18.236 2.0478-5.472 0.75605-11.729 0.38867-17.422-0.17633-0.25075-0.4932-1.389-0.88477-0.81445zm49.605 6.0547c-3.4264 2.4916 1.0762 3.3905 2.6328 1.7773-0.55132-0.71264-1.8684-2.2829-2.6328-1.7773z"/>
   <path d="m383.96 343.8c-2.9964 3.2779-5.4826 10.229 0.1582 12.23 5.4409 1.8263 14.519 2.4505 17.895-3.1016-2.1834-6.2316-9.8668-7.3489-15.574-8.3867-0.82867-0.19035-1.6904-0.52537-2.4785-0.74219z"/>
   <path d="m305.02 344.84c-4.1809 3.2283-1.4827 10.679 3.8789 8.7344 2.8133-2.7869-1.647-6.9991-3.3945-9.3633l-0.48438 0.62891zm22.412 3.0254c-3.2062 1.7242-9.3145 6.5138-5.2617 10.451 3.746 3.0265 11.226 5.9349 15.156 2.0898-0.37523-5.2678-6.2915-9.7825-9.8945-12.541z"/>
   <path d="m616.25 336.62c-5.4064 2.2477-0.55589 8.7621 3.084 5.6133 0.26565-1.7532-1.5796-6.0428-3.084-5.6133z"/>
   <path d="m418.25 334.82c-1.651 1.1782-3.0802 3.3053 0.2461 2.1348 4.2918-0.44446 2.3215-2.532-0.2461-2.1348z"/>
   <path d="m429.69 332.11c-1.5358 2.517-1.0148 9.2083 3.2051 6.5723 3.6106-1.9844-1.6464-7.5992-3.2051-6.5723z"/>
   <path d="m621.5 331.94c1.4179 16.653-7.6792 33.977-0.0156 49.93 3.8926 7.9198 13.499 14.981 22.305 10.168 10.531-6.9539 10.899-21.991 8.9316-33.189-1.826-10.852-9.1494-22.122-20.931-23.413-3.5774-1.0448-7.244-2.1128-10.35-4.245l0.0605 0.75z"/>
   <path d="m184.73 322.08c-1.945 1.5473-6.0638 3.5498-6.1328 5.8477 3.446 0.66343 8.8628 0.30222 10.691-2.8848-0.93144-1.3034-3.04-3.1153-4.5586-2.9629z"/>
   <path d="m479.84 313.82c-2.893 2.6725 0.85163 5.9286 3.2754 3.5469-0.0958-1.5359-2.1829-3.0579-3.2754-3.5469z"/>
   <path d="m396.31 308.31c-5.6283 4.1825 1.2948 9.7599 6.041 9.6348 3.9208 0.93016 8.4226-2.1105 7.332-6.4609-4.1712-0.55336-10.424 0.93355-12.969-3.5274l-0.4043 0.35352z"/>
   <path d="m437.21 305.98c-2.2124 0.51869-4.9405 2.2079-0.87891 2.3848 2.3054 0.70226 5.2897-0.21246 1.9336-2.2695-0.3119-0.25708-0.56015-0.72534-1.0547-0.11524zm45.469 2.2285c-2.316 1.3425-1.7028 3.0689 1.041 2.2637 3.214-0.23722-0.21704-1.7223-1.041-2.2637z"/>
   <path d="m522.58 293.56c-2.2017 0.99816-3.8007 3.7312-0.19922 3.4512 2.0529 0.40407 5.5176-0.75533 1.9727-2.5801-0.51946-0.19175-1.2292-1.3748-1.7734-0.8711z"/>
   <path d="m524.25 283.37c-1.3753 1.4793-1.7174 3.68 0.80468 2.5898 1.8162-0.2249 5.3743-2.3883 1.3633-2.5879-0.60242 0.0942-1.8638-0.81383-2.168-2e-3z"/>
   <path d="m467.96 270.49c-4.0547 3.0669-5.2346 10.127 0.63672 12.178 3.325 1.5745 10.774 3.8654 12.467-0.78711-0.80844-5.1558-5.0844-9.4368-10.262-10.059-1.0307-0.0855-2.0935-1.6746-2.8418-1.332zm52.605 1.1074c-3.296 0.70228-7.2129 2.532-10.346 0.42383-4.6078 3.5994-5.8812 11.61 0.53125 14.342 4.4111 3.367 14.483 2.5741 13.326-4.6855-0.70042-3.4067-1.6121-6.8487-2.6328-10.045-0.27882-0.1049-0.59061-0.0542-0.87891-0.0352zm-27.969 15.389c-2.9847 8.9777-12.454 14.773-21.809 13.068-11.956-0.82571-23.557-8.6252-35.604-5.0195-7.9038 3.8892-9.0589 13.924-13.508 20.703-5.6607 10.533-8.7526 24.364-1.1875 34.818 4.1294 5.0469 0.55154 12.099-0.15625 17.912-1.2512 7.9067-6.2712 17.483-0.66992 24.756 6.8738 6.0483 16.249 1.6924 24.049 4.2774 6.7414 2.1921 9.9372 9.8584 16.379 12.141 5.0559-2.7576 5.8162-9.0292 6.9141-14.139 4.124-9.9431 19.484-9.0229 25.492-1.4648 3.8377 5.7654-3.3157 10.948-8.3144 12.248-6.8092 1.2616-8.2343 8.9742-5.0449 14.186 5.194 11.309 14.404 22.165 12.621 35.404 1.6273 14.693 16.893 21.31 29.076 25.254 4.1418 1.4302 8.3601 2.7189 12.254 4.7656-2.0825 7.8472-2.2694 19.715 6.4746 23.461 9.1851 0.58961 14.242-9.6876 15.477-17.521 3.0688-11.03 2.5537-24.405 11.086-33.078 5.8522-4.9857 13.911-0.78602 19.193 2.6094 13.527-2.3742 17.696-17.794 16.926-29.404-0.30373-7.8151-1.7105-15.68-4.877-22.863 3.205-4.0641 5.6334-11.261-0.44726-13.998-8.2336-4.4457-19.974-8.1022-21.354-18.982-0.12296-4.6016 0.33949-9.2931-3.3516-12.848-3.6534-4.4253-7.7442 2.3672-9.8379 5.0352-3.3562 4.3496-6.0314 9.743-11.092 12.4-14.355-5.0138-20.911-20.053-24.553-33.64-3.5992-12.817-8.4015-26.902-20.701-33.897-8.2104-6.6626-6.5462-19.053-13.301-26.518l-0.13477 0.33398zm-38.76 94.955c5.7166 0.47681 0.57912 8.861-3.0371 5.457-1.9702-2.6343-0.33241-5.8403 3.0371-5.457z"/>
   <path d="m163.61 263.88c-7.735 3.0409-12.758 11.325-14.594 18.867 4.1786-4.7073 6.3814-11.052 12.523-13.729 1.4644-0.89589 4.8859-4.2149 2.0703-5.1387z"/>
   <path d="m224.67 252.06c-7.1298 0.38127-11.3 7.7552-16.09 12.215-6.5842 6.6583-12.205 16.661-22.287 18.197 0.8129 3.5307 1.6469 11.302-3.6035 11.604-4.5689-2.687 1.9035-8.9797 1.4258-11.695-7.4529-1.1248-11.143-9.6574-14.572-14.414-24.075 20.187-37.013 49.851-55.638 74.638-6.0752 14.173-15.581 27.799-16.411 43.602-0.13858 4.2427 2.733 4.5671 4.7852 1.1816 1.8664-1.8714 6.6834-6.7559 8.1211-2.0449-2.7887 8.5415-8.9288 15.867-11.67 24.561-2.6223 6.6745-4.2997 14.809 0.06636 21.074 8.9272 28.565 19.75 56.86 25.051 86.309 12.175 16.782 14.715 39.203 29.221 54.43 4.1306 4.2763 10.749 5.3553 16.107 2.8691 10.324 8.0508 25.578 14.406 38.053 7.6094 5.7344-3.5832 7.5211-10.492 8.7578-16.689 7.9884 9.6047 16.644 22.61 12.404 35.666-2.364 6.355-8.9551 9.8982-15.316 11.023-5.2707 12.933 8e-3 27.746 10.598 36.336 11.592 9.8954 25.912 16.569 40.189 20.75 4.8877-1.8479 2.2585-9.3609 6.8242-10.963 5.19 1.2965 5.5161 8.7243 10.07 11.273 11.727 10.628 28.515 5.8704 42.385 3.8203 4.0605-0.5499 8.1698-0.9406 12.27-0.67578-4.8972-4.6676-13.328-8.5497-13.543-16.221 1.8356-5.9466 9.8875-6.877 15.197-6.1856 7.2413 1.2931 9.9966 9.5565 16.074 12.35 4.3874-0.62561 4.7496-7.8384 8.875-6.9394 4.4607-1.8122 7.5347-9.8114 13.125-7.5371 1.093 0.49738 1.2725 3.1472 2.1621 0.59766 13.843-18.225 35.428-27.837 53.927-40.224 6.4123-6.8125 0.62654 4.9531 2.2585 8.566 0.66369 10.473 18.182 12.569 19.9 1.6621 1.5857-4.3852-4.1799-11.298 3.2988-10.57 8.5773-1.1909 16.519-9.0179 13.982-18.256-1.9396-8.6475-7.3614-18.676-16.621-20.709-6.3702 2.3815-4.4491-0.38168-1.9258-4.3945 1.0038-4.5617-6.3058-4.6377-9.2734-5.3858-5.169-1.4451-11.771 0.55867-16.436-2.4892-1.6756-4.2583 4.9947-4.6266 7.5688-5.694 5.4147-0.014 2.888-6.6286 1.5796-9.8372-6.9262-12.3-24.299-14.462-36.553-9.9004-6.8592 2.3705-11.502 8.18-13.275 15.007-2.3918 6.3852-3.2966-0.41309-3.5666-3.7958-3.9048-9.3021-15.024-12.06-22.9-16.99-4.1986-1.9338-11.126-6.7632-7.0958-11.938 4.3314-4.7831 10.948-6.1972 16.93-6.6035 5.7979-1.1289 3.8248-8.2776 0.92921-11.452-5.4446-6.7678 3.1036-1.2502 6.4516 0.34409 11.909 5.0392 27.398 5.9645 38.072-2.25 5.8749-5.7421 0.32837-14.171-4.3262-18.686-5.2153-1.8078-11.544-2.1881-16.662-5.1133-8.6221-3.8021-18.351-12.908-14.318-23.223 3.332-7.1029 10.599-13.777 18.969-12.09 16.043 1.1046 30.668 12.118 47.01 9.0625 7.7582-1.9809 11.496-9.918 14.152-16.629 2.9772-2.207 8.2107-8.0665 2.4648-10.547-12-6.4055-28.575-6.1714-37.127-18.111-1.0622-1.8438-1.2155-4.2449-3.9551-3.1973-7.3451 0.64535-15.601-4.0742-22.215 0.29687-4.064 4.5699-0.44755 12.28-6.3613 15.682-10.289 6.7528-23.448 2.5794-34.75 1.8438-4.1653 0.12318-11.193-2.3396-13.539 2.2539-0.19254 3.5969 1.1785 7.305 4.6602 8.6133 3.9256 4.9619-3.3402 9.9251-4.8789 14.248-2.1616 2.9339-0.23274 6.5732-0.0563 9.2148-5.6339 11.128-20.225 8.5944-29.508 14.311-8.4209 6.5807-3.2947 18.332-0.0918 26.381 1.388 5.4817 6.5995 11.704 3.6875 17.418-4.7024 3.2929-9.9996-2.0256-14.07-4.2285-5.2204-5.5673-12.264-1.3739-18.461-1.1602-5.2481-0.69499-3.3036-7.779-3.4941-10.443-13.608 0.73879-24.935-10.407-38.447-9.4336-4.9188 2.8241-6.7107 2.6153-4.0488-2.9746 4.2579-8.1301 15.251-8.6973 21.283-14.416-4.556-3.5237-10.924-4.367-14.408-9.4492-10.434-11.576-6.0349-29.869 3.9258-40.268 7.1-8.2322 19.612-14.032 29.998-8.4688-0.54314 5.4489 4.54 9.7143 9.8476 7.7773 8.2661-1.2798 14.991-6.8773 22.613-9.627 6.8132-0.46312 14.147-0.55152 20.965 1.4102 0.69905-4.8044 5.0637-11.266 10.523-8.0059 4.8289 2.4571 10.292 9.8968 15.844 4.6797 4.56-5.6426 12.353-9.8252 12.348-18.156 1.0562-11.094-11.72-18.071-21.387-14.35-3.3905-0.46337-5.2589-5.561-6.5312-8.8926-2.974-9.6066 6.1544-16.934 13.373-21.352 5.4884-4.2646 15.572-8.0013 14.478-16.441-0.51243-2.1495-1.8766-4.2471-3.2285-5.7891 1.6026 5.397-9.2968 4.4127-6.3457-0.80859 0.23957-2.0853 4.5678-2.0576 2.084-3.7246-7.4053-7.9465-7.5566-20.871-0.46875-29.057 2.2422-3.2634 6.0209-5.8847 8.3828-8.4199-11.15-14.964-31.26-18.216-48.779-18.926-7.1808 0.14242-15.018-0.23351-21.732 2.2695-15.142 13.856-38.043 12.689-53.729 25.449-6.4052 5.2824-7.3451 14.136-7.875 21.508-8.0331 9.0737-17.059 19.2-29.393 21.879-8.9546 1.5654-13.895-9.1935-12.535-16.501 5.4675-14.549 8.9353-31.561 21.342-42.055 1.948-1.7249 5.3139-1.7651 4.7578-5.0664 0.36961-3.4802 3.4995-6.9385 2.4766-10.229-0.73891-0.29929-1.5608-0.2961-2.3457-0.28906zm101.25 8.9238c3.3657 0.68344 6.0964 6.1254 1.6426 7.3867-3.8827 1.8297-8.6092-3.0347-4.8887-6.2344 1.0332-0.83164 1.8977-2.7656 3.2461-1.1523zm130.98 9.25c-2.4225 1.7212-1.2421 4.4092 1.5215 3.6016 4.091-0.0312 0.69624-3.3025-1.1309-4.0664l-0.39063 0.46485zm-64.783 25.727c-2.3113 2.4616-7.6135 9.3723-1.8574 10.635 5.0664 1.1782 9.2575-4.9415 4.8594-8.7207-0.8196-0.60006-2.0872-3.5749-3.002-1.9141zm13.967 29.785c-1.5238 1.145-5.1096 5.0442-0.76562 3.8867 1.7392-0.10976 7.1923-2.0602 3.084-3.6562-0.71538-0.15458-1.7784-1.4802-2.3184-0.23047zm-220.6 7.2207c8.556 16.894 20.835 34.553 18.219 54.467-0.49073 4.2609-2.462 8.3399-4.0937 12.08 9.2096 20.984 26.648 38.781 29.701 62.203 1.3094 10.082-4.2274 20.065-12.863 25.164-7.7118-5.6666-18.896-6.4577-24.92-14.309-2.7586-5.3705 3.0411-10.016 7.084-12.529 0.61465-19.585-1.2173-40.237-11.715-57.34-2.0191-4.4055-7.3675-0.38891-11.16-1.4746-7.4656 0.417-15.547-5.5957-14-13.678 1.682-10.684 11.068-17.769 14.914-27.582 1.8588-4.0193 6.0114-11.897-0.33594-13.83-9.1863-0.8022-3.0364-2.7084 1.7109-5.3496 4.7816-2.4893 3.8494-8.2282 3.7891-12.672 1.2233 1.6165 2.4466 3.2331 3.6699 4.8496zm-50.34 5.6699c3.1493 2.8909 1.0955 8.8404-3.541 7.9024-4.3607-0.17371-4.1159-5.8666-0.75977-7.3711 1.5522-0.76728 3.4212-3.4738 4.3008-0.53125zm83.105 2.6113c3.7465 1.2618 6.2429 7.724 1.0098 8.7461-4.7195 1.281-7.1344-4.804-4.0078-7.8945 1.0589-1.5749 1.2758-2.6296 2.998-0.85156zm-5.1406 3.082c1.7606 3.8151-4.303 6.4275-4.9922 1.8887-1.0507-2.9614 5.7724-6.1057 4.9922-1.8887zm160.79-0.80664c-1.7181 2.0258-3.3247 6.8574 0.8789 4.1621 1.9655-0.67244 5.0365-3.8652 1.0996-4.373-0.6413-0.0285-1.8126-1.0132-1.9785 0.21094zm-258.79 13.615c4.9415 0.83692 12.595 5.6037 8.6074 11.312-3.1458 4.8551-13.192 5.2376-13.4-1.9219 0.0893-3.4061 1.4531-8.5738 4.1368-9.5892l0.65616 0.1986zm76.367 7.2852c-1.9894 0.64298-6.2978 3.8272-1.7109 3.9297 3.4558 0.63897 4.2738-1.991 1.7109-3.9297zm105.96 14.957c3.0585 2.1519-0.30451 7.9048-3.25 4.6152-1.3557-2.0284 0.37498-7.4098 1.5131-6.5841 0.57896 0.65629 1.1579 1.3126 1.7369 1.9688zm-45.5-0.93164c6.1669 2.9617 11.699 10.884 6.9531 17.41-2.7921 5.0646-12.472 8.2786-15.096 1.5312-1.7455-7.2149 3.1259-13.999 6.4023-20.01l1.7402 1.0684zm37.082 10.123c4.7885-0.36336 2.7451 8.7054-1.6113 5.5098-3.0053-1.6788-2.107-5.78 1.6113-5.5098zm-168.51 7.9219c4.5082 2.4018 1.9297 9.8886-3.166 8.3848-4.5168-1.9354-0.67189-7.5881 1.582-9.7227 0.528 0.44597 1.056 0.89193 1.584 1.3379zm177.77 1.6113c4.2616 6.9166-8.4524 5.6032-3.2637-0.39844 1.978-2.3736 1.8534-2.7788 3.2637 0.39844zm176.5 25.975c-2.5937 2.0393-1.3167 4.3049 1.5801 2.7207 2.9927-0.88315-0.45567-2.1064-1.5801-2.7207zm-238.56 0.75586c5.1268-1.0738 4.9916 10.08-0.74805 9.0469-4.2289 0.0235-7.9359-6.6408-2.8887-8.4863 1.1532-0.44753 2.4105-0.54487 3.6367-0.56055zm174.39 31.529c-1.2719 0.94043-4.8734 4.7823-0.9414 4.3398 3.7096-0.0908 3.9388-2.32 0.9414-4.3398zm-110.93 7.9863c-7.2835 4.4919-3.4273 14.588 2.0703 18.998 1.3931 1.4588 5.598 4.2665 3.4199 0.0684-1.9724-4.7472-5.8686-9.372-3.6973-14.709 0.2292-1.6427 1.0472-4.8625-1.793-4.3574zm-165.09 5.1309c5.195-0.69696 2.2166 4.6418 0.19922 6.8125-5.1874 3.2981-6.7108-6.9444-0.19922-6.8125zm178.95 0.13867c4.7612 0.26635 1.5539 7.668-1.6953 4.1406-1.5054-1.4951-0.76133-4.5468 1.6953-4.1406zm-76.748 16.041c4.4779 0.87181 2.5968 7.3971-1.5312 6.2734-3.9895-0.66228-1.1994-8.094 1.5312-6.2734zm135.9-0.10937c3.9062-0.63673 4.7342 5.9838 0.40429 5.0469-3.7258 0.22939-6.4438-5.0345-0.40429-5.0469zm-170.07 1.3496c3.2786 1.6264 0.77262 6.5242-2.4258 4.4023-3.7678-1.5471-0.35663-6.5062 2.4258-4.4023zm19.75 3.5762c1.0561 4.8489-7.5485 9.0408-8.7891 3.3086 0.6992-3.9903 5.7995-4.6962 8.7695-6.2891 7e-3 0.99349 0.013 1.987 0.0195 2.9805zm40.5 10.285c5.3753 0.0671 2.6917 9.2106-1.7852 6.2305-1.9842-2.3325-3.6351-6.9386 1.7852-6.2305zm57.666 8.0976c5.5531 2.9626 8.491 11.143 3.1973 15.791-3.7578 4.0126-12.774 7.0216-15.758 0.72461-1.1606-6.221 3.4649-12.587 8.2754-15.957 1.36 0.0448 3.1861-2.164 4.2852-0.5586zm252.36 9.3984c-7.4451 12.322-12.72 28.374-6.9238 42.354 3.6391 7.9143 13.748 10.354 21.492 8.5625 9.4484-7.5758 4.707-20.557-0.0865-29.319-3.2662-6.787-7.2169-13.494-8.392-21.044-1.6009-0.60893-4.9987-2.4282-6.0898-0.55273zm-244.76 17.396c2.0922 3.0042 3.1536 10.007-2.1836 9.9453-5.3769-0.42265-6.0402-7.9773-1.5449-10.199 1.8736-0.95297 2.9014-3.2812 3.7285 0.2539zm74.613 13.646c3.8352-0.0266 3.4333 6.0263-0.43554 4.8574-2.1752-0.84013-2.3582-4.837 0.43554-4.8574zm-5.8398 0.73828c4.6328 0.18473 4.314 6.8079-0.0137 7.1016-5.0918 0.89321-3.3916-8.2871 0.0137-7.1016zm10.619 3.0977c3.869-0.52561 4.2604 5.4159 0.25195 5.2793-3.5228 0.44771-3.3462-5.9293-0.25195-5.2793zm3.8301 7.1308c2.3329 3.7304-4.7654 5.3528-4.6973 1.1328-0.11084-2.1622 4.4652-3.5964 4.6973-1.1328zm85.779 6.4316c-3.744 1.13-5.4614 6.1565-0.17382 5.6387 3.7032 0.71156 3.6422-3.3454 1.1992-5.0664-0.35706 0.0641-0.54894-1.3465-1.0254-0.57226zm-11.678 5.5254c-3.4325 1.5757-7.543 8.1961-1.7402 9.3965 6.315 1.4391 4.0932-7.218 1.7402-9.3965zm-55.055 0.28906c4.7814-0.40178 9.5742 0.94233 11.266 5.8652 2.0652 4.3661-3.8013 6.2058-6.9883 4.5606-4.3614-0.19362-14.929-7.0394-7.0664-10.176 0.91533-0.19631 1.8554-0.24542 2.7891-0.25zm-135.86 2.998c3.5142 2.8393 6.5686 10.257 0.83203 12.42-4.831 1.8902-9.3498-4.0275-6.5547-8.3301 1.2594-1.8122 3.8294-8.0195 5.7226-4.0898zm156.64 4.5176c-0.40931 3.1861-3.1027 9.6832-7.1348 6.707-3.5433-4.8364 2.8748-9.825 7.5373-9.9294 1.136-0.53506-0.56916 2.6535-0.40249 3.2223zm-206.62 6.7402c2.9574 3.5741-3.7298 6.6139-4.9746 2.5-0.9778-2.5676 4.2658-5.0246 4.9746-2.5zm198.96 2.0508c5.2509 0.21756 0.0689 7.9543-2.3965 3.5898-0.55723-1.5774 0.35914-4.0098 2.3965-3.5898zm-176.78 13.75c3.6743 3.3558 8.7578 11.073 2.5898 14.516-5.4367 2.75-15.037-2.2125-11.645-8.918 1.7974-2.9417 5.7469-6.6012 8.6282-6.0588l0.4265 0.46115zm207.68 14.52c-1.5847 0.96321-5.5771 4.7775-1.2774 4.1816 3.1582 0.012 4.071-2.5784 1.2774-4.1816zm-51.727 5.2617c-2.7582 0.87144-5.6972 5.4454-0.67187 4.5547 2.7533 0.28024 2.5741-5.3261 0.67187-4.5547zm-13.318 9.9199c-4.8133 1.1637-7.483 8.1297-1.6602 9.877 4.0401 2.3159 5.9621-2.8467 4.0859-5.918-0.42513-1.1694-1.3164-3.985-2.4258-3.959zm-124.84 0.66602c4.3593-0.80909 5.0465 7.63 0.25586 5.4512-2.4216-0.91694-3.9293-5.1365-0.25586-5.4512zm-10.717 9.0644c5.693 0.31875-0.27458 8.7555-2.4922 3.416-0.61825-1.6704 0.60655-3.6706 2.4922-3.416zm45.23 2.8164c3.2823 0.24884 5.0408 5.5552 0.95117 5.9297-3.5715 0.12413-4.221-4.3868-3.7793-7.0449 0.94271 0.37175 1.8854 0.74349 2.8281 1.1152zm-85.334 2.8398c3.629 0.0433 7.2105 5.9719 2.1602 6.8027-4.0978 0.0529-5.1572-4.9762-5.7246-8.0684 1.1882 0.42188 2.3763 0.84376 3.5644 1.2656zm191.16-0.2793c-1.6286 1.8028-5.6446 4.4479-4.8242 6.9805 4.12 1.1767 8.3253-4.1857 4.8242-6.9805zm-144.53 0.98047c2.9909 2.2665 4.0574 8.4141-0.75586 9.0606-4.4424 1.4982-9.7342-4.3517-5.0918-7.6055 1.5634-0.90222 4.7467-3.7046 5.8477-1.4551zm156.92 10.801c-1.7745 0.30989-6.7105 2.082-2.582 2.8359 2.3953 0.76634 4.68-0.54605 2.582-2.8359z"/>
   <path d="m337.14 243.72c-2.3707 1.4617-7.3332 3.3431-7.627 5.6621 4.3642 0.83517 10.402 0.75329 13.594-2.4805-1.3272-1.5314-3.9754-3.8727-5.9668-3.1816z"/>
   <path d="m564.01 240.96c-1.4326 3.6808 4.6399 5.3334 5.7461 2.4629-1.1973-1.3394-4.686-3.3737-5.7461-2.4629z"/>
   <path d="m256.58 238.84c-1.8491 0.18096-5.9008 1.9322-2.1387 2.8184 2.7201 1.0258 3.811-0.37392 2.1387-2.8184z"/>
   <path d="m317.07 227.22c-3.2076 1.6625-5.1992 7.5439-0.0215 7.6934 3.3406 1.158 6.4364-2.2308 3.1426-4.9062-0.87956-0.7883-2.0222-3.1356-3.1211-2.7871zm60.324 8.8867c-5.5883 0.40796-1.8804 2.0032 2.0449 1.627-0.60842-0.51536-1.2778-1.4518-2.0449-1.627z"/>
   <path d="m338.05 223.07c-1.3012 1.1205-3.9625 5.0424-0.36133 3.7734 2.0362-0.54813 4.5708-2.1462 0.36133-3.7734z"/>
   <path d="m348.76 217.14c-2.9988 1.9722-7.0952 7.9186-1.1387 9.1074 5.2098 1.2379 12.846 2.0637 16.676-2.3008-2.6235-5.2291-10.357-7.6186-15.537-6.8066zm30.803 9.9629c-2.2975 1.283-5.3753 6.1378-0.7461 6.3164 2.6177 0.87256 6.8167-1.4196 3.6035-4.1289-0.78424-0.5304-1.8961-2.8869-2.8574-2.1875z"/>
   <path d="m451.41 214.01c-3.0627 2.2004-9.8425 5.9224-6.7656 10.385 6.706 4.6675 16.96 5.7536 24.156 1.6035 2.2271-3.8893-3.4344-7.3368-6.0195-9.5195-3.5048-1.9449-7.5593-2.3085-11.371-2.4688z"/>
   <path d="m512.65 195.37c1.0082 4.0304 8.1694 8.601 10.916 4.3242-2.0662-3.0748-8.5119-4.638-10.916-4.3242z"/>
   <path d="m99.768 583.16c-0.50668 4.076 2.8212 9.3681 4.6563 13.514 1.838 3.5321 4.1181 7.4056 6.1758 10.396-4.8311-6.4558-5.4309-14.81-8.6289-22.043-0.4958-0.79566-1.1205-1.9209-2.2031-1.8672zm73.002 1.8164c-5.703 7.3626 5.6809 16.473 12.271 11.918 1.1605-6.6831-6.0135-11.517-11.912-12.506l-0.35938 0.58789zm-38.467 12.121c-3.6065 3.1634 1.9504 3.6056 3.4297 1.8203-0.64519-0.68006-2.6739-2.8726-3.4297-1.8203z"/>
   <path d="m78.715 470.73c-1.6991 6.6192-0.81444 14.017 1.2793 20.242-0.25626-6.6231-0.81552-13.701-1.2793-20.242z"/>
   <path d="m79.588 443.46c-0.89279 2.3818-0.26888 2.9555 0.19141 0.41211 0.02776-0.1917-0.05806-1.3417-0.19141-0.41211z"/>
   <path d="m83.209 423.2c-2.9267 1.0068-2.1792 5.902 0.09961 2.3867 0.18381-0.52403 0.58851-2.9462-0.09961-2.3867z"/>
   <path d="m87.395 398.72c-2.3217 1.5035-3.3873 8.5676 0.83984 6.584 1.6599-1.5442 0.42218-6.9564-0.83984-6.584z"/>
   <path d="m115.36 327.99c-7.8959 15.051-15.295 30.505-20.127 46.842 6.7407-16.205 14.564-32.041 20.939-48.336l-0.47773 0.87851-0.33477 0.61563z"/>
   <path d="m140.94 288.52c-5.1321 2.2252-9.5134 8.623-8.1973 13.926 3.6166-3.9239 5.5951-9.4632 8.1973-13.926z"/>
   <path d="m148.19 277.95c-1.5556 0.90337-3.5303 3.3564-0.48828 1.5195 0.57234-0.13847 1.702-2.6185 0.48828-1.5195z"/>
   <path d="m188.38 238.27c-7.9742 1.8244-12.033 10.85-12.305 18.332 6.5423-7.0938 2.3613 1.7587 2.4375 6.2129 0.43719 2.3368 3.9246-1.2683 5.0137-1.7949 3.8064-3.3336 8.4573-7.6784 9.4824-12.359-3.7276-0.73406-8.3548 5.756-11.02 1.4531 0.36568-4.3955 5.3287-8.2779 6.3906-11.844z"/>
   <path d="m201.34 228.53c-2.2326 1.7421-6.9895 4.8299-6.918 6.6777 3.5184-0.66897 7.5496-3.1288 7.7402-7.0664l-0.82226 0.38868zm61.938 9.7695c-2.8366 0.85237-5.6858 4.1381-1.0527 4.1699 1.7468 0.42423 6.5175-0.11844 3.5039-2.709-0.69996-0.42832-1.474-2.4785-2.4512-1.4609zm-14.92 0.81445c-2.6409 0.28346-9.1578 3.7286-5.7988 6.6387 3.5848 0.24305 5.3043-4.0415 6.4961-6.8066l-0.69726 0.16797z"/>
   <path d="m302.72 220.56c-1.6171 3.2327-5.0681 7.2335-3.707 10.926 3.9479 0.65512 11.196-4.0475 8.3867-8.4258-1.2191-1.2664-3.1276-2.3068-4.6797-2.5zm-91.414 0.31055c-2.684 1.0773-2.5422 2.0507 0.15039 0.44141 0.34951-0.16883 0.87249-1.3696-0.15039-0.44141z"/>
   <path d="m245.46 200.47c-2.4793 0.64713-3.6616 1.831-0.18359 0.82617 0.66803 0.0319 1.0057-0.99537 0.18359-0.82617z"/>
   <path d="m250.31 198.23c-7.1377 2.3916 4.3788-0.719 0 0z"/>
   <path d="m270.71 189.03c0.42847-0.0567 0.6104-0.22086 0 0z"/>
  </g>
 </g>
</svg>
