<?xml version="1.0" encoding="UTF-8" standalone="no"?>
<svg
   xmlns:dc="http://purl.org/dc/elements/1.1/"
   xmlns:cc="http://creativecommons.org/ns#"
   xmlns:rdf="http://www.w3.org/1999/02/22-rdf-syntax-ns#"
   xmlns:svg="http://www.w3.org/2000/svg"
   xmlns="http://www.w3.org/2000/svg"
   xmlns:sodipodi="http://sodipodi.sourceforge.net/DTD/sodipodi-0.dtd"
   xmlns:inkscape="http://www.inkscape.org/namespaces/inkscape"
   width="14.888357mm"
   height="14.849772mm"
   viewBox="0 0 14.888357 14.849772"
   version="1.1"
   id="svg8"
   inkscape:version="1.0 (4035a4fb49, 2020-05-01)"
   sodipodi:docname="favicon.svg">
  <defs
     id="defs2" />
  <sodipodi:namedview
     id="base"
     pagecolor="#ffffff"
     bordercolor="#666666"
     borderopacity="1.0"
     inkscape:pageopacity="0.0"
     inkscape:pageshadow="2"
     inkscape:zoom="0.98994949"
     inkscape:cx="-234.69865"
     inkscape:cy="151.07884"
     inkscape:document-units="mm"
     inkscape:current-layer="layer1"
     inkscape:document-rotation="0"
     showgrid="false"
     fit-margin-top="0"
     fit-margin-left="0"
     fit-margin-right="0"
     fit-margin-bottom="0"
     inkscape:window-width="2540"
     inkscape:window-height="1395"
     inkscape:window-x="10"
     inkscape:window-y="35"
     inkscape:window-maximized="0" />
  <metadata
     id="metadata5">
    <rdf:RDF>
      <cc:Work
         rdf:about="">
        <dc:format>image/svg+xml</dc:format>
        <dc:type
           rdf:resource="http://purl.org/dc/dcmitype/StillImage" />
        <dc:title></dc:title>
      </cc:Work>
    </rdf:RDF>
  </metadata>
  <g
     inkscape:label="Layer 1"
     inkscape:groupmode="layer"
     id="layer1"
     transform="translate(-40.355533,-74.367475)">
    <g
       style="font-size:19.7556px;line-height:12.8221px;font-family:'Liberation Sans';-inkscape-font-specification:'Liberation Sans';text-decoration:none;text-decoration-line:none;text-decoration-color:#000000;letter-spacing:0px;word-spacing:0px;fill:#0088aa;stroke:#000000;stroke-width:0.264583px;stroke-linecap:butt;stroke-linejoin:miter;stroke-opacity:1;stop-color:#000000"
       id="text12"
       aria-label="M">
      <path
         id="path218"
         style="font-style:normal;font-variant:normal;font-weight:normal;font-stretch:normal;font-size:19.7556px;font-family:'Brush738 BT';-inkscape-font-specification:'Brush738 BT';fill:#0088aa;stroke:none;stroke-width:0.264583px"
         d="m 47.626079,77.480469 q -1.707393,1.871381 -2.787778,3.868162 -1.080384,1.996782 -1.601284,4.254014 -0.250803,1.051445 -0.424436,2.266878 -0.163987,1.215432 -0.327974,1.215432 -0.144695,0 -0.588424,-0.212218 -0.443729,-0.212219 -0.868166,-0.5209 -0.299035,-0.212218 -0.424437,-0.463022 -0.115755,-0.250803 -0.115755,-0.742764 0,-1.581991 0.385851,-3.81993 0.395498,-2.247586 1.138263,-4.909962 0.588423,-2.112537 0.926043,-3.009642 0.33762,-0.906751 0.530546,-0.906751 0.144695,0 0.627009,0.173633 0.491961,0.173634 0.916397,0.424437 0.231511,0.135048 0.299035,0.299035 0.07717,0.154341 0.07717,0.482314 0,0.376206 -0.154341,1.032153 -0.15434,0.655948 -0.636655,2.247586 1.360127,-2.218647 2.276524,-3.376201 0.926044,-1.167201 1.340834,-1.167201 0.154341,0 0.607717,0.202572 0.453375,0.202572 0.858519,0.49196 0.289389,0.212219 0.376206,0.395498 0.09646,0.173633 0.09646,0.491961 0,0.434083 -0.617363,2.594852 l -0.115755,0.385851 q 1.697746,-2.392279 2.614144,-3.463017 0.916397,-1.080385 1.254018,-1.080385 0.183279,0 0.598069,0.202572 0.424437,0.202572 0.829581,0.511254 0.231511,0.183279 0.308682,0.395497 0.08682,0.212219 0.08682,0.617363 0,0.559485 -0.270096,2.199354 -0.26045,1.639869 -0.704179,3.569127 -0.202572,0.877812 -0.5209,2.180061 -0.347266,1.389066 -0.347266,1.572345 0,0.115756 0.08682,0.18328 0.08682,0.06752 0.23151,0.06752 0.09646,0 0.376206,-0.07717 0.279742,-0.07717 0.434083,-0.07717 0.09646,0 0.125402,0.04823 0.02894,0.03859 0.02894,0.192925 0,0.202572 -0.125401,0.627009 -0.125402,0.414791 -0.366559,1.01286 -0.221865,0.549839 -0.742765,0.887459 -0.520899,0.33762 -1.128615,0.33762 -0.762057,0 -1.311896,-0.75241 -0.549838,-0.752411 -0.549838,-1.842442 0,-1.215432 0.578777,-3.569127 0.578777,-2.353694 1.61093,-5.237934 -1.784563,1.842441 -2.845655,3.762052 -1.061092,1.919612 -1.697747,4.495171 -0.212218,0.877812 -0.453375,2.064306 -0.212219,1.080384 -0.33762,1.080384 -0.125402,0 -0.472669,-0.183279 -0.33762,-0.18328 -0.790995,-0.491961 -0.44373,-0.308681 -0.627009,-0.5209 -0.18328,-0.221864 -0.18328,-0.424436 0,-1.11897 0.684887,-3.974271 0.684886,-2.855302 1.832795,-6.009639 z" />
    </g>
  </g>
</svg>
