<?xml version="1.0" encoding="UTF-8" standalone="no"?>
<svg
   xmlns:dc="http://purl.org/dc/elements/1.1/"
   xmlns:cc="http://creativecommons.org/ns#"
   xmlns:rdf="http://www.w3.org/1999/02/22-rdf-syntax-ns#"
   xmlns:svg="http://www.w3.org/2000/svg"
   xmlns="http://www.w3.org/2000/svg"
   xmlns:sodipodi="http://sodipodi.sourceforge.net/DTD/sodipodi-0.dtd"
   xmlns:inkscape="http://www.inkscape.org/namespaces/inkscape"
   enable-background="new 0 0 595.28 841.89"
   version="1.1"
   viewBox="0 0 299.99999 299.99999"
   xml:space="preserve"
   id="svg16"
   sodipodi:docname="logo.svg"
   width="300"
   height="300"
   inkscape:version="1.0.2 (e86c870879, 2021-01-15)"><metadata
   id="metadata22"><rdf:RDF><cc:Work
       rdf:about=""><dc:format>image/svg+xml</dc:format><dc:type
         rdf:resource="http://purl.org/dc/dcmitype/StillImage" /><dc:title /></cc:Work></rdf:RDF></metadata><defs
   id="defs20" /><sodipodi:namedview
   pagecolor="#ffffff"
   bordercolor="#666666"
   borderopacity="1"
   objecttolerance="10"
   gridtolerance="10"
   guidetolerance="10"
   inkscape:pageopacity="0"
   inkscape:pageshadow="2"
   inkscape:window-width="2540"
   inkscape:window-height="1395"
   id="namedview18"
   showgrid="false"
   fit-margin-top="0"
   fit-margin-left="0"
   fit-margin-right="0"
   fit-margin-bottom="0"
   inkscape:zoom="0.87303565"
   inkscape:cx="-52.360855"
   inkscape:cy="150.005"
   inkscape:window-x="10"
   inkscape:window-y="35"
   inkscape:window-maximized="0"
   inkscape:current-layer="svg16"
   inkscape:document-rotation="0" />
	<circle
   cx="150"
   cy="150"
   r="150"
   fill="#f68b1f"
   id="circle2"
   style="fill:#93aca7;stroke:none;stroke-opacity:1;stroke-width:2;stroke-miterlimit:4;stroke-dasharray:none" />
	<path
   d="M 150.55999,0.00999756 V 300 c 82.587,-0.3 149.44,-67.335 149.44,-149.99 0,-82.657002 -66.858,-149.69000244 -149.44,-149.99000244 z"
   fill="#f7941e"
   id="path4"
   style="fill:#b7c8c4" />
		<path
   d="m 238.62999,92.039998 h -49.873 v -8.378 c 0,-4.832 -3.916,-8.748 -8.747,-8.748 h -58.911 c -4.831,0 -8.748,3.917 -8.748,8.748 v 8.378 h -49.873 c -4.831,0 -8.747,3.915 -8.747,8.746002 v 115.56 c 0,4.831 3.916,8.747 8.747,8.747 h 176.15 c 4.831,0 8.747,-3.916 8.747,-8.747 v -115.56 c 0.001,-4.831002 -3.915,-8.746002 -8.746,-8.746002 z"
   fill="#662d91"
   id="path6"
   style="fill:#6f8a91" />
		<circle
   cx="150.56"
   cy="158.57001"
   r="38.861"
   fill="#662d91"
   id="circle8"
   style="fill:#b7c8c4" />
		<path
   d="m 150.55999,74.919998 h -29.455 c -4.831,0 -8.748,3.917 -8.748,8.748 v 8.378 h -49.873 c -4.831,0 -8.747,3.915 -8.747,8.746002 v 115.56 c 0,4.831 3.916,8.747 8.747,8.747 h 88.076 V 74.928998 Z"
   fill="#262262"
   id="path10"
   style="fill:#53676c" />
		<path
   d="m 150.55999,205.08 c -25.647,0 -46.514,-20.866 -46.514,-46.513 0,-25.649 20.867,-46.516 46.514,-46.516 25.649,0 46.514,20.867 46.514,46.516 0,25.647 -20.865,46.513 -46.514,46.513 z m 0,-77.721 c -17.208,0 -31.207,14 -31.207,31.209 0,17.207 14,31.206 31.207,31.206 17.207,0 31.208,-13.999 31.208,-31.206 0,-17.21 -14.001,-31.209 -31.208,-31.209 z"
   fill="#ffffff"
   id="path12" />
		<path
   d="m 119.34999,158.57 c 0,-17.209 14,-31.209 31.207,-31.209 v -15.307 c -25.647,0 -46.514,20.867 -46.514,46.516 0,25.646 20.867,46.513 46.514,46.513 v -15.307 c -17.208,0 -31.207,-13.999 -31.207,-31.206 z"
   fill="#d1d3d4"
   id="path14" />
</svg>
