<?xml version="1.0" encoding="UTF-8" standalone="no"?>
<svg
   xmlns:dc="http://purl.org/dc/elements/1.1/"
   xmlns:cc="http://creativecommons.org/ns#"
   xmlns:rdf="http://www.w3.org/1999/02/22-rdf-syntax-ns#"
   xmlns:svg="http://www.w3.org/2000/svg"
   xmlns="http://www.w3.org/2000/svg"
   xmlns:xlink="http://www.w3.org/1999/xlink"
   xmlns:sodipodi="http://sodipodi.sourceforge.net/DTD/sodipodi-0.dtd"
   xmlns:inkscape="http://www.inkscape.org/namespaces/inkscape"
   viewBox="0 0 267.46875 250.60454"
   version="1.1"
   id="svg131"
   sodipodi:docname="logo.svg"
   width="267.46875"
   height="250.60454"
   inkscape:version="1.0.2 (e86c870879, 2021-01-15)">
  <metadata
     id="metadata135">
    <rdf:RDF>
      <cc:Work
         rdf:about="">
        <dc:format>image/svg+xml</dc:format>
        <dc:type
           rdf:resource="http://purl.org/dc/dcmitype/StillImage" />
        <dc:title></dc:title>
      </cc:Work>
    </rdf:RDF>
  </metadata>
  <sodipodi:namedview
     pagecolor="#ffffff"
     bordercolor="#666666"
     borderopacity="1"
     objecttolerance="10"
     gridtolerance="10"
     guidetolerance="10"
     inkscape:pageopacity="0"
     inkscape:pageshadow="2"
     inkscape:window-width="2540"
     inkscape:window-height="1395"
     id="namedview133"
     showgrid="false"
     fit-margin-top="0"
     fit-margin-left="0"
     fit-margin-right="0"
     fit-margin-bottom="0"
     inkscape:zoom="4.0273973"
     inkscape:cx="154.96397"
     inkscape:cy="121.05027"
     inkscape:window-x="10"
     inkscape:window-y="35"
     inkscape:window-maximized="0"
     inkscape:current-layer="svg131" />
  <defs
     id="defs69">
    <linearGradient
       id="d">
      <stop
         stop-color="#ff8d00"
         stop-opacity=".63636"
         offset="0"
         id="stop2" />
      <stop
         stop-color="#ff5f00"
         stop-opacity="0"
         offset="1"
         id="stop4" />
    </linearGradient>
    <linearGradient
       id="a">
      <stop
         stop-color="#3d7b26"
         stop-opacity=".45022"
         offset="0"
         id="stop7" />
      <stop
         stop-color="#3d7b26"
         stop-opacity="0"
         offset="1"
         id="stop9" />
    </linearGradient>
    <linearGradient
       id="b">
      <stop
         stop-color="#78a314"
         offset="0"
         id="stop12" />
      <stop
         stop-color="#78a314"
         stop-opacity="0"
         offset="1"
         id="stop14" />
    </linearGradient>
    <linearGradient
       id="c">
      <stop
         stop-color="#e4e54e"
         offset="0"
         id="stop17" />
      <stop
         stop-color="#94af32"
         offset="1"
         id="stop19" />
    </linearGradient>
    <linearGradient
       id="e">
      <stop
         stop-color="#ff2800"
         offset="0"
         id="stop22" />
      <stop
         stop-color="#610f00"
         offset="1"
         id="stop24" />
    </linearGradient>
    <linearGradient
       id="f">
      <stop
         stop-color="#9b380c"
         stop-opacity=".8549"
         offset="0"
         id="stop27" />
      <stop
         stop-color="#e9e112"
         stop-opacity=".25108"
         offset="1"
         id="stop29" />
    </linearGradient>
    <linearGradient
       id="z"
       x1="253.91"
       x2="372.51999"
       y1="565.13"
       y2="732.66998"
       gradientUnits="userSpaceOnUse"
       gradientTransform="translate(-83.909192,-0.00976715)">
      <stop
         stop-color="#c7f937"
         offset="0"
         id="stop32" />
      <stop
         stop-color="#9ac818"
         offset="1"
         id="stop34" />
    </linearGradient>
    <linearGradient
       id="x"
       x1="432.32001"
       x2="433"
       y1="618.66998"
       y2="385.04999"
       gradientUnits="userSpaceOnUse"
       gradientTransform="translate(-83.909192,-0.00976715)">
      <stop
         stop-color="#8f5200"
         offset="0"
         id="stop37" />
      <stop
         offset="1"
         id="stop39" />
    </linearGradient>
    <linearGradient
       id="w"
       x1="345.70001"
       x2="493.10001"
       y1="618.90997"
       y2="347.04999"
       gradientUnits="userSpaceOnUse"
       gradientTransform="translate(-83.909192,-0.00976715)">
      <stop
         stop-color="#ffe100"
         offset="0"
         id="stop42" />
      <stop
         stop-color="#aa9a21"
         offset="1"
         id="stop44" />
    </linearGradient>
    <linearGradient
       id="k"
       x1="297.10001"
       x2="577.97998"
       gradientUnits="userSpaceOnUse"
       gradientTransform="translate(-83.909192,-0.00976715)">
      <stop
         stop-color="#f7c41f"
         stop-opacity=".75325"
         offset="0"
         id="stop47" />
      <stop
         stop-color="#fff170"
         stop-opacity="0"
         offset="1"
         id="stop49" />
    </linearGradient>
    <linearGradient
       id="aa"
       x1="24.58"
       x2="-2.1208"
       y1="631.10999"
       y2="429.95999"
       gradientUnits="userSpaceOnUse"
       xlink:href="#f"
       gradientTransform="translate(-83.909192,-0.00976715)" />
    <linearGradient
       id="y"
       x1="601.53003"
       x2="475.17001"
       y1="597.07001"
       y2="575.03003"
       gradientUnits="userSpaceOnUse"
       xlink:href="#a"
       gradientTransform="translate(-83.909192,-0.00976715)" />
    <linearGradient
       id="v"
       x1="387.09"
       x2="399.45001"
       y1="532.40997"
       y2="479.44"
       gradientUnits="userSpaceOnUse"
       xlink:href="#c"
       gradientTransform="translate(-83.909192,-0.00976715)" />
    <linearGradient
       id="u"
       x1="329.82001"
       x2="469.23999"
       gradientUnits="userSpaceOnUse"
       xlink:href="#b"
       gradientTransform="translate(-83.909192,-0.00976715)" />
    <linearGradient
       id="t"
       x1="213.48"
       x2="312.48001"
       y1="457.20001"
       y2="420.92001"
       gradientUnits="userSpaceOnUse"
       xlink:href="#c"
       gradientTransform="translate(-83.909192,-0.00976715)" />
    <linearGradient
       id="s"
       x1="207.5"
       x2="294.09"
       gradientUnits="userSpaceOnUse"
       xlink:href="#b"
       gradientTransform="translate(-83.909192,-0.00976715)" />
    <linearGradient
       id="r"
       x1="590.70001"
       x2="534.83002"
       y1="489.57999"
       y2="436.98001"
       gradientUnits="userSpaceOnUse"
       xlink:href="#c"
       gradientTransform="translate(-83.909192,-0.00976715)" />
    <linearGradient
       id="q"
       x1="511.45999"
       x2="595.64001"
       gradientUnits="userSpaceOnUse"
       xlink:href="#b"
       gradientTransform="translate(-83.909192,-0.00976715)" />
    <linearGradient
       id="p"
       x1="300.31"
       x2="330.92999"
       y1="683.52002"
       y2="641.79999"
       gradientUnits="userSpaceOnUse"
       xlink:href="#a"
       gradientTransform="translate(-83.909192,-0.00976715)" />
    <linearGradient
       id="o"
       x1="373.78"
       x2="411.69"
       y1="707.28003"
       y2="641.13"
       gradientUnits="userSpaceOnUse"
       xlink:href="#a"
       gradientTransform="translate(-83.909192,-0.00976715)" />
    <linearGradient
       id="n"
       x1="529.48999"
       x2="482.37"
       y1="697.89001"
       y2="634.59003"
       gradientUnits="userSpaceOnUse"
       xlink:href="#a"
       gradientTransform="translate(-83.909192,-0.00976715)" />
    <linearGradient
       id="m"
       x1="355"
       x2="413.89999"
       y1="679.76001"
       y2="611.15997"
       gradientUnits="userSpaceOnUse"
       xlink:href="#a"
       gradientTransform="translate(-83.909192,-0.00976715)" />
    <linearGradient
       id="l"
       x1="552.15997"
       x2="350.01999"
       y1="353.19"
       y2="597.28003"
       gradientUnits="userSpaceOnUse"
       xlink:href="#f"
       gradientTransform="translate(-83.909192,-0.00976715)" />
    <radialGradient
       id="j"
       cx="306.69"
       cy="743.16998"
       r="188.03999"
       gradientTransform="matrix(1.6432,0.57536,-0.42536,1.2148,-404.08919,-533.85977)"
       gradientUnits="userSpaceOnUse"
       xlink:href="#d" />
    <radialGradient
       id="i"
       cx="-149.87"
       cy="685.35999"
       r="104.12"
       gradientTransform="matrix(3.0871,-0.56123,0.26439,1.4543,724.71081,-459.00977)"
       gradientUnits="userSpaceOnUse"
       xlink:href="#e" />
    <radialGradient
       id="h"
       cx="-415.67001"
       cy="667.13"
       r="95.153"
       gradientTransform="matrix(3.0376,1.4812,-1.0675,2.1892,2105.0909,-244.28977)"
       gradientUnits="userSpaceOnUse"
       xlink:href="#e" />
    <radialGradient
       id="g"
       cx="552.15002"
       cy="516.85999"
       r="189.64999"
       gradientTransform="matrix(1.0709,-0.70464,0.46272,0.70327,-595.14919,364.42023)"
       gradientUnits="userSpaceOnUse"
       xlink:href="#d" />
  </defs>
  <g
     transform="matrix(0.44537,0,0,0.44537,-40.764363,-131.52565)"
     id="g129">
    <g
       transform="translate(441.41,126.82)"
       fill-rule="evenodd"
       id="g77">
      <path
         d="m -234.09,442.91 c -20.545,26.673 11.895,91.913 56.229,111.02 44.334,19.107 69.698,25.73 125.43,21.627 58.752,-4.3253 142.37,-33.161 165.8,-53.346 23.43,-20.185 28.684,-59.053 14.418,-87.948 -20.399,-41.316 -206.3,-58.623 -275.38,-41.811 -66.222,16.115 -65.961,23.789 -86.506,50.462 z"
         fill="#ffffff"
         id="path71" />
      <path
         d="m -234.09,442.91 c -20.545,26.673 11.895,91.913 56.229,111.02 44.334,19.107 69.698,25.73 125.43,21.627 58.752,-4.3253 142.37,-33.161 165.8,-53.346 23.43,-20.185 28.684,-59.053 14.418,-87.948 -20.399,-41.316 -206.3,-58.623 -275.38,-41.811 -66.222,16.115 -65.961,23.789 -86.506,50.462 z"
         fill="url(#aa)"
         id="path73"
         style="fill:url(#aa)" />
      <path
         d="m -234.09,442.91 c -20.545,26.673 11.895,91.913 56.229,111.02 44.334,19.107 69.698,25.73 125.43,21.627 58.752,-4.3253 142.37,-33.161 165.8,-53.346 23.43,-20.185 28.684,-59.053 14.418,-87.948 -20.399,-41.316 -206.3,-58.623 -275.38,-41.811 -66.222,16.115 -65.961,23.789 -86.506,50.462 z"
         fill="url(#j)"
         id="path75"
         style="fill:url(#j)" />
    </g>
    <path
       d="m 223.53,543.95 c -13.565,-9.5063 -35.041,-0.87174 -32.099,17.345 16.877,9.798 -2.8277,15.827 -12.393,11.544 -5.253,6.9995 -4.8936,16.196 2.0272,20.823 -6.3224,8.3152 -3.4755,20.977 9.578,16.788 5.4531,-3.2414 17.628,-7.6595 8.451,2.0266 -7.6968,14.089 19.628,-0.33644 13.772,15.242 1.9133,10.748 -21.251,8.5959 -5.7517,18.534 14.231,8.2818 25.101,-13.119 37.904,1.4534 15.603,5.8984 25.473,-7.3569 37.476,-12.919 13.977,0.60244 -3.8611,21.197 13.338,23.508 17.212,4.7737 32.784,-2.7667 46.689,-11.822 15.916,-4.1487 -2.0751,25.047 15.007,28.123 13.107,-8.6729 21.415,25.685 28.708,9.3604 1.6272,-10.196 0.6379,-25.435 15.12,-17.803 8.997,-5.4123 6.9564,-34.271 22.751,-22.145 5.0265,8.9302 13.388,17.138 21.517,6.4972 8.7843,5.1281 22.093,9.8118 21.248,21.549 11.349,8.7528 27.082,-24.102 25.802,-0.29315 5.6205,12.271 12.238,-8.2793 17.871,-9.3442 14.27,11.023 17.972,-5.5534 14.829,-16.703 9.1864,-9.9506 -0.0402,-28.106 17.944,-30.052 6.7906,-9.4438 17.088,19.7 24.967,5.3121 4.4195,-10.987 13.445,12.941 20.734,0.48485 8.7735,-14.844 -12.141,-35.367 -26.806,-27.844 -9.5687,1.8831 -1.1616,-23.131 -13.438,-11.501 -11.634,15.737 -27.443,-17.045 -38.362,2.9325 -9.773,16.228 -29.022,20.098 -44.343,28.83 -11.436,3.3068 -31.156,22.183 -39.688,8.3512 -7.4162,3.1802 -14.016,8.957 -20.271,-1.0202 -12.243,-3.4077 -23.965,-15.268 -36.242,-4.0388 -14.038,-1.0143 -32.975,-9.9566 -44.352,3.3525 5.4281,4.3898 13.931,10.643 0.72668,9.0261 -9.8588,-2.0639 -19.016,10.754 -25.966,-1.461 -9.3988,-2.4534 -19.784,4.0272 -23.426,-7.9194 -10.126,1.8947 -16.891,-1.7353 -22.067,-10.191 -8.9414,-1.9348 -16.709,-2.4054 -18.424,-12.892 -17.721,-4.3578 -11.777,-29.782 -21.618,-41.26 -13.189,-13.571 6.8816,-3.5361 8.7841,-11.876 z"
       fill="url(#z)"
       fill-rule="evenodd"
       id="path79"
       style="fill:url(#z)" />
    <path
       d="m 579.09,554.45 c -2.1555,-1.6166 5.3122,-0.93175 7.9261,-1.5852 3.4598,-0.86495 4.074,2.3355 5.2841,4.7557 1.716,3.4319 -2.0876,4.7427 -4.2273,5.8125 -3.0201,1.5101 -1.6607,4.7179 0.5285,5.8125 3.1985,1.5992 4.8188,0.12639 6.3409,3.1705 1.5006,3.0013 -3.7103,5.689 -5.2841,6.8693 -2.2146,1.6609 -4.7058,3.1705 -7.9262,3.1705 -3.2317,0 -7.2057,1.7296 -8.4546,4.2273 -0.9637,1.9276 2.1137,4.8728 2.1137,7.3978 0,2.8875 2.6795,4.2273 5.2841,4.2273 3.8506,0 3.7882,3.8698 3.1705,6.3409 -1.1123,4.4488 -8.6151,1.4247 -4.7557,5.2841 1.9221,1.9222 -1.0116,5.7672 -2.1137,6.8693 -1.016,1.016 -5.5659,-4.4298 -6.8693,-4.7557 -3.0124,-0.75309 -6.4941,1.3976 -8.983,2.642 -3.701,1.8505 -3.6989,-4.1672 -3.6989,-6.3409 0,-2.0787 3.3242,-2.7958 5.2841,-4.7557 1.8488,-1.8488 3.0927,-6.1853 4.2273,-8.4546 1.4383,-2.8767 3.1705,-4.4652 3.1705,-7.9262 0,-2.2324 1.5711,-6.2845 2.1136,-8.4546 0.722,-2.888 0.8721,-5.602 1.5852,-8.4546 0.6663,-2.665 0.9487,-5.3797 1.5853,-7.9262 0.8943,-3.5773 0.938,-4.475 3.6989,-7.9262 z"
       fill="url(#y)"
       fill-rule="evenodd"
       id="path81"
       style="fill:url(#y)" />
    <path
       d="m 575.57,533.83 c 8.7495,25.849 6.6127,86.604 -63.497,102.38 -38.144,8.5848 -61.904,11.734 -91.554,6.3989 -14.994,-2.698 -43.469,-40.398 -48.73,-64.481 -6.905,-31.608 30.535,-61.179 56.606,-71.373 46.431,-18.154 149.97,20.773 147.18,27.072 z"
       fill="url(#i)"
       fill-rule="evenodd"
       id="path83"
       style="fill:url(#i)" />
    <path
       d="m 350.14,504.06 c -36.02,-20.8 -137.42,-5.8944 -143.24,36.425 -3.5018,25.491 -1.6783,33.708 15.259,62.02 19.408,32.443 134.61,41.512 161.94,10.337 21.231,-24.219 6.8911,-64.974 6.8911,-64.974 0,0 -8.5665,-25.164 -40.855,-43.808 z"
       fill="url(#h)"
       fill-rule="evenodd"
       id="path85"
       style="fill:url(#h)" />
    <path
       d="m 211.05,488.54 c -11.378,15.435 -5.4064,28.942 -3.5263,42.903 25.203,61.421 100.62,73.918 186.31,76.403 68.748,-3.6383 132.86,-15.88 179.84,-59.947 0,0 19.688,-27.182 7.6403,-47.605 -12.0477,-20.423 -55.833,-34.088 -55.833,-34.088 0,0 -72.436,-22.039 -151.04,-16.456 -78.604,5.583 -163.39,38.789 -163.39,38.789 z"
       fill="url(#x)"
       fill-rule="evenodd"
       id="path87"
       style="fill:url(#x)" />
    <path
       d="m 422.79,382.83 c 61.784,36.152 126.95,52.005 185.35,108.46 -31.946,33.052 -81.429,50.676 -129.12,62.549 -53.531,13.328 -109.06,17.895 -154.94,49.925 l -125.67,-162.4 224.37,-58.532 z"
       fill="url(#w)"
       fill-rule="evenodd"
       id="path89"
       style="fill:url(#w)" />
    <path
       d="m 608.17,491.32 -4.6302,-4.5016 c -87.024,70.967 -214.55,57.055 -285.5,109.25 l 5.4483,8.1724 c 61.55,-50.675 206.95,-34.343 284.68,-112.92 z"
       fill="#ffe100"
       fill-rule="evenodd"
       id="path91" />
    <g
       transform="translate(0,28)"
       fill-rule="evenodd"
       id="g97">
      <path
         d="m 397.14,457.34 c -36.136,6.2972 -68.799,12.858 -66.438,42.394 1.4805,18.523 28.157,29.739 61.376,32.27 33.219,2.531 63.425,-7.2218 71.5,-22.146 11.034,-20.391 7.9156,-55.486 -66.438,-52.518 z"
         fill="url(#v)"
         id="path93"
         style="fill:url(#v)" />
      <path
         d="m 330.09,485.47 c 0,0 3.2306,20.884 29.537,29.076 26.3064,8.192 48.344,11.653 75.689,3.6921 27.345,-7.9609 33.691,-35.537 33.691,-35.537 0,0 3.4614,24.23 -16.615,36.921 -20.0764,12.691 -32.753,14.843 -63.689,13.846 -14.307,-0.46152 -32.422,-4.6152 -47.075,-16.615 -14.653,-11.9998 -11.538,-31.383 -11.538,-31.383 z"
         fill="url(#u)"
         id="path95"
         style="fill:url(#u)" />
    </g>
    <g
       transform="translate(0,28)"
       fill-rule="evenodd"
       id="g103">
      <path
         d="m 223.08,420.29 c 0,0 -18.25,19.34 -16.451,34.168 2.0539,16.929 38.872,27.621 57.58,25.31 22.593,-2.7906 29.26,-11.857 37.332,-23.412 19.122,-27.372 -14.34,-59.959 -78.461,-36.067 z"
         fill="url(#t)"
         id="path99"
         style="fill:url(#t)" />
      <path
         d="m 207.79,444.39 c 18.719,28.02 47.895,31.204 86.304,12.461 l -0.92304,11.538 c -15.464,11.418 -35.358,16.191 -65.535,5.5382 -24.845,-10.714 -19.571,-19.993 -19.845,-29.537 z"
         fill="url(#s)"
         id="path101"
         style="fill:url(#s)" />
    </g>
    <g
       transform="translate(0,28)"
       fill-rule="evenodd"
       id="g109">
      <path
         d="m 525.59,486.45 c 17.414,5.7612 42.236,3.1637 53.151,-4.4292 17.357,-12.074 18.191,-27.208 13.92,-43.027 -4.271,-15.819 -5.4093,-17.213 -23.412,-22.146 -50.779,-13.916 -79.107,57.875 -43.66,69.602 z"
         fill="url(#r)"
         id="path105"
         style="fill:url(#r)" />
      <path
         d="m 512.44,467 c 0,0 30.1,13.459 50.901,9.7887 20.801,-3.6703 32.303,-24.472 32.303,-24.472 -1.474,13.811 -4.6386,29.041 -25.94,34.26 -21.094,5.1681 -41.817,2.8077 -58.243,-5.8732 l 0.97887,-13.704 z"
         fill="url(#q)"
         id="path107"
         style="fill:url(#q)" />
    </g>
    <path
       d="m 427.23,635.03 c -1.8417,-7.6113 -7.6978,-16.604 -16.31,-16.612 -7.5984,2.1991 -16.71,8.5811 -19.612,-3.2206 -4.5026,-11.604 -14.743,-1.5767 -20.584,2.9046 -8.323,4.9854 -18.679,-4.2766 -26.861,1.8759 -7.6737,5.0549 -0.13091,11.996 3.3584,15.576 -8.5544,5.8854 -18.137,-5.1556 -26.931,0.4767 -7.4935,5.2769 -21.417,0.3523 -24.615,10.881 -1.804,12.506 14.328,11.576 22.61,10.776 8.2816,0.45053 19.08,-12.305 22.622,1.1104 2.1706,11.444 16.222,1.878 22.088,8.8294 10.436,3.9481 3.2017,17.413 12.502,22.309 8.7473,9.1384 18.967,-3.1784 19.031,-12.261 6.1023,1.2016 15.905,7.4784 16.76,-3.5461 0.3638,-10.154 5.4265,-18.235 14.439,-22.407 4.4843,-12.59 16.425,-3.3142 25.077,-3.7425 14.701,-3.938 5.5037,20.566 19.933,16.445 9.9767,-4.8682 11.743,5.8435 17.359,10.572 8.7431,5.5863 14.962,-1.4787 18.314,-8.952 7.9053,-2.2269 9.9768,17.003 17.677,6.566 1.389,-6.0218 3.718,-13.959 11.303,-8.1502 10.42,3.5127 7.3403,-13.03 0.74968,-13.448 7.3748,-0.59382 23.65,-12.215 10.983,-17.314 -4.3182,-4.7215 -9.9554,-16.587 -17.031,-7.2016 -7.207,10.926 -13.23,-5.7814 -20.262,-7.4502 -9.7026,-1.4054 -12.744,11.543 -22.434,10.275 -7.3375,7.6844 -18.356,5.9603 -27.53,3.0444 -9.6014,-0.83228 -19.155,0.44389 -27.435,5.7145 -4.874,1.8561 -8.5624,5.1962 -5.2027,-3.0502 z"
       fill="#a8d81d"
       fill-opacity="0.93537"
       fill-rule="evenodd"
       id="path111" />
    <path
       d="m 341.36,631.08 c -0.72392,0.40636 -6.8243,0.0225 -8.983,-1.0568 -2.8078,-1.4039 -3.7658,2.709 -5.8125,4.7557 -2.8633,2.8633 -5.2644,3.2976 -8.983,4.2273 -3.7322,0.93304 -7.7505,1.145 -11.625,2.1136 -2.5913,0.64782 -5.7742,0.52841 -8.4546,0.52841 -4.1396,0 -4.462,0.93885 -5.2841,4.2273 -0.82658,3.3063 0.49949,5.2552 2.1136,6.8693 1.5254,1.5254 5.6634,1.0568 7.9262,1.0568 h 8.983 c 3.8986,0 5.837,-1.0691 8.983,-2.642 3.0262,-1.5131 4.599,-3.8847 7.3978,-5.2841 2.5174,-1.2587 4.7398,-2.8983 7.3978,-4.2273 1.6227,-0.81133 3.0947,-4.0757 3.6989,-5.2841 1.0016,-2.0031 2.025,-2.1989 2.6421,-5.2841 z"
       fill="url(#p)"
       fill-rule="evenodd"
       id="path113"
       style="fill:url(#p)" />
    <path
       d="m 387.42,639.5 c -0.33621,-0.33621 1.2961,-4.015 -3.1705,-2.642 -4.2059,-2.5375 -5.2792,4.5424 -8.4546,5.8125 -3.5623,1.4249 -6.4716,2.9852 -10.04,3.6989 -1.2477,0.24954 -2.4207,5.984 -2.6421,6.8693 -0.71188,2.8475 -1.5852,4.792 -1.5852,7.9262 0,2.8788 1.3721,5.5994 3.1705,7.3978 1.5263,1.5263 4.4648,2.5693 6.8693,3.1705 2.4894,0.62237 5.5139,2.4927 7.9262,3.6989 3.0978,1.5489 5.0588,2.7936 7.9262,4.2273 3.0278,1.5139 3.8289,3.1786 4.7557,-0.52841 0.8362,-3.3448 1.0568,-6.9351 1.0568,-10.568 0,-3.0712 0.16399,-6.2134 -0.52841,-8.983 -0.64948,-2.5979 -0.68973,-5.1672 0,-7.9262 0.43905,-1.7562 7.0446,2.9056 7.3978,3.1705 1.8683,1.4012 5.2858,0.26336 6.8693,-0.52841 2.9436,-1.4718 4.7557,-4.6824 4.7557,-7.3978 0,-2.3662 2.1216,-4.2432 3.1705,-6.3409 1.7727,-3.5455 4.0841,2.9284 6.3409,-1.5852 2.0727,-4.1454 2.4558,-5.2841 -2.1136,-5.2841 -2.8074,0 -5.9524,-3.5046 -8.4546,-4.7557 -5.2542,-2.6271 -1.9708,-0.1428 -5.8125,3.6989 -3.0611,3.0611 -2.5995,4.8984 -7.3978,3.6989 -2.4773,-0.61933 -3.2528,3.4996 -3.6989,5.2841 -0.94419,3.7768 -6.0047,-1.7774 -6.3409,-2.1136 z"
       fill="url(#o)"
       fill-rule="evenodd"
       id="path115"
       style="fill:url(#o)" />
    <path
       d="m 498.31,635.34 c -1.9128,-1.7987 -4.5101,0.0621 -6.2758,1.1467 -2.0202,1.411 -4.2136,2.6085 -6.6702,3.0145 -2.6521,0.35366 -3.8937,3.657 -6.7069,3.4544 -1.3606,-0.13644 -5.3819,-1.4854 -3.9962,1.2184 1.3371,2.0472 3.434,3.4029 5.6482,4.337 2.3651,0.81152 2.7627,3.3935 2.7662,5.5451 0.91748,3.1803 3.683,5.298 6.0045,7.4442 1.8065,2.3232 3.0521,5.1872 2.9696,8.1679 0.2393,2.3589 2.2248,3.9975 3.912,5.4288 1.8742,1.1648 3.7239,-0.77859 4.5397,-2.3375 2.4001,-3.8238 1.9183,-8.4814 2.1035,-12.781 -0.1977,-2.1938 3.0353,-5.4428 4.8112,-3.3608 1.5987,2.6035 0.7929,6.2736 3.3538,8.3497 1.39,1.2004 3.1936,1.861 4.9854,2.1513 2.2602,-0.26526 2.4774,-3.0189 2.8608,-4.7984 0.5329,-2.2604 0.9803,-4.8178 -0.4898,-6.8591 -1.8514,-2.4243 -4.1706,-4.4726 -6.4539,-6.4883 -3.068,-2.2701 -5.7809,-4.9708 -8.7416,-7.3666 -1.7508,-1.928 -2.7943,-4.3987 -4.6205,-6.2667 z"
       fill="url(#n)"
       fill-rule="evenodd"
       id="path117"
       style="fill:url(#n)" />
    <path
       d="m 364.73,627.93 c -0.79956,0.43168 -1.0869,2.7121 -2.2523,3.5051 -1.4008,1.3596 -3.1254,2.4543 -4.0304,4.2478 -1.2936,1.9126 -2.5115,3.8889 -3.4435,6.0061 0.27604,2.3802 3.1898,2.0141 4.9348,2.1683 2.4864,0.21877 5.197,-0.62532 6.6232,-2.7862 1.4022,-1.7302 0.96587,-4.6054 3.0854,-5.7995 2.285,-0.95749 4.5714,0.93231 6.9026,0.34845 2.8432,-0.16979 5.5332,-1.9528 8.4134,-1.3537 2.433,0.79906 4.2438,3.5233 7.0502,3.0151 3.025,-0.51133 5.9831,-2.1007 7.504,-4.8632 1.3083,-1.7371 3.24,-4.1593 0.61042,-5.7944 -1.8459,-1.2485 -3.8533,-2.7844 -6.2239,-2.5095 -2.4607,0.12031 -4.8752,1.3959 -7.3462,0.59776 -3.0692,-0.9258 -6.1384,-2.1532 -9.4058,-2.0388 -2.2032,-0.0524 -4.388,0.67317 -6.5762,0.14506 -2.3132,-0.71476 -4.8178,0.57172 -5.4278,2.9478 -0.24562,0.69522 -0.38252,1.4277 -0.41774,2.1637 z"
       fill="url(#m)"
       fill-rule="evenodd"
       id="path119"
       style="fill:url(#m)" />
    <path
       d="m 218.96,443.07 c 20.965,50.55 108.44,77.923 193.2,79.297 73.75,-3.1449 139.19,-14.601 167.25,-63.438 6.2218,-20.919 20.704,-34.241 2.8836,-70.647 -17.8204,-36.406 -73.378,-79.953 -154.27,-90.832 -61.341,-8.2496 -115.32,7.6032 -173.01,44.695 -29.664,19.072 -57.009,50.374 -36.044,100.92 z"
       fill="#ffffff"
       fill-rule="evenodd"
       id="path121" />
    <path
       d="m 218.96,443.07 c 20.965,50.55 108.44,77.923 193.2,79.297 73.75,-3.1449 139.19,-14.601 167.25,-63.438 6.2218,-20.919 20.704,-34.241 2.8836,-70.647 -17.8204,-36.406 -73.378,-79.953 -154.27,-90.832 -61.341,-8.2496 -115.32,7.6032 -173.01,44.695 -29.664,19.072 -57.009,50.374 -36.044,100.92 z"
       fill="url(#l)"
       fill-rule="evenodd"
       id="path123"
       style="fill:url(#l)" />
    <path
       d="m 218.96,443.07 c 20.965,50.55 108.44,77.923 193.2,79.297 73.75,-3.1449 139.19,-14.601 167.25,-63.438 6.2218,-20.919 20.704,-34.241 2.8836,-70.647 -17.8204,-36.406 -73.378,-79.953 -154.27,-90.832 -61.341,-8.2496 -115.32,7.6032 -173.01,44.695 -29.664,19.072 -57.009,50.374 -36.044,100.92 z"
       fill="url(#g)"
       fill-rule="evenodd"
       id="path125"
       style="fill:url(#g)" />
    <path
       d="m 564.36,458.19 c 0.28103,-1.4592 1.457,-1.4275 1.741,0.047 0.13027,0.6765 -0.21155,1.1101 -0.87501,1.1101 -0.68104,0 -1.0053,-0.4333 -0.86596,-1.1571 z m -58.049,-1.7522 c -0.24205,-0.6308 -0.11279,-1.4742 0.28726,-1.8742 0.52897,-0.529 0.84736,-0.4146 1.1674,0.4195 0.24205,0.6307 0.11279,1.4741 -0.28725,1.8741 -0.52898,0.529 -0.84738,0.4146 -1.1674,-0.4194 z m -91.15,-4.972 c -0.48946,-0.792 1.5427,-2.8241 2.3346,-2.3347 0.9656,0.5968 0.70612,2.1022 -0.438,2.5412 -1.3608,0.5222 -1.4524,0.5123 -1.8966,-0.2065 z m 103.17,-4.3985 c -1.384,-1.384 -1.3434,-3.5895 0.066,-3.5895 0.60779,0 1.6305,-0.4755 2.2726,-1.0566 1.2759,-1.1547 2.5733,-0.7554 2.5733,0.7918 0,1.0979 -2.6242,4.8933 -3.3832,4.8933 -0.26929,0 -0.95722,-0.4675 -1.5287,-1.039 z m -66.425,35.518 c -0.91313,-1.3037 -0.91702,-1.5765 -0.0349,-2.4586 0.88214,-0.8821 1.1488,-0.8356 2.4039,0.4194 1.507,1.5071 1.2979,3.5055 -0.36686,3.5055 -0.5363,0 -1.4373,-0.6598 -2.0022,-1.4663 z m 24.887,-46.368 c -1.1477,-0.9028 -1.8044,-2.238 -2.1131,-4.296 -0.57455,-3.8314 0.0928,-5.0098 1.6603,-2.9317 1.1676,1.5479 1.1888,1.5503 2.589,0.2831 2.8733,-2.6003 5.5419,1.5109 3.7558,5.7858 -1.2044,2.8825 -3.2014,3.2752 -5.892,1.1588 z m -78.531,-83.775 c -0.57598,-1.5011 0.18368,-5.4881 1.3991,-7.3431 1.1623,-1.7739 2.8009,-2.0204 4.6147,-0.6941 1.603,1.1721 0.94066,3.925 -1.4856,6.1748 -2.77,2.5685 -4.0544,3.0968 -4.5282,1.8624 z m 144.61,76.655 c -0.55768,-0.978 -1.1747,-5.4891 -0.82761,-6.0508 0.5485,-0.8875 4.9997,1.4005 4.9997,2.57 0,2.3745 -3.2546,5.0898 -4.1721,3.4808 z m 29.078,-3.251 c -0.24244,-0.2425 -0.44082,-1.3963 -0.44082,-2.564 0,-1.1677 -0.44999,-2.4965 -0.99997,-2.953 -1.4058,-1.1667 0.0275,-2.7672 2.2445,-2.5063 1.5402,0.1814 4.7065,3.7172 4.7065,5.2557 0,1.8717 -4.2643,4.0134 -5.5102,2.7676 z m -141.56,-3.2891 c -0.825,-2.15 3.5374,-6.5485 6.0205,-6.0703 1.9297,0.3716 1.7387,2.2406 -0.48819,4.7769 -2.2349,2.5454 -4.8199,3.1498 -5.5323,1.2934 z m 80.779,-13.515 c -1.4266,-0.8309 -1.51,-3.4596 -0.14573,-4.5918 0.77774,-0.6455 1.3931,-0.6655 2.6634,-0.0867 2.3992,1.0931 2.7854,2.72 0.99071,4.1733 -1.7229,1.3951 -1.9295,1.4249 -3.5084,0.5052 z m -84.932,75.735 c -2.5603,-2.6741 -2.9405,-3.5493 -1.8378,-4.2308 1.8595,-1.1493 6.9443,3.8935 6.1552,6.1043 -0.49129,1.3766 -1.7135,0.8462 -4.3174,-1.8735 z m -106.27,-80.882 c -0.46048,-0.745 1.8726,-5.5585 3.247,-6.6992 0.9108,-0.756 1.2768,-0.6766 2.4943,0.5409 l 1.4269,1.4269 -2.589,2.6514 c -2.5436,2.6049 -3.8798,3.2118 -4.5793,2.08 z m 46.351,-2.3283 c -0.19331,-0.5037 0.0896,-1.5457 0.62878,-2.3154 0.53914,-0.7697 0.81753,-1.6628 0.61863,-1.9847 -0.1989,-0.3219 0.0689,-0.9424 0.5951,-1.3791 0.77055,-0.6395 1.2838,-0.4669 2.6376,0.8868 2.8811,2.8811 1.8819,5.7083 -2.0173,5.7083 -1.189,0 -2.2648,-0.4001 -2.4628,-0.9159 z m 104.01,-0.4202 c -0.91452,-1.7088 -0.33242,-2.6312 1.6604,-2.6312 0.86625,0 1.7551,0.2914 1.9752,0.6476 0.57187,0.9253 -0.85279,3.3197 -1.9752,3.3197 -0.5199,0 -1.2671,-0.6012 -1.6604,-1.3361 z m -43.303,-5.9373 c -0.55348,-0.8956 0.19336,-1.9837 1.3615,-1.9837 0.52403,0 0.95281,0.5951 0.95281,1.3225 0,1.3689 -1.5952,1.8247 -2.3143,0.6612 z m 87.501,87.98 c -0.24244,-0.2424 -0.4408,-1.5071 -0.4408,-2.8105 0,-1.8413 0.58937,-3.0144 2.6435,-5.2616 2.2087,-2.4163 2.8069,-2.7564 3.6367,-2.0677 1.5616,1.296 1.3272,7.3279 -0.35502,9.1335 -1.2838,1.378 -4.5192,1.9716 -5.4844,1.0063 z m -107.01,-90.552 c -3.1278,-1.1633 -3.7533,-2.4132 -1.8184,-3.6337 0.85974,-0.5423 1.4545,-0.5179 2.3143,0.0948 0.63642,0.4536 1.8483,1.1225 2.693,1.4863 0.90751,0.3909 1.4486,1.1118 1.3224,1.762 -0.29476,1.5199 -1.0714,1.5699 -4.5114,0.2906 z m 131.04,-0.9211 c -1.1019,-1.3277 -0.0245,-2.3081 2.8039,-2.5513 2.8867,-0.2483 3.681,0.6691 2.0188,2.3314 -1.2811,1.2811 -3.8449,1.398 -4.8227,0.2199 z m -194.45,-6.0073 c -0.58949,-0.7103 -0.60166,-1.082 -0.0466,-1.4251 1.0784,-0.6665 2.4163,0.814 1.5334,1.6969 -0.47818,0.4782 -0.93348,0.395 -1.4868,-0.2718 z m 95.937,0.1115 c -1.9769,-1.9769 0.52453,-7.1412 3.459,-7.1412 1.2278,0 1.7614,0.6782 2.8421,3.6119 0.73179,1.9865 1.1706,3.7718 0.97508,3.9673 -0.69272,0.6927 -6.4948,0.3435 -7.2763,-0.438 z m 133.72,-0.7455 c -0.58889,-1.5347 0.93665,-4.5288 2.185,-4.2884 1.637,0.3153 2.748,3.7289 1.4755,4.5337 -1.4098,0.8917 -3.2721,0.7669 -3.6605,-0.2453 z m -263.91,-5.5076 c -0.58712,-1.5299 1.2176,-4.4842 2.887,-4.7261 1.149,-0.1665 1.4366,0.2051 1.6635,2.1495 0.15094,1.2929 -0.0229,2.648 -0.38631,3.0114 -1.046,1.046 -3.7025,0.7687 -4.1643,-0.4348 z m 183.4,-1.9901 c -0.24245,-0.2425 -0.44082,-1.2255 -0.44082,-2.1846 0,-2.6896 3.6759,-5.8652 7.3762,-6.3724 3.6947,-0.5064 5.0166,0.7303 1.9305,1.8061 -1.464,0.5104 -2.0333,1.1286 -2.0333,2.208 0,2.3159 -2.4444,4.9837 -4.5664,4.9837 -1.004,0 -2.0238,-0.1984 -2.2663,-0.4408 z m -25.318,-5.0143 c -2.9079,-3.3183 -3.1061,-3.7417 -2.2394,-4.7859 0.71519,-0.8618 1.0537,-0.8151 2.7272,0.3766 2.594,1.847 3.5531,3.7196 2.5341,4.9475 -1.063,1.2808 -1.4952,1.2039 -3.0218,-0.5382 z m -121.47,-0.2755 c -1.3088,-1.3088 -0.22128,-3.7514 3.0306,-6.8067 1.9093,-1.7939 3.6682,-3.0543 3.9086,-2.801 0.57039,0.6011 -0.73109,8.1504 -1.5898,9.222 -0.69355,0.8654 -4.5888,1.1463 -5.3494,0.3857 z m 24.289,-2.3112 c -0.26811,-0.4338 0.16234,-1.2842 0.98873,-1.9534 0.80498,-0.6519 1.4122,-1.5707 1.3493,-2.0419 -0.34911,-2.6176 1.6667,-3.5445 3.3355,-1.5336 0.66193,0.7975 0.42462,1.4629 -1.297,3.6367 -2.1336,2.6939 -3.5126,3.2901 -4.3765,1.8922 z m 170.33,-0.4573 c 0,-1.5716 1.799,-2.7417 4.2155,-2.7417 3.8628,0 2.4927,2.8905 -1.7359,3.6621 -2.2144,0.404 -2.4796,0.3056 -2.4796,-0.9204 z m -138.63,-0.4704 c -0.5605,-1.4607 1.3199,-4.5314 2.9288,-4.7828 1.7198,-0.2687 2.9397,1.3818 2.6821,3.6286 -0.18631,1.625 -0.52514,1.8842 -2.698,2.0639 -1.8488,0.1529 -2.5944,-0.0799 -2.9129,-0.9097 z m 45.634,77.188 c -1.3591,-0.3903 -1.6349,-0.8567 -1.5508,-2.6226 0.14117,-2.9658 1.9629,-4.8198 4.4925,-4.5723 1.8558,0.1815 2.0335,0.4176 2.2178,2.9455 0.16332,2.2409 -0.0775,2.9428 -1.3043,3.8021 -0.82751,0.5796 -1.6615,1.0242 -1.8534,0.9879 -0.1919,-0.0363 -1.0927,-0.2795 -2.0018,-0.5406 z m -15.144,-82.285 c -0.53769,-1.4012 -0.11886,-3.4553 0.70452,-3.4553 0.92283,0 1.2348,2.9879 0.39922,3.8235 -0.48656,0.4866 -0.81818,0.3759 -1.1037,-0.3682 z m 87.821,5.3656 c -2.4112,-3.9547 -1.4457,-5.0603 1.6225,-1.8578 1.1278,1.1771 1.7065,2.3511 1.4669,2.9755 -0.6158,1.6047 -1.6598,1.227 -3.0894,-1.1177 z m -77.201,-16.029 c -2.7906,-2.7906 -1.7461,-5.4396 1.346,-3.4136 1.6527,1.0829 2.234,3.8847 0.9683,4.6669 -0.36063,0.2229 -1.4021,-0.3411 -2.3143,-1.2533 z m 30.822,-1.2909 c -0.80375,-0.9685 -0.34753,-1.7503 1.0214,-1.7503 0.98501,0 1.207,1.7046 0.29532,2.268 -0.32246,0.1993 -0.915,-0.0337 -1.3167,-0.5177 z m -177.29,-4.3472 c 0,-1.9901 2.8609,-5.0298 4.045,-4.2979 1.1076,0.6845 0.5789,3.3625 -0.94686,4.7959 -2.0919,1.9652 -3.0982,1.8035 -3.0982,-0.498 z m 173.13,124.42 c -1.2198,-1.2197 0.57349,-8.8163 2.0812,-8.8163 0.3332,0 1.3898,0.6167 2.348,1.3705 3.1254,2.4584 1.6439,7.8866 -2.1524,7.8866 -1.0098,0 -2.0344,-0.1983 -2.2768,-0.4408 z m 48.525,-128.55 c -0.42919,-0.4292 -2.0508,-0.9499 -3.6037,-1.1572 -2.2495,-0.3002 -2.8233,-0.6437 -2.8233,-1.6901 0,-1.0829 0.61948,-1.4025 3.5298,-1.8214 6.3965,-0.9205 11.708,1.6329 9.3376,4.4889 -0.95704,1.1532 -5.3446,1.2756 -6.4405,0.1798 z m -163.5,-2.2753 c -0.51301,-1.3493 -0.39135,-2.1913 0.54936,-3.802 1.798,-3.0786 3.1475,-2.7184 2.9871,0.7972 -0.20388,4.4695 -2.3018,6.2521 -3.5365,3.0048 z m 115.98,0.7294 c -0.5051,-1.3162 0.97887,-4.8459 2.3357,-5.5556 1.1082,-0.5797 3.6352,0.0764 4.2737,1.1096 0.20189,0.3267 -0.41028,1.6865 -1.3604,3.0219 -1.8323,2.5752 -4.5268,3.3063 -5.249,1.4241 z m -83.773,-3.4533 c -0.19215,-0.3109 -0.0799,-0.9974 0.2494,-1.5255 0.63286,-1.015 2.6074,-0.3026 2.8364,1.0234 0.14263,0.8254 -2.6093,1.2733 -3.0858,0.5021 z m 32.953,-1.4966 c -0.99351,-1.0979 -1.0695,-1.6099 -0.44283,-2.9853 1.3835,-3.0365 6.069,-3.9371 6.0632,-1.1655 -0.003,1.6716 -2.4504,5.4759 -3.522,5.4759 -0.49449,0 -1.4387,-0.5963 -2.0983,-1.3251 z m -111.1,-7.2998 c -0.59034,-0.95519 0.91688,-2.6159 2.3741,-2.6159 1.8738,0 2.1138,1.1269 0.48321,2.269 -1.7387,1.2178 -2.2786,1.2833 -2.8573,0.34688 z m 179.6,-3.5395 c -0.45065,-0.54301 -0.72214,-1.6732 -0.60331,-2.5114 0.19805,-1.397 0.49182,-1.5046 3.5222,-1.2895 3.5007,0.24843 4.411,0.92436 4.1364,3.0715 -0.13699,1.0713 -0.74518,1.3599 -3.2025,1.5196 -2.0776,0.13503 -3.2916,-0.11394 -3.8528,-0.79014 z m -48.491,-1.7742 c -1.7035,-0.99223 -1.5741,-4.5756 0.16529,-4.5756 0.72736,0 1.3225,0.34851 1.3225,0.77448 0,0.42597 0.47548,1.2998 1.0566,1.942 1.807,1.9967 -0.0183,3.3304 -2.5444,1.8591 z M 377.439,321.82 c -0.74073,-1.1985 3.7999,-5.9272 5.704,-5.9403 2.3926,-0.0164 3.5527,1.4598 2.4876,3.1654 -1.6845,2.6974 -7.1047,4.5335 -8.1916,2.7749 z m -33.59,89.896 c -0.55809,-1.4544 2.3015,-5.705 4.1501,-6.169 2.7774,-0.69709 3.1018,1.0772 0.66102,3.6156 -2.8318,2.9451 -4.3514,3.7516 -4.8112,2.5534 z m 114.09,-90.996 c -1.2559,-0.50677 -0.9885,-2.5166 0.51594,-3.8782 1.5292,-1.3839 4.2734,-0.82447 5.4936,1.1198 1.4163,2.2569 -2.639,4.1183 -6.0095,2.7583 z M 417.6,307.83 c -1.1445,-1.1445 -1.0268,-3.1652 0.2121,-3.6406 1.7934,-0.68817 4.3721,0.92909 4.1356,2.5937 -0.2431,1.7111 -3.0159,2.3788 -4.3477,1.0469 z m -23.569,-1.1139 c -1.0138,-1.6403 1.2693,-3.7455 3.2414,-2.9888 1.2598,0.48342 1.3048,2.884 0.0541,2.884 -0.51577,0 -1.3783,0.16905 -1.9168,0.37569 -0.5385,0.20664 -1.1589,0.0847 -1.3787,-0.27095 z m -38.746,-5.252 c 0,-0.64894 0.82094,-1.6648 1.8243,-2.2575 1.5606,-0.92188 2.0624,-0.95023 3.4714,-0.19613 2.0305,1.0867 1.7257,1.7426 -1.2998,2.7971 -3.1882,1.1112 -3.9959,1.0418 -3.9959,-0.34339 z"
       fill="url(#k)"
       id="path127"
       style="fill:url(#k)" />
  </g>
  <text
     xml:space="preserve"
     style="font-size:64px;line-height:41.5385px;font-family:'Liberation Sans';-inkscape-font-specification:'Liberation Sans';text-decoration:none;text-decoration-line:none;text-decoration-color:#000000;letter-spacing:0px;word-spacing:0px;fill:#ff0000;stroke:#000000;stroke-width:1px;stroke-linecap:butt;stroke-linejoin:miter;stroke-opacity:1;stop-color:#000000"
     x="-0.125"
     y="237.76079"
     id="text139"><tspan
       sodipodi:role="line"
       id="tspan137"
       x="-0.125"
       y="237.76079"
       style="font-style:normal;font-variant:normal;font-weight:normal;font-stretch:normal;font-size:64px;font-family:'Cooper Blk BT';-inkscape-font-specification:'Cooper Blk BT';fill:#aa0000;stroke:none">McKing</tspan></text>
</svg>
